<mxfile host="app.diagrams.net" modified="2023-06-30T11:58:34.734Z" agent="Mozilla/5.0 (Windows NT 10.0; Win64; x64) AppleWebKit/537.36 (KHTML, like Gecko) Chrome/114.0.0.0 Safari/537.36" etag="yQJVF48cX6h4dx0Esdsw" version="21.5.2" type="device">
  <diagram name="Page-1" id="ERFpFy1OwU4w6VpM9iT6">
    <mxGraphModel dx="1750" dy="1085" grid="1" gridSize="10" guides="1" tooltips="1" connect="1" arrows="1" fold="1" page="1" pageScale="1" pageWidth="1200" pageHeight="1600" math="0" shadow="0">
      <root>
        <mxCell id="0" />
        <mxCell id="1" parent="0" />
        <mxCell id="XOkUOKhJ9j0XacPf6OrE-1" style="edgeStyle=orthogonalEdgeStyle;rounded=0;orthogonalLoop=1;jettySize=auto;html=1;entryX=0.5;entryY=0;entryDx=0;entryDy=0;strokeWidth=2;" edge="1" parent="1" source="XOkUOKhJ9j0XacPf6OrE-2" target="XOkUOKhJ9j0XacPf6OrE-37">
          <mxGeometry relative="1" as="geometry" />
        </mxCell>
        <mxCell id="XOkUOKhJ9j0XacPf6OrE-2" value="&lt;b style=&quot;font-size: 21px;&quot;&gt;Input&amp;nbsp;&lt;/b&gt;&lt;br&gt;&lt;font style=&quot;font-size: 16px;&quot;&gt;MxNx3&lt;/font&gt;" style="rounded=1;whiteSpace=wrap;html=1;rotation=-90;strokeWidth=2;" vertex="1" parent="1">
          <mxGeometry x="-40" y="310" width="200" height="60" as="geometry" />
        </mxCell>
        <mxCell id="XOkUOKhJ9j0XacPf6OrE-88" value="" style="edgeStyle=orthogonalEdgeStyle;rounded=0;orthogonalLoop=1;jettySize=auto;html=1;" edge="1" parent="1" source="XOkUOKhJ9j0XacPf6OrE-4" target="XOkUOKhJ9j0XacPf6OrE-84">
          <mxGeometry relative="1" as="geometry" />
        </mxCell>
        <mxCell id="XOkUOKhJ9j0XacPf6OrE-4" value="" style="rounded=1;whiteSpace=wrap;html=1;strokeWidth=2;" vertex="1" parent="1">
          <mxGeometry x="280" y="240" width="400" height="200" as="geometry" />
        </mxCell>
        <mxCell id="XOkUOKhJ9j0XacPf6OrE-5" value="&lt;h2&gt;&lt;b&gt;&lt;font style=&quot;font-size: 16px;&quot;&gt;VGG-19 pretrained layers&lt;/font&gt;&lt;/b&gt;&lt;/h2&gt;" style="rounded=1;whiteSpace=wrap;html=1;fillColor=none;strokeColor=none;strokeWidth=2;" vertex="1" parent="1">
          <mxGeometry x="375" y="400" width="210" height="40" as="geometry" />
        </mxCell>
        <mxCell id="XOkUOKhJ9j0XacPf6OrE-30" style="edgeStyle=orthogonalEdgeStyle;rounded=0;orthogonalLoop=1;jettySize=auto;html=1;strokeWidth=2;" edge="1" parent="1" source="XOkUOKhJ9j0XacPf6OrE-31" target="XOkUOKhJ9j0XacPf6OrE-33">
          <mxGeometry relative="1" as="geometry" />
        </mxCell>
        <mxCell id="XOkUOKhJ9j0XacPf6OrE-31" value="&lt;span style=&quot;font-size: 21px;&quot;&gt;&lt;b&gt;Flatten&lt;/b&gt;&lt;/span&gt;" style="rounded=1;whiteSpace=wrap;html=1;rotation=-90;strokeWidth=2;" vertex="1" parent="1">
          <mxGeometry x="910" y="310" width="200" height="60" as="geometry" />
        </mxCell>
        <mxCell id="XOkUOKhJ9j0XacPf6OrE-33" value="&lt;span style=&quot;font-size: 21px;&quot;&gt;&lt;b&gt;Dense (512)&lt;/b&gt;&lt;/span&gt;" style="rounded=1;whiteSpace=wrap;html=1;rotation=-90;strokeWidth=2;" vertex="1" parent="1">
          <mxGeometry x="1010" y="310" width="200" height="60" as="geometry" />
        </mxCell>
        <mxCell id="XOkUOKhJ9j0XacPf6OrE-34" value="&lt;span style=&quot;font-size: 21px;&quot;&gt;&lt;b&gt;Dense (128)&lt;/b&gt;&lt;/span&gt;" style="rounded=1;whiteSpace=wrap;html=1;rotation=-90;strokeWidth=2;" vertex="1" parent="1">
          <mxGeometry x="1070" y="310" width="200" height="60" as="geometry" />
        </mxCell>
        <mxCell id="XOkUOKhJ9j0XacPf6OrE-35" value="&lt;span style=&quot;font-size: 21px;&quot;&gt;&lt;b&gt;Dense (3)&lt;/b&gt;&lt;/span&gt;" style="rounded=1;whiteSpace=wrap;html=1;rotation=-90;strokeWidth=2;" vertex="1" parent="1">
          <mxGeometry x="1130" y="310" width="200" height="60" as="geometry" />
        </mxCell>
        <mxCell id="XOkUOKhJ9j0XacPf6OrE-36" style="edgeStyle=orthogonalEdgeStyle;rounded=0;orthogonalLoop=1;jettySize=auto;html=1;entryX=0.5;entryY=0;entryDx=0;entryDy=0;strokeWidth=2;" edge="1" parent="1" source="XOkUOKhJ9j0XacPf6OrE-37" target="XOkUOKhJ9j0XacPf6OrE-39">
          <mxGeometry relative="1" as="geometry" />
        </mxCell>
        <mxCell id="XOkUOKhJ9j0XacPf6OrE-37" value="&lt;b style=&quot;font-size: 21px;&quot;&gt;Resize&lt;br&gt;&lt;/b&gt;&lt;font style=&quot;font-size: 16px;&quot;&gt;224x224x3&lt;/font&gt;" style="rounded=1;whiteSpace=wrap;html=1;rotation=-90;strokeWidth=2;" vertex="1" parent="1">
          <mxGeometry x="40" y="310" width="200" height="60" as="geometry" />
        </mxCell>
        <mxCell id="XOkUOKhJ9j0XacPf6OrE-38" style="edgeStyle=orthogonalEdgeStyle;rounded=0;orthogonalLoop=1;jettySize=auto;html=1;strokeWidth=2;" edge="1" parent="1" source="XOkUOKhJ9j0XacPf6OrE-39" target="XOkUOKhJ9j0XacPf6OrE-4">
          <mxGeometry relative="1" as="geometry" />
        </mxCell>
        <mxCell id="XOkUOKhJ9j0XacPf6OrE-39" value="&lt;span style=&quot;font-size: 21px;&quot;&gt;&lt;b&gt;Normalization&lt;/b&gt;&lt;/span&gt;" style="rounded=1;whiteSpace=wrap;html=1;rotation=-90;strokeWidth=2;" vertex="1" parent="1">
          <mxGeometry x="120" y="310" width="200" height="60" as="geometry" />
        </mxCell>
        <mxCell id="XOkUOKhJ9j0XacPf6OrE-40" value="" style="shape=curlyBracket;whiteSpace=wrap;html=1;rounded=1;flipH=1;labelPosition=right;verticalLabelPosition=middle;align=left;verticalAlign=middle;strokeWidth=2;rotation=90;" vertex="1" parent="1">
          <mxGeometry x="122.5" y="377.5" width="45" height="230" as="geometry" />
        </mxCell>
        <mxCell id="XOkUOKhJ9j0XacPf6OrE-41" value="&lt;b&gt;&lt;font style=&quot;font-size: 20px;&quot;&gt;Pre-processing&lt;/font&gt;&lt;/b&gt;" style="text;html=1;align=center;verticalAlign=middle;resizable=0;points=[];autosize=1;strokeColor=none;fillColor=none;" vertex="1" parent="1">
          <mxGeometry x="60" y="510" width="170" height="40" as="geometry" />
        </mxCell>
        <mxCell id="XOkUOKhJ9j0XacPf6OrE-42" value="" style="shape=curlyBracket;whiteSpace=wrap;html=1;rounded=1;flipH=1;labelPosition=right;verticalLabelPosition=middle;align=left;verticalAlign=middle;strokeWidth=2;rotation=90;" vertex="1" parent="1">
          <mxGeometry x="516.57" y="235.94" width="45" height="513.13" as="geometry" />
        </mxCell>
        <mxCell id="XOkUOKhJ9j0XacPf6OrE-43" value="&lt;b&gt;&lt;font style=&quot;font-size: 20px;&quot;&gt;Feature Extraction&lt;/font&gt;&lt;/b&gt;" style="text;html=1;align=center;verticalAlign=middle;resizable=0;points=[];autosize=1;strokeColor=none;fillColor=none;" vertex="1" parent="1">
          <mxGeometry x="439.07" y="510" width="200" height="40" as="geometry" />
        </mxCell>
        <mxCell id="XOkUOKhJ9j0XacPf6OrE-44" value="" style="shape=curlyBracket;whiteSpace=wrap;html=1;rounded=1;flipH=1;labelPosition=right;verticalLabelPosition=middle;align=left;verticalAlign=middle;strokeWidth=2;rotation=90;" vertex="1" parent="1">
          <mxGeometry x="1092.04" y="352.35" width="40.31" height="275.62" as="geometry" />
        </mxCell>
        <mxCell id="XOkUOKhJ9j0XacPf6OrE-45" value="&lt;b&gt;&lt;font style=&quot;font-size: 20px;&quot;&gt;Classification&lt;/font&gt;&lt;/b&gt;" style="text;html=1;align=center;verticalAlign=middle;resizable=0;points=[];autosize=1;strokeColor=none;fillColor=none;" vertex="1" parent="1">
          <mxGeometry x="1035" y="510" width="150" height="40" as="geometry" />
        </mxCell>
        <mxCell id="XOkUOKhJ9j0XacPf6OrE-46" value="" style="shape=image;verticalLabelPosition=bottom;labelBackgroundColor=default;verticalAlign=top;aspect=fixed;imageAspect=0;image=data:image/png,iVBORw0KGgoAAAANSUhEUgAAA1IAAAEkCAMAAAASHPDAAAAABGdBTUEAALGPC/xhBQAAAAFzUkdCAK7OHOkAAAAJcEhZcwAALiMAAC4jAXilP3YAAAMAUExURf///6HB4f+fzaLC45X///+fz3r/enj/eP//AMWf4/+hz8Se4p/B4ZP//6HB4Maf5cSf4aC/4Hj/ev8Sbseg5f+hzvr9+v7+//6Gu/f5/P76/v7++76X3P2czPj4+Ddblo/4+cOf48Kd3/+h0SEeI/H1+Zy73vTv9vv8//+j0W33dURzx87Y67iT1c7Oz+3w9v79AnP1dej38KbC4no+qXb8dxu5W+Lk4/1srMeh5v///ZKSktrZ2xa+VO/v8P+PxVg4TGmPx4BGq2hpad3l9KC44SwfKbnH6HZJYvr0CP9/t/KWwkPbZJ+foK6Bzv749lBHVohTr5Cs1UNmnqZ7xMLCw1iDyx84GcLM3jZHTrGMzmXbaXQ2ppVgudaErSfKWkcuPZBsnXeQtQ+5UuTW6OmRuhUdGL7N6kyqU/GKNY5XdamqrDArMuft9mDMjzktP/9WmY1Tt1BVWf8ddezp6UWWSW+Isw0LDW/Dz/ibxaO94Wzlbyg4PP/u7Xt7erLF5Xr6fV7MYzyBPhktGF9MbCUsMG7wcpa521V1qO3qC0c4TyVOJorv7/+v0CZDIPTAFX/e4DkkMIWGhrtzmZ5+t/8mfEtMIDFpMatpjf3izH2fyoujwmWBnTg2KFxaWWLvcW+az0V1rDlWXjs6Pt7b8OCLs2COzli+XP6fzHtpkc/m5i6+bSpaKsl6oZLetGhudMGj25d1sHJVd73r1EV0oHj8eP83iXeKnvHRE7Kws0ZvdJ9txfGNHcqz3PGVXXVdh27IsWvRnNbUE7m5uf92rFeTnO+rKEi/Z/+j0/+ly6+oIWxtHV10kvHbyMXCGisrHndxdZ1ggjZvRHj+eENDQbrC26iHwmJaaknHgWVmVJWUH7q/yW3B2WGqqkR9oJi8z3fSv7W3uDDPXIKBGy9CQv9Qk7Olmc7x3F5aIvOgUO+6iZKAomZAVrm7HeqXNOu0dvWkIpf//6uKxf6ez4qKMHCZbXbRmfCJPum1Yuu3Zsd/rPSsd3DD2varevOLRZf4+U+9p2sAACAASURBVHgB7P0PXFTnnTaMgwYMavzXACsgFRzFNkKk1lKHKTUhIVpKQ0gIAVoqtkwoTEpDIIhSosBoRZdVoGqj0BZC0V91LbTWSrdLKnWfRq2IUt3YtcbVPuuvNbvPaj7d581293mv63ufc+acmZE/Jmzd98kNzAwz37nPmXPONdf3/x0QYB0JGQ7rE+/zfynZyckJcZg0urQ07H2e+4PpPjgC984RCI92JMhoHsxISEiZsB2raO4czixvdtjDU9rbiawPxgdH4P+jR8BR7ups6+zsdFbZOod/EzlBnzL8mCvV4UgeTnXYKzLLU+wTtJkPpv3gCPz5j0BFssuW2pyc3F6VmpzsmChIhdW6EiIjIweG33SkDJdPHBn++Y/nB3vwwRGIy059MyMpMiPtarh9wthj8Vl3Ng61fSAzNfsDlvrgovv/9hGwR1aUlqcOJNuuTuDntF/tvDhQIZjKHCz/wJaawEP9wdT3wBEID0uoLR92TiSkAqKPlbdlhwNTCW86P7Cl7oGT/sEuTOARCI+uiE4ZeDMzOzolesI2ExnmGEjC7PaApIHsiXWiR6Sk/Hcw1sJTJvBwv7/nMey/zZ6+v5/7bmeLG6hNbc5OeSEpOuFswuK7nWXU93nsNHvkRJlskUlXHWGOjNSLtVeTwIj36ohLGEhIqSg9nNqcMHHfYe/Phw/nCHCczcbtB2OMRyCstG34cPtwc4XdXurOGOObxi8WFm0a43/72N6R0N42kDDc+ebZdlcqKfGeHPbo5M624ebaztTDw8MDE+VifV8+evRAhoxaZ3tGRsL7MuX/DZMklZdnRydldNYmBZQOlk4Uf4SVvtn+JkY7f5LnTsyBjW52JSedrSlNiU5KHsyYoI28913P7nzzWEanKyPlyYHhdrhs7t2Rkup0utpcbbYq3GVMnAZz7x6Bu9qzBFdtWEB4dGlnbcUx28SxVPZwla398Fn5yZggdefhN4crKnCVhofbHa6zE7SRuzrIljdl2I6FVwwPV0Taw1JdE5sFZtnu+P8Jy051pZZmZyc7z2Zn37O0P/7PNcHvcAyX87QSU82DpROnMTtS3aVxCx+Oe/jhuIUTxIXRzTVXK2qHoaGElbqSJ9YH8h7OSqm7eWFCZxt2M6l8+F62+fAZK0pTUwfmJtiS38Pn/b/trfa45M720ugAe3RpZplz4lgqICBhOJX8MZEHOKE9Mzk5s710IHm4PGFCt/RePkVSamdq+/Bwe2np4bTke5ZLtU8Y5qgtb07+AFLjOeH2lGPtZ1Pg3Q7LfrNzYDzvHKfsYkf23IkjQbUzjuTy9uG24fLh2oR7lqQC7I7m1NqE35QPD3c2J3kcoeM8nP9l4ilXU4erPmCp8Rxve3TCQBIvwIikYxOpL4s7djw7Nn7Z8MjoJEfCQEZp9j2dmGuvyE6oeLIiIcHhcNzrLIWTEJmUcZjZZPf4WFxxzxzMpOT24fbkJHhzszMH7lltaSznM7o0Izoy+ip8028mO+7dTxKeUJs5nHosxW4Pa25Punf303PI7U9OWCjRs5H3+mhuRmZG0j3hlYxLHkzNaB6+mBAJJ/qE2VLhFUmOJAd/8TdRJnlK+3DF4qttwxmltZ3t96wrLTKpva22NLUTkcDIs/e2xy8iSc4aT5nDAePgnh7RtVXDqVdF3/oz76dj+GKSPTq7vD0hoNQ2YXGpxQjEtA1ro3aCtB1CCn8JYZFxGWnN92wQtdSdHB2ZgkhgxeLDbfcs8nlZptS6XJ36Wcu4x/k0utadUTucWpqQEvnnTfWwIy4VbbdHJmS2JxybOEghp8WZlqxi8RkTleNHSFVktvPr1NF5eIJw+96/AVFGg0nm/k9E18FS9/SFmt1eNayftYT3/skncobwubVtCRXHzg4P1yYj3+vP+YWK2Eg2LsIw8FStrXTC9sSe0mxLjouMCItYHBExQY6/lHZXaUIq4lLhcRmDzZETtJX3fF0MuA7TkF5Y2nm2/N5W/BA5a3dlR0dG4LTdq0fTOB3RqHINCKvITk7tHC5PxiX95xr2J69mdjbjDNsTUm1VE2ZLYf6ks4dV9s2EfS9HNw+Xl3dWJS92nK25d22pgIXNw8OMqaPexem+pxW/gHB7Qvs9HzrToBN91s1YpD06KeFqxgCu6D/fCEtoTo7D5u1JyakT6Su1p1RMcKwoPC7JMZBx9mpkQmrzPXyp2lMGaq9SHQhLOFt7r3v8wioqJuwr8P295qNLz6qDGY5YSvSEqVtj2Wm7PTpafI+RE1sWE65rYosnTIewwyiMjg4LCIsLs0/YRsZyTEeRwRHndYqd/bPq/KPspXpZP5B/XpN/DLtqX1gRFhkmp90eOcFf3qPuTtwAPOgYSVIkOKr4XQrYHVdFwZ2bnT1xXyGLEwbiyP74SH/uozrSYUpS9Vx2tbcjSf65X4vOzhYdKmVgwlr9vF8f0W4Pd1wV24I7/ef9Sq2oldzw8ITD2RNI8pEgZh69lGSabhM0wjJq5aDiI93DkLJrRzoyAyU19/RACmhzHPfQcXYCU6rfr0MQeaxWPKgpGc3y7f1+zTv+eRanRNvDcAVGVzw5/jeP/R1xipjtKROZLZSSErk4zB6AKvQJ/HYY+2e+gySOdHgYuDoOFR53ELlHnubZ4rWB+3tkj0bajbiksMXgp8iKij8vSSGLqyIBPpKkpIiRdve9vxbmuJqRlOJImciPa1/oKC2tQLrXPX2p2iOTBjIccY5735SCBy2htDQuKWniNIv3fmEZM9ijHccykiom9hIztjbSA8fZ4cHUitrMgQlVlqIzyl2uhAHU5I+0L+/xtZTkTFeno3T4zxmYGP0jhA20D9tKHeWp97BjUvsUFc2Z7syk5OGMe/tLSu1tXGl7pys7u/zP7khNae7McKWmZA8PT+QZDs/urD07mJ1U60qeODaMPNbZ3N6WkJTqOjZxPpDRITOahKO8PdmWkZLcxrKae3pEZ3Qmo1AyoX1CC3/er0OQPXw21T1QgUtsLKRaUZp8TNMQHcfe3+95x/BhR2dqSmTGYOn79dn8zBPZ7EpoHswOSBpun7gvvOiznY5alyMy4R4ulMexuWorHbBlRC5MbZuoFGI/J+CunkKSV9KbnUkBA4PN97QqLR8uMtmVnTF4zI5K9TEYU0mpbmea5h861v7+ZoYJpN6MC0+2TSSkwpsHE5Ld2XZHZ/nCuzq7Y3lT9OFOx9m2BHvC4L2b44fPgWzK3wBSKe01E6kXjOWAjSZDSOGXkBpN9M//eiSurwz3VYHU6HuT0ZZ8tdb9P0Ww4n1u/0bFD9UQpVD8JlJbguJXa7uacNaWPHGORfuxtmSkpWWnTlyzp9HP1egSjvKLzYPJjuTBw/8tFL/OhOxy13+HWjoofmexqFNt2hjiNHFn30wJd2Q2SyetpIGUpOykq6V6I8ukY6WIx8Vl4xvPwZcSjjmUnyE6O2MAzuS4bNS5RgZEZ5eWOmDGQDzBGglzpA4729pdw+hBMXEjPDoj0+UsHx5U4amJ2ZAdCXRuW/uw+88dmBj540VebW9zDmcOXky417UpO/rj2AbbO9uSJ061GPlYjeNVOzxgbc72YddZx+he5ejSgXA01FGVRqXljoH2s7g8lf7nSLU5hzPCHOWodsroTLg6nGmrlS+/lOROpzs5Dham09l5FT2QnM7yhADHmzZnp2UhwrAUx9Xk5uSM7IktM4tLys5obkbm/UTmteEbBRvJGEiomEjCHcdp9isaXZFQiiN+LEH77vMrdE88ibzJgYxkHFDH+2u/T8yH0y6xYwljrUTM7syQ66R02HHMVZ4BvwbJKLq2rbm0fDjBMZwRac/ozD42mJmsUn8GOlNRPZqdkJlamtGWCi9TaTKy3puHM44dzjQlyIZXNNc6oqPnBgwMH5uYTyqzRh5DcXhktD3lcKrE4ydkU5Fok5CCpEn922dCNvLeJ004nJGEZMSwZmn49t7nm7AZ7AuTa7PjFkYvdmQmT9hG3reJI6+eLa2YGx35sbOpY/oCCE9KVW4Je2l5wsBgBi4baf+YlAlOyh5OdpSjNCOjLeGYKyMsgvpEdPKww+44e3Wg1hHpaG9H06+ECoTBMvFMcpv5ADk6nZnHoPNNYFUvdieyuaqtGS0uKjIzPzZh6k704aq2ZOROJ5WlTqQS+14vgmNVg6nIq2RrzAk7FO91H9X7U8qrhjNgPCQM1t7LtK92NqLZ6cLFHlBRPjwGjx+6FNZ2ah20wVIDndkBKe1n6Y3OHkarsIrUwwmZKGUGS10dzsb6GBgph8+m2CPxnZ2Q0VzubMdyh22pGUnZg06nzem0QKot8/BwclLAsYnrPREQEB7W7KzNvIjlQYbLmdk6IcMenepCsXRCGIIC9zKkSm2p7eXg7Hu9qheJXeVttcO1jjBAanTzZELO6dgnRXucwdT2iwNxFeWZYzAu7C/ALfekXIr20kzkICQERANSSL7KBoQCUs6eTSjPsNvBUlfZbpUjKZWmF2rg292DmcPtKSlXz7pszYiFol69VJMRQVSVIzzenj2xLBWBqku0CgSbDkdP2BdedGqnI7t8uNRRlqoOlnzAe+4GR9pxtrPWcc9DKiAFcd5jw5lXs121E/U9+P6dnUjEPVHWnZzQXj4GSMUlu4yUELIUmpYsbK9lK2THMMrbk9qbE2BLRWa4so/pkFpYC40yzOGo7cRa8antSY6UlISz7ceGj4UHRDuSPB8EkaLU6GikyLRPYE90FNw12xwBSViwYnAC1+qNvtiZ9CQiUxdt9zZLOUvtFRmd5cNt97riV4F+HmEJqZ1vOms9V8y9+ggslb3Y0TwM5/XokLIPdDan6AVWtKWGE+wLhaXCK8rbk6JL2zKShs+mJLXbEo7BqycjMrkzezGMrFSwYHZNe3Z7RnRFanlCeSrEh0tNh8UxjI4u4Wi44jQ/axJ4Xx4yewK51xmdVe3QzSdoRKcOJ0XianVXpVIpvlfHMeRL2aMHyqs673VIpbS3Y5mkpGZ31X+DUG9EcmdCuD2ldBhmzqhqakq7szw1NfWYxJvAUjSY4trPkqUiMtqGU13tSSmpg+3oXgxbKkG7mLDUUurwcHaGqz21HIsJnG1rb3clpyS7Mt90XTRF7dFyzBFpD49MOZZhevb9vxodLGaDHjqRjQEiE7iRcATkJrDO8T0fGnuFrFtsd2SUTty3y3veS5kgOkH6WSG0OaHXxvuzs3bHbx4OQJV6QsaxUaNo4Untgy6Xq01lAw6kOrJTYUvVqn9TMoZdqQnhkY43XakZfEn/8GHZ7W2ZV6OTml3oFpnqcKS62tCPsQIrhqXqqIMVNuBIGSjVhkkdfH8+pD5LZMIAqi4y1GYmqunYYhRzohJBbQUOtXt0oPQ0ST/gKtpxj+4okgOymR+gRsKo3/t/3o+BSywFhT1y/vGtPaqOgl7fHClyncRVRC+siA4Ir5Bw5ly4xh0pi8PD0RQ6JS4pemGSkRoRWeGoQJO+FFS7RCehHaMjiV+KmOth43qzO8qTHe1uF37crrYJWwEbEZikZNnIoHswddSvkLs6OfaFZ9+EhqI+insMKSl3tZX3/qZjw9kDne5B7uhg+YR9ib33/aQf+WzFWTmeaW5X8qgX6fuxybufY25yuwPk4nKVYZG5s2OKSxkbQ9MSDihR8lRCppYKgW8R/Nq1p/kaOvtTBovjRsoKEdKSQ94q75SblOwkrB07kD2Qjd8J64YT7sh+0sFtYKDTxcScnbAEeM+1bWQ7UNt7b46k7JQKdSiwrxPn/HwfPnx0QgLWoJCTls10t3t6RDqykekhV/LAwHvKgo07XPUey5zQVshufxJ9r2GFTNyQrwHQ5kQmPaFAHt8fT3IjkRME2/flAMmxSHE4UCZ/r+Je/5zcVVwbDiyKoD91r96DTHA87Tz772lnI6/aqqrGVHB1pyMBI/lYdHSGLN8xgYct7mqGw55wdjjz7ESZUviA8LAkBWSnDpffy+tLwUTJQNkYGmRy+Y47nZZ74/mk0oyUsGNvDpc3T2iRwvvzYVOuJqNS7uxw+dn31Bkzqb2qqqrtvdjiCe2DZ1OOueFsb1PZtu/P5/OaJSV5sDO7on2wFlfShPVhqqh1DzscmYPNzW3lY8hF9trF/6p/w0qHXaXoZ52aXN5mSV/+r9qBMW8nMumsu70iobOzudn15j1t9eEjoZlT23B2Rerg2WRcYqoUY8yf1CQYnQFEVVW9h3rrlNrOUjjg27Ij8ciUTGvayPvwEHG1swlhV221cZEom7r7zzvirkSUtjU7ojMGk6Of/J+uZMMDM+J7/gwvouY0O8XRiaWlHJljiJ/8GfZQ32R0sivZEY0lnJ9EpsE933QsuzM1IWXAfbYiDBdbiv4Zxn3v6BRI2aQh8LjfzTc4ECFWZZB2pMnc1RRjeNNixnmjkwePBdgrkOM3hneMX8Qeh2wke1xtW3bA4qR7d+UOe6mrNDLyGNZBsEcevreXGUhhYk9FKlfsQY7f+M/If+k7wprbsheHJbtLEeovLx+fx8+0o3HNVU5nVVpNVftd0zIWwwkLuIqVBiIJqYn6ap/LxclQdJ2A1MPhiUpIWojkmYCkTBZMONz3bvZExuBVe3SzC8nO0bha4aS9Z0cFMkOxrtCbSEXIdt/rvSdk5Y4UFDPxEhtbJrq/A589WJXaXlXe7HRmSL2vP5mRn7Oju0pSXK0NDYVSDrsmTPELSx4sDUtwp6YEhA9gQauR9+kuX7UvBEHNveqsXRiwGNrfRH073OXeGW+zH3M1x+GkO7BYCtqOGM/fgw9SLg4nRGfYkueGRyenTZgG8z598MXIgo1LaGuvCLBf7Tx7t4pQRWqVKzu1qt2BohZ8/9/VgL58uBn5THZ0Qhhb4dbdbAZXz3ByOTSelIHytonqYmDP7ixPHu4csKccG+5M0Pvj383uTuh7KlJdzakIRSMbdTDDCMtP6CbvcvKwY23tyZ3DCeFI8X2PkZq73INxvM2eUD7c3O7OWJwy0D549S7N9YhSZ1VzSmpVeUqpraqZ+X53MewpyantZxMiCa334jgcbdPZZy+2o5YN0JIG7KOJ39Xrc6+mtqeigcZAZyZu79UR5qhNvdicFF7R3onbe3UvZb9SSnFAB+aGl3a2a7V69/DuRmafTU3NSAlAz0Hc3t1IykSUNxIsFQdcMc37rgYSlipSYConDExY7oTsV3RFChIaKgYSFt8d9sfy4exx+ChsWHNPR1Gwqhh7oUcPqEUxxvLB/lwyvDawbcexexz7cnyYeYcquRTkTtztJeZoc2aEPUmWgsoDa+gu51FZS8jgvcv3j/F0h/9XJDSodKyJ/ihj/MQjiE3wsR5hy3fzEo7qvc2mlg/1XlJSUlAbEBD5JuuPogcyRi+6smz4g38+OAIfHAGfIxCGRd8iDoOlAuxh93T+pc+ef/DEB0fgnj0CYW9WSeh0YrW2e/bjf7BjHxyB9/sIhNGWer8n/WC+D47A/71HIAKQiv6/9+N/8Mk/OALv9xGg4nevlwi835/5g/k+OAITeAQi4PG72+yLCdytD6b+4Aj8dz0CYfT43bO+CXtkZEQEfs3DX3zKr9jYTkl4WER0RHS0/KkbPI7wfi/2wSzDf6IjrFkr4SJimghCERHeARnPRHxZzem7Oe/Nf/D/xB2BxXOj5y60/Mxd7JXgGb547lyrxNy5vhkH4YspNnduNBU/9XDx4vHud/jCh19IeaHiBfPNw9YLjVOGLYSAVe7hhWPa2Nd/9R+//49/x/gP/Mjdv//Hf/z+W94LTH39V7//D7wuItrdf/z+V1/3FvP38eZ++QcXnvGMVnl462cVVlDF/cwiJUIX8n4WZ/ouivjyD2555tEe3frBl62HI/rL8f42l2LdnL8dRVf4hR/zHdbp5WD7Cn3MS2quH5G5XpdRQLg/KYRdRh8RX/czfD5hRJyvVJxVyu9EPgnefqWsE915nyNf+PXetd5j769fMH/Ohc9d8ZZYu/fKa14uiIXPr8/KepW/HVU1uOfjx195YUzXubF/C5fsffn06W/gB78/Oo1fPF575TXz7qApzGO/WfsNvg4x4+blvc+N2ufIHvGtf//KV/7ZZ/zn3/7+68Y+4IH96//+n//pI/WV//zbX42eEBL3g8KPP/px/OJGf/Dox/sf/enPTGcuPOXWUyIikiInsk8982Xjo0b8rPDRRzmNMZHIPfXUz0xH3h4X/5QIqTmMOZ/6wpdHP/If++Ef//77XuPvf/7XH7NAwf6xv/6qj9T3IWX3HLHwf/rrr3rN8/3vf/WPPzTtKITDfviW70Rf/et/smzOM6npUdxffvJ33/zxN62/n5xnXV4oIq76kz/+MWT4o//++Bd/af6WmvuXv/id+WXK/fhrn/6yFS7YHCbSp1APfvzJ/V83To1p13wezl2y72l/Y63DOCHhD+897U/kG78xX8GRj2U9q42HaqpqHnr2Wfzi79UlxkQ+G/d9YuGVbzz9jWefPYG3fvd7nA6PTjz726f3WWYJX/Ly09+VV5SEEnvoR0/vjfOd0vrM1//2b/5q6+rVW/Hj+V29+id/95Xfmwno6//+z3/nEVOyeMNf/a+//dZoh3XuDz7+VGtefJTX+NxPH33KdJHHXfj4F1ohZJWLv/CFj//0y9oeR/zsxUd78rymiYq/9cxTj/7Mo/xFxz/61DPem4uPv/XTj4+OqY/98ROf+uIX/9H4kQdf/NQnvvpP5g/5T1+1Sin5L37i7//JIKqwH/79l8wT6SLf/2tzalv0X3//U8a2PFv9xP/44WhE9fVffPOlH/uMb37oa182w/rLX/uQP6mXfuGBQlz1j1/6pu9EL/3uL82f+Ouf9CP042++9LWve4679bIy/wdEvZy1ZZHXz96Xn375MV1s4d6nv/FqllkE0luy1n736V8bxzQg4IVXn30kK2vL4/zpqLqe9fjjix6H1KvPfs+LYfRp/d2H/frpE+u2z5fxAG8f4M/2Hf/w9MtJHnn7C2t/9J0d8qr5ZvuOl5++Yv228bxHe/Tkv3zlJ6uXLl16//3340b/xf3qv/vbbxmnx/7kr/7trzximiylf/KV33/dEPOZnU+Ef/mpp/KmPfjgTO8x7ZmPPxOnvyXiZ49+IcpX5sEHp/V8/AfqOyi84qePfs57kpkPYua8R7/wmjERNhcvz5pEQyAU+8zHb1k5Qn+LcT/3rz/xxW9/dM5Gyzj/0W9/9ks/NzHQwq9+6bPf/miwRWjjRkp99WP6VP/0/U999tvLvUSWf/SzX/zUDz2XatgPv/+pb3/0iLfUtz/7qb//J30i//dz/+KlH//i07cX3L59e0EQboJuL8Dj9M987UOfNOkWX//aS1/7i0/jZYwF/OHN7U//4scv/YV+VUR+5KUffzJdXqcM58KY9xdfe+l3niqx8OhfvPQ7bm5BkLYxkUr/zO9e+qRxAv3vKJ9duPfDr85ej58Z6/ljPNjyyNNXNDVl8ZKnv7Fo/fplM9avn72MMrxZP3v2+iwT7ALCXnn21UXTJ0+ePv3xyes7qoYXTZ89e3Zg4Ozprz67xUxmd94VvvLCyz/a8YCfMf8fzGAJ/83T35nvR+qBHd81I8/fpr7+t3+3mnjyGQSL5w1P/vvfbPUVwTOr/+7///VR1JQfPPqM6erWHk7DfewXHjWQEP3Mo7d8pfhM/KNf0M7bzx7t4dv04Xk87aeP/kzf1/D4R1t1Cet91FNPeVlv+nv0+3/6/hc/Oid4zpwpU4L13yl4EPzRf/z+D40vy8gffuIflwdjzFFClIVMcPDyz37ih3PV10vYX3/qs5SgiDYX7vDMtz/11Y8ZmPrYVz/17eVHPLOIMN4z57Of+muTSqzvnefe/uUf/5g4uB2EoW74D+Dyu2962CXiI9/83acXiBBf0+By+/YvP/3jH+tk9vXfvfQZmcgzlZL7mgd2Afa//PGPBZnz1MYmBU0SbMnmPHt1p0ePvfyNLbNnz5g9Y4b84W4G/509I+tHL2sq6Ny9T++dHahEIKd+Re7lp58zvrEXvvps1uTJs6fPnj599mSw1JYZeDBj9uTJj3/vey8YR/VOu6E9b1/yo0f8YuX/bP/uWkN/DJ+71z/wHgDynht5E7/6z7/ygYp6YvXf/N7Aiv3rf/u//ALv/vv/6t9G0fwibnm4ZZpn4HKf9tOPf1nfu7gvPBWlIcAjM42omfbiixqkfvBxnaTMIpB58JmPG5CKfObR+DtM9NNHjc3pm7Xch/3wE5/dCKTw0jaPOXO+/ak/6pAKD/vjp75NBAF41jHn21/6uSb1sb//4kcpY50JM8/5x+//k77N8H/6/j9+lPi1DuzARz/11RG/de1vvPS1ebdv49JWIwgPiK0Ftz/zoc8YV2DEL176DBCFVxQSiL9QAGbevE++9JdqJ8L/8pu/mxfKFwgTTELhSZMIu29+zdD77ftf+qS2OSVHcQHVJ19KNzanfyzve/uSp18Gm+g4IrYEMtNnr//GvhQlvXjt01sAMnlFXhXM8U2vfvjX+oThD3/ne4umTwem1k+fDpbKvRKIt+Df6ZO/8+xjutSo9899eJ0/9nnggfnfXespNp378ne3+xf7hw+PAqlvfWUESHl8mCAz/5Ba+ldf+dbInyL8mUf9gYVwAaT0L5e4p14UIJjBEjttWuzMadNefOphtYUffP5zKyhkluHjmTM/93kDUhHPfJybm+YlxadMpOh3l+1//aVvgyR8wRL80S+9bpR6zP3qpwAXRUAWMAAJP9fI5WPf/yKIzAct4KnPeiAVAARP8YUUaG3OF//eUCH97umnPwRuIQZCAYNQdZ3z0YJPf+gXxvdgxNe++el5YB/CjjcUAxRCby/45Ife0Kb9S4IFT4fyVeBNhPD/7XmAlH5uAv4Cm5u3f6rCr9xyLkyEF/zun+VJx4dfniy8RPqRH9zMnj09cNE3vqGd2WhAar32mgBLE5wR+OqHJSxsUwAAIABJREFUf2NM9sL3vkeSIk/NCOyo6lwEaGGe2YHjgZRdIHXfA/Jz3328k3EfIPWyxzCY+/KPyGWanHGPp9aNAin7r/7tJ/5ZaqmZpQLeA6QCnvl4PK/vmGmESAhuOGKnxcbM/OnnDdqIe/EpoSS+FoIfSmiwePEpxVKRwlIUoIjIaLdmSIUJpJSUNpMSBYKfMjZnnCbzgzBAyi9Y5gAsOkvZAalEP1QGJHxUZ6nIj33/Hzd6UZRC38bPfsJgKUJqjh9IBc9Z/sW/H5mlcCkvuD0JWPIMQgfX+Eu/iNA/UsTXXvr0AkBIkDQJTBU6KRS/k27/0gSpD31ygcKTgicxx7/bt7/5Ow9LfeZDf/ERgog/GHKHG0LqL/St3fE+csnTj8DeAYgESYqMpkOrmz5bh1Q4ITVDhBRHKXThPctMLBUASK0XQM0OnE2W2gJwBU7HhOOBVAAgJUBSYFLIIqjuA6Q86jZYCpDyg6gH/uThTf+f+Vv/NgJLRRis/h4gJSzFS3xmjFzoGn0AFGQpXXsFS8mrgjjeUIzIouL3sLpMfvD5vBUz8Vosb+QuhI9DpsWApfRdFZYSQPKG0grFeDQaSwUAUkdgyvDqt6hswZu/9HODpcLAUhsNK8nEU9TXdMXv+188IjaZ6WWZNRiQ0j8yIUUqs2xKpI6MxlKE1H5c2qEAgsZSoQBYkA9LLSAAFAworNBghRRBhJfw7lD1Mt8QRJYywAlILbjNt3PIPWUmhX4EkNKPu//Li886Prx2MvAzg7CifQRbiOCaMQMspSl+C9c+vUhgxBvKiejsGdOh+P3GIMsXvvfI5PXU9OiUAEvBloJ4IKyp8Sp+BlTUAyKKip+HpcKjhaUMOQGXSN03muJn/9VX7shSX/m9J+T0HiAV+TmwlKGGESUaa4TEmG2pF180UKReB5piBTwvPqUOfCQUP8xjmipk2kxhNDNLRf6UeqYOyRC8DiludObML4zCUovJUn4u8SlzPvqJPxr6lFL8fIEAltIhFQaWOuKPpYKDTbaUnZDyw1JTRmUpamJTcVXLhc2LHD8EBGnDUPzsVPxMUsCAMNCkoF/+wqP4kaXUPDpUgC2B1O++rqPETkjJy7IpgRU3ffv2WBS/cLDUMkHSbDAKQCCwAVxmTzcgNfdl2lJU4ygAEbAYcDN7xmQTS4U//L3vTceA3HR6/HK3BAo2p89eNk5IWZGiaX4WSAVoip+gyHoDSI38NTISS/2LruwEjKT4/ecoHr9waGK4onVqEc4IAbUAWT/9/Gv6NyFYiiQm9EOYxMaExMbGyFNQ/OSLyg6WelAgyffizxgh3raU8Yp6AGHy2WjuCbLURl+OUiqd8V1JltIdDxaCoS2lxZMEUv5QR5bSP7JiKdCSZRbS1PJPjWJLkaVw3SsUgJ4IK+KFLGWQIBS/ecQHXweH4U7oKHSSlaUogNdCOQV+BVBBkyy2FCAFbGJreFWwyztsdGwstYQsBXKBZkdSEQoKBHSo+GksNVe5J4R1gCXIASzECyFlHPmHhaWmA2l4QVhK5pseOGOckLJiRP/PwlJK8dNfMt3/6ygsZY8YwZYCS+nfUyNBajT3BGypKNAE0KHBIGTaLF7pswgpw7iJe/FFwEmzomIEA/qNF0uBvETxAywJQNzEUvHTd3UuvCECpBCLGHZg5miKn8ZSvKgt1zl93z/X1+0JF1tKocCKBS+W8sc/U8y2lGIptTXL7ZyNY1D8rPwTGsRLPIi2lH7SFEvxWWCBgBEU4P/b3izFt6qBRxDGgOJntaV034S8jJn4nrG5JxY7yFLkHIIJP3iA28kAmWFLKZYifYnSR/tIKYjethR5jIMsdR26IuDF/8YJKZ2XTEjBw+1mW0opflYB9R8gZYBcv+jM9/YRWcr4Pn0vkIItBffETB1QxJKMWaANky314lOkJA5oaiSxWRoC4fHzsBQUPRGR2fTH4vHTyVizpQSdmoAC6jRErwwEm4+B57HBUpYrXLGUIWVmKQv0PO6JALDUctpkVsxRGixlnBCxpbw2Jf+O5p4QxU8ufQ0CQjFEAljKOGl0T/ySUrj8iQGiIJSQMHv8PvRJPCmcg1eEiUSYkDIUvwDFUuQwBSZNFAgeiy1FlhLSgStBgYC4ARRoS6nTBpZaRFWPT4utpMAFjIGlDF0JLLV+BhFJfJYLpMB8eNt4IeUPKT621Hf/j18x2FKGW9+4JswPIr51Z4/fGFnq30ZxopOlcG2DU2IAE1LLLN5Bx4sxsxTcE4KlkFkQiwmZBc0P9yCXWI/H7/Ofe5CA0jCpACPkZ2IpHVICPeMG2x4dUhaWMl/qwVZb6hNQ/DS4mDEzJ9FqS5ln0B4Hj42lAKmRnei0pcAnAAlv1A+J6rZJ8ROWwnMa7wAMlMdNqEfxs/8lbSnSGF/SZyJ2qPjpF4rYUnwrB2UpAOH9VPx0oTveK48fmUnYiRiAPRSonOhK8QvXbSnCigofsARxGlUmW4oePz6PoFRgIBKShq8QTpjoLmwpf2jx4/HzJzaqLfWrEeJS/zKmuNTothRZCgOIARiEMgQNISEWlhLFDy/MEjTFQFD0ummAlMfj92AI9Tn44wFQAo7+vmkhdE94sRShq+S4LeJzmjlZw/8FQJbyAwRxjxvHQmMpM5jUe8BSX9UMGcSljniiUiZRsNT/T99TZUuZXjQ2PRZIAQnGNc4rHdd4aNBUk+IXQPfER4gT/OInlG/gTZAHUgGAFN7Ml8UW44zEjCh+ccZBontChEJDFaNpmwZLfcb4NIa09wN6/AJx6eM3EBykAEWqsdpSywgQ9Uf9UBBFlrJ6/Pi2QOqNVPw0mM6ePk7FTyHFW/2z2FJ3VPxG9fiNxFJ/8y+6Wo489LsP9Spbihe2NoirWbHAgsWWegqQglAMngdUiIEQcBXfYralHqRMCHRCwFN+gVNAz8RS4fD44U2UwGvajUA6ZjTF744sdd4UlwpQHj8zErTH4p6Q60k8fh5IGVCZ8n6ylMKBwgMehxIWZKkI/ZJ+EpAiAemDEuCqIJMtpbEUJPA85XgnP94sRVKUgTtMKsgae1xKhXqBAKAGDAXljbeGE11jKaBIXhc5saWsLAWPHyeQX/H4QU0MDMT/41T8/kEHEyJP8/EYfwzrwpaK1o8dPH7f5Ut+xmi2VMAIttRXfm98M783WwoeP5pHmsaHO8KGgDCzFDx+RICm1uHVWSQp/FHxU+YHPX5EC4A2S2l/vANf+bIUphI4zlLCeBfGaO4Jj8fPAwJ5BP75o3GwFUvheTOqKOZxTyhbSr1VXpGH8uiz3/+hMZPYUt6zQCp4XCylrnVc47jWaUsZpppiKUJFUQsfCWi8WUpoTMeSiAhLWWwpONH5wxEqhEYMT4XiZ3ztGh/L+wFsqUDAABQFhY9uP7joqPzNMNwTAcqWonuCSJJbKn7K42fYUohLrYelBQ875qAtRUARnIF3xVKEC1GDPwGPhaXgRP8//6oApcWueIff0VlqhLiUiaVGgtR/eg6998GU/xmXIrWQfDDIUTGzSCBwT5g9fk8JoJSI2FqKrEIAKU9cShS/WTEAJSwuUhqpLcQPS1EgBo54OAdhunGqkFHdE8JSxtVveiAspWs44vETePDqN0l53BNeLOURGiNLbfzUyNkTWlyKV7X8GNrYfkBKv8aVLaUwYMILTCArpDSVDiIYuOF9KN0TBt0pW4qbEljJA97QlvqM33NufpK21DJc+Uh1JQmBnRS+8NBwoiPUq+K2VPn4A1RRzIelxMIiKMFSnVsgEkhojpOl1gmCiBeSE/94Z82esCh+wmaaLJzov9YvBfPHNB6P6PH7vfH9MBKkvvIt/SQas1oeMC4FxYuoAvcoWJF88K8vS1HhIzsBA4QKcWN4/AIUS/F5/uL94KAQAGYa41L6x1TuCeqDoEH+cEAeD7/wHjx+rxsf0mApE5rkoRdLSRa6j8xYPX5jcE+QLniRG1AImsRQrzkuRVuK2h7+IAdpEf/lJ18ycvxoS+FV3uBl/GJSeQAnuoEpevxkM3hVRPEP8Tw2j5/k+AELovYFEjCBgXDcwY1uQIruCeT4TWfMicFcBLHIV8JSFltqPTgK0MRkmhOd8Bw3pBSItFsPvkyKH1RRJiRhGC+rf+4bnaVG9vjp1+lIttRoHr/wC5LjR0LBdY07oQ969Sy2FLInBCuxZDCl2UGpIxN5efyg7BGY1Pn4UDwPJlsqQo9LKTlsEOJgNSDvp0+9ZgG79z8j2VKeTHSxpRRUPPTD/z2QUtkTJjjpgmNkqbEofrzGce1jCLIEEbClPDl+WvaEvCo3kBfwTPWwlMeWIlLwKoBC2AhLWTx+2Bw3wR9I8RYsRUh5H0Sf/4WliBAwCnECCOAvEBS06Bv7VNqsyvETdNBJruTE3272+CF74hG8WQbjUp2LZFLgb9k4FT8TTHRbCk/N/60lx+9H3rYUeIywGtWWGtnjZxyfEdwTY/D4gaWEKYRgABz1421LAXI0uaikiYeCSh1/vT1+wBnsLPgumIgrBMRQr84iET8VUhTNEOCF9ke7DdOEwJZ6D3Ep/dslwBOX0oGiYcfjnoAtZfb4mbHlw1Jek4jsEaTNGtszzoHpAZ3ocl0LriSsJBc5jBtD8ROPH7Q6ooR/Agc+9sqeEFDKiwQVfvk4lKFeM0shWUMNUh5lgkJDmT0xBo8fijvAKwpK0yeLawLYohKoh3rhDHh6EZRDSk2HtRVIlU80QGRP/MagXWaiQwKvwnMo2ROEXSDcf+OEFJGh8Y+GLt5ZbKloC0spMKl3jZY2O6LH733LnlBOdOUxmDUtlkAAX3l7/KjLUdVDIpLodQIw6IAmW4ruCdHkBJSQApHhbWZbSmcpKHp4jeSke+Pv3paas9mTia48fn7deXCiK1VZ2VLeMgDPmFgqeE7imOJS1MHwqyAg2l3QL82Z6OLxE05RvAJyEWEfj5/MQBk+UL+0pSwspSwuAk4kwGSIgo0pLqVlTwAqM+ibIB4kDX02iztekO+JcCYk4VnwF+lMERpBaLWl4J5QcSm8wuwJZKLT1QFNcJyQMrGUrtiRpazZE/D4aXI6XYmD4l8BqRG/7kby+P3N7xcb3qMRWGq0hCQtE100PonxAjDQ+ogNqy0FHsGTKsYrcGBgCQgzefw+xxw/sYuIFRGGRIi3LSVQonbIByA9pWrGvCePn3EoyFKo3CBAFMPoPGNhKZU9YeIn9ZD1UsaXvyl7grOJBGp/x1AvRZYSDAShekMoSBhm0lRTqFdYCtkToXgJUopaQGihPtkTfJFDwYUPggRSxo7qtpSS4lQiRNNtbB4/IIW/hBPVOiEpqZfSc/zAUgQUYEbaEYYS8DEhybDoFUthCjolxJYC6UF23JASugFNzeev6HPie7DaUprHTyOo+wyxP42cNjtijp+1qveOJYj/NorHj/VSuLZBN/QTkFfARaKzedtSeBXURahQTCl1oC2TLUWWEo0Pvjw69EQW6DLZUlpciiiiZkg9khjG9seaie6Dgylmj5/K8cOFfz4xPz8/8TzBkJi/4QjuvDLROQ8T2zXIQTI4eOM/euqljBy/Ixvy8zdL5vr5DfnLp0wZI0uhqqm6qKCreh5AdXteVxGqPRiX0jVgzeNHqa6ComrWggRVd6UjeOWd40fTKb2gK51JtqHzirrmgYi8WWpqKLwRsrn9AOU82dzU22Px+AlLkXkm0ysBKgK2AokfpM1abCk8gxfxErU7EBBk0FbClP6j21KcRWwpQSEQere2lMFW8uAOLKUJKVc6bgEp/RCbVHHPwzt7/FiCqHVSgPiILDXiFgI0luLlT6AwxkvugIZnYSlPjh8wECvog0+B77CylKAIE0CCkSs4HoA9L4+fkqHOxxgvNsjtopZkLLaUL6AIli/5ePyObKpr2rZt96ZEEFb+trrNuGMJoiIz5vhB7wtent/dvQkvYdIN3ZuJKbCUYRuouFTw5uKD25q2VW6AUGLduQ0Qpi3lOUd+HilbalJRyco1a262pMOuKVrVWw0kmBU/yfGDE6Fg1Zo1a1Ydmnd7UlDByj3zfFlqUlD6ECZaOQS8BVWX3CyClufHlgrqKoEQNxc0tetmSXVQEBW/kZUg7rtkotNIIkTwo37pJIctpd5OW0r0PrxGmsJrICNwETPRzSy1XigME0n2BAwuyE+ffNeZ6OJvMAwlE0sFLES9FMBEPJGglIyIA1J+zojnqYhvjVAv9S9jqpcazePnyfETfY8qH/U5hovMcSmVPSG+PKqFgBNYiDlH5uwJshSMJEoxYsxX8ecTl8ImRMUUOMEygyQSnEJGU/xGikt51UvNCc4/WL+78lxOTjEQ0+08CCQEW3P8UKW4ubgppynnYDcYaGNxziaI+Ob4BScW1zdVVm7L2Z1/JDhxd05+sNRLjcGJfjt9VdrKoVU7d5YUTQrq2nkzHUTiy1K3u1amrRq6uXPNHkChxVYyz8xSmsdv3lDaypKSNTtXFaDN0so1XZjIh6WCuLmb2uYWFGBzY6yXIkvRigJGQE/kHuhqogjCltI8flpxB20jvirAovYXyIQk42qFLQW0YRq8BJYa3oIp8ftebClFQerWwlLiRFeY0mXknk70kdNmA0by+P3eUKZHYqnRPX5SL4VkdFJPCHLJZ+ERMGW1pVDcgVcBEFz9ghQhKnjq4J4wsic+twI5ftT4oNex+hBMJQaTD0shmSmGVcQipbLggeCxsJS3U4Gsxape47tS8/gV19dt3ri5e3d9XWLwJufBzTCvDMVP8/gdKa7fVtxd15RTDCqrdHZvBKZ866U2bGvq3rh5Q2XOwU1HBFLBU8bmRA86tPNmQXV1waq0VV0CqSCxpYyTJtkTQfv32Eq65qW3rNxZkj6VkNrv4/EL6lqz5lB1dVfJzpXvTkq/ubMIBpc3S00NvX0o7WZXdfqhVTtXFd0u2LkqfcE46qXk2icxBU4PpF5Hzc5cL4W4FHP86O5TcCP0AiEFljKsWBbKcyLqe+LxUzNh0nG6Jzy2lLKkxKR6YP5DpoQkLdSr4KRcfcJRD6BQfjSW0jLRly5FY8ylS7ceP3N8qzRukd4TOqt74lKUun/18TNnfrJaelaM3s4lgnEpqmI/yIuaNivqVs8fWvOiQBxAhJWlACRAZCY9EDNRfxjyIFU6EI2XLQUGiodxFpvX+oeeW1EMdPnx+AGzsfHIg9I3R9pCvdTITnQjLhUcDF5RJtByGEmo6v3Uz3XtVrOlptQ5uyETnH8O0BKWUoqffKWquFRw4rn6brT727S7vjKRkMKUPiwVPCc/Z3cipBKLc7Z1b97dlI9Jx+bxm9diG4KyB/UP13rXmpVQ2yaZWCpAPH5Q5GwtoXBSFKyylaS3pAlLGb0nFEsJQPDm9KGdKw8V3VzTBf3Pu/fE1KB5e2xD+ydNXdBVAggXlN2sDqLH7zMGh9zpAeNScKKLd4IMBCiJ58/UzkXiUvT4UQiFINTmqAF6efxgS5HBAmcECkvlbtHUyLu2pRS0dNh4xaX85fhRFJAyQO73M+s5fltPnrpx7fiZG2272m6cRM9LdOjz4/FbevydGzfePn5pF8a148TUUjQd8zux8aTeeyKqsLMwNq+/01VW5urN4zXPQnndsIh76ikaWbNi4lvjH4zN+8OB/sLWeHrUGZeKU1IolAfeQmJ7Gntj4w80cqKGCyEgJNpS+iUfIWmzIbOiDjQWxuT1lkGqrJ+bQ47fKIXykuMHBB3Z0F1ZTCMJxk33puXgFlhJxucxWKqSfr/gDXX15yrBUvBDmFkKtlRw4sGmDZDZmE8qI6TQfck3LrVh28F8tjrbWNzUVLxNIAWWGj0uNQkstaoIIdjQdGBqSBQ/uOA8abO0pdCFZShtqBqY2t+1yrZqyFYC6HhCvSoTfSrwCBhNCq3eA/1wzZouTOrTe2JSKPBYRHASwkNgKUnWGJstRfUMnnNAQYwkYEYy9czZE4uWSeSWBhexhBtJlLDaUo+Ql4A8vJ85fvRmEIbjdaJboWSkJH33ZUMVCWBcCgBSHZTglFDeCRpXo7KUVtW7+p1BwmR416W3r+1qO0OsAFKeLSj3xNKf3Bi8caPtRtupk2/fqL9GngKkxuDxg5cgptBd1hPVa2s8UFjY6GxA2p939gQajIXE3GpwtU77Q6MNcElrUEiwslTIrNYy14GowjRXf09hpq3xFsFi8vgxIYl65YG0staoi9hcz4FG50VsbtaKMdlSc+Yc2XSwvqmpvg5WTfDmnHOJU/x5/I7AlqrMPw+lcENdTk7VQfoejA5JWlzqSF198XIddmS1KT4sBZAlQuWDZggkd2+rd8KWkg5Jpu62Bpg9D8SJfrsIKt8huOdCQS9pVTBuLNkT4kQPmjSpACpfwX4gpmgVpKy2FCG1YNLtaoCkBaZY6P49a9Kq1gA4tKWM88ocv6lBt4tu7sTmIJVegokAqbGxVLhU9QpJic6mHHvQAZGJbvH4kcKo0+EHeAK0AC6v7AmEegOpD07XPH7EFp4Zp8fPyEQHtOhE5x1uvGwpcU9QgDIEocgIpHQe8JwQ0yPd43d8142frH57cBBgWvr24DWwFCEVoSt+mi219J3Bk6uPn3Je23r/0q2nKAxIjZ7jh2qLmdOiGmw9MbfKythTNj7T1gPVzlLVi0x0QApSDfG3Gm29z9zqybT1StMKky2VB2zO6nceWBHf6G6FTRXV6zwwE10lfG2pqExXa0yrq5Gby2tMa30Q0mOzpYI3ACybus/Vb9t0JHhDzm4Flj8aB02x1JQjm3bnVFIrpBOiClLnLSyFDklTgjdtywEwARtQWVUVFT9fWwpOjMqm3fmciCritg0bQVhjC/WCeHauqr4NtFS3rLStor/OmuPHeqlJ1Ydu7txTDeKBYrcGupuvLTUpqKhkzUoy0KT9h1bZyFiwpTwliKzqRYALrsOdJdQ092NzzlWgvjF7/MA7VNloHxEpotXhkdXjB0BR9QPWSFWUF1vKmuNH0OGdgapeKlAQ9R5YinDiH4eXLaXl+BkEJaLKiW5cC/4e6NkTbw9euv/+rbt2sUvz1sEb4J+lq7/iaeeibKmlq09R4JLzJLF0qV5B6j9HUfyUxy8E1/iFFRdsDTG4xmP6nYVwHphsqXD0nqAtledqjF9R6OyNXTFzRXyZGxQUa/b4fQ6OjVm9th68Vsbq+xWFtl4QoHdcCkJRja68Fa1p2Bw0RbzjQbgArZAKj05KkvqYh9VdQICypeC/g8cBjrimHLgN6mHoBJ//6CcM94TWe+J88JENm8AoQAJd5Zs2IlJlKH7KlkL7sk3nmujng0jxQTzytaUAt+CNiZs2JeLtRCcezUG7zLFkovPaTn+3ACyFB/u7WviIoV5dA1Y5fnyx61DXftAV0FXQ0gW+8sSlxJYKxWvVhw4RLBAuapFHPrYUXgstOiSb27+/mpsLHRtLqRw/EhTBQjMJkCAJMXtChXpVjp8EezXU8Y6qojdLKQcHnkdVb+cWTANB+DTG6Z4wQEQG2s6usnwGLOVRy9ghSRcTvM3frvgMrTGfMCEpPFzRTrjHvtI8fsfbbhzferK+7fjq+1efHLwGyMCW+pcI471K8VsNNG09fqpKsVQbjSkqfvpJpHS4NrdnE1qHpJADab158Q1lrbExsT1lrmegr/nGpULyyggp2wEALyY+M+3CTPj2zCyFEsQHe9Iyb8X2uwrhGb+QaSuEx/1Bsy2l6vKn9af1x+dlNraCxLC5CyrHz5w262jObE924CAea0/QjodU9QZ31ysraRMwJSwljocAnbE1liJQiCgO9Qgs9XNtXQ52SGJcKjgRxhTQgsDw5g3Aph9biqDiECm4KehxRFzKrPiFJWUnROMghzsS5DsgQPWeIEreIAz4IBSwwiNAyjhpYkvx9dDQ/aG6FP/37j2Bp/a/gViuDNwxKuzj8eOLoW9oQrI9VS+lHxace3u0IzuJPWqjExymp1nVq/GPbkkRYECHDinJ8QNOABFCjrocw7n43ysu9QjiUgAkYDS5HE3H4CQENkFV44QUMYJBA+m++SdOiEaH/3/r8fihj993WS+lcpJoSL3et10gxlCvAYvw6OyMqyn4xOEDV7VTE6Cz1Oprg7tODd7YtevSyUs5u5Qt5af3xPFdlKEtdemGU7OlzAlJERXHMhyYO7yi1DioKhN91oN5DbbG3oa0sobehjJbP9pRWG2pp1AvBQ95v7NXkBAVG99vywQTiXtCPgP7+DHHL74/rbGh1+WWiRogMstkS4VLjh9a9+XBzupvsHFzLtsBuj6Qie7x+IUntXfWNpeXZ4cvzhgcUMdIY6n8nIMIEU0JPrJpW32dczdsKYDFiEuRpdh74kjikeWJyxNxh9tEWSxgs7n3hBhRGloEc3RmWGwprenY+SPLN8oknC7xyHlkXNCJblyT9rjS8uHh5oTIgLDa9iS1p2JLIYeh2vRLuvLJnpiK1CLKQFAJA3em7Ak9Ex2vmmZiDpN3XIrRX7NMNTbnlYluT2oe7izPqAgISMps1i8wLILHeinAhJc+4UIPg2DHu9ssDSO488A7SgK3FpZi7wnJPwKoJBMdJVbCejPG654ANrave33dZf5errl++fU/0ViC4udhKc2JPn/d6xDhT5/zxOvrSGh/+vDzxrlJqu0cHk4dmBsQnZqpnZoAI8ePHr9Lx8/sGmwbvPE2/Q70+HmOi5Y9sfr4tVOnzmx9Z7Atp033+H3Fs2ZOxG/aO4czmx0BAdmdycCuDK1eKnYmnHTuNJvTZkvLLERuOgJTZo8fGjiTuPIa3GWNjc60xsYyW+MzwIF37wlEtaIKM91paVU2G5wPeWiDabWl6PFj7CvvQKMtLU0218OCrVnWTPRSd8bCMEdz+UBYhk2DlFbVK7FX5AUBU7udVQfhOaDjQf84Wib6lE11dZV1+qgs3ggomFmKttSUxM3mARE/thRMMZmIk+EPkWP08TN174FcAAAgAElEQVTbUuGlnamlGanl2WFhb3Ymqd0QSAV1DZVg9Gq/LTBuzIqfykQPmvQuhQypQ4CLt8cPyRNmkT3pkonu1W0W0WSPEKZrAabgYDRlosfVdjYPJGemJgUktR32NFRn9oToa2QXMZZAQMSClaVAOQCd0Bfv8EPKQo6fx5aCE33yej6LX61eCrSHt4xX8QP57Ohwumtyc3M7rjuduR19GqSMC17qpUBR8/vcIpab66yqye3YAd76k0fxW5zsak7IPpt5LCyufRhfJTIiPFW9W6H0Ld165syZ46sJKbgn/PWeWM2wFeNSxxmgouLnYSn7l9uHBxIy2g87ArJtyTqUpdssOGnmihV5z7T29BT2tKruszHethQgNSskvieT3j5XWWP/LcalaEvFyb6CpVSO34oV8RfURHkzV4DHLNkT9PgBiDHc3IUe8+aQie5R/BZn2K7awabN5VeTLSwFL0Fi9+5KGDcYGyq31RFc7D2hfx5V1RvcfdDpREaSGk0IPFHKkok+ZWPl7t27D+q/u+FBtLCUyvHbuBmui5xtSEniX1Md0jCEpbQThJUSz7Yl2O0Ef3RqJ76tOBSkCm7aqlxINlKjBJCyONEZl5o6KahlTZVzpy60pmW/b1XvgqJVtqo0Q2QV0zC8WWrqpNsFN52miYaqg6wsFZnUmZoS+WTCm6mOJNdZ4+IMYPYESwpVNIpIAcsQFJ6qXslEl0Cw9gqZCjKqUF59ZNyCpWbjzVKkqGVPYBLIjdPjx6re+es6nLmX12G4a9at2yGQ+u3LnpXyyFL/Cn1vXZ+75rcU66iHNMTMil90+XBSQEBK8vCxlHY+kqF7/O5ffebaqWuXJMq7+pIEpuhE1y8jI3ti6yWInREWOyM0ZYZUQPZgM96RkJrqyB5M1i0snaV6/hC1YsXMC/0NmQ0HLjACZWUp6TYbEgNPelR83q1nelpvwZ5CXAo90U3ZE4wDtxbGEy8HGhoa+luRITFrmq/HDwZUDzfX2g8pbo7DEurN7kxNAM9XNA8Pp/1G+5yqjx8cBps3K+Mm+MhmWEBTpoCl7PqxULbU+US45+o25Ws/YjKxuENJSR+/KRuLt1XVHwSoBFbnCCk/Hr+NSJzYVqxPhBCVyvHTNwdIuRJwripq24+BpdTTSvFj4sTNQwWHCvhbUARjiraU4eEVWyo0CB6/tBJNhlJm94SKSwXt7xpKW9OCOTgPEnFheJmd6FofP21zSkg2Z2Epe9Jwe0qAPSzhYuqxzlTTYo+S40f3HS7+QLoTgBXiytPOxVMvRZbiT6AIQ9ArLrU+EDjD69IhCQlJmIV/47WliKntlztyT+yYv/16BxwPUOgeeMCU46eqemk8AXvbfvvW/Af63H8SIXNcam6qK2ExTMjkzORMA1K6LbX05GDTqV31u6jzbW26AQIiS/lACp5zmFyDcE94PH7/7PH4JbSdTcHZB6aSbR7FD9kTdME1lIFTesqcjQ2IOvXA7WDO8aPHD/ZOSPyBwlj4+g5kNjY2NjyD7Fkkk3vVS83qd7eumAlHe1km/g7AKIv18fghSyOzMS8kpgfaIyy3xh6BlMXjF5YxTIXfju+YwWz1/aJlT5CeiCh9wLjZbLGl0McPrx7ZsBuZRMGM5fIGzyTqVVVa9gSDvDmVG6D8bcAPcs39sRTf172tbrPMIvaWqpcyIBWJC1Qw1TxsM7NUEFLD00vWSALFpP3zCChLJroel4LGtgr5RjB9IEQng2nlDmVL4bnqPWtKiDaI0CaDkFe9FJzw+5GnsWYPJ4LQfmzPWi9lj2t2NUP7sSe8OexMxaHVhspEx4UfGBiIJD4AQsBFDjJy/GTlDqIITwJxgB9/gC2zxy8AHZI4AV4FfWVy5Q6FqfEWd2hxqfk7TlzvuLwuF5CSQY+f0qux56pQnph6YIdgr88NrQ+Dip9+buwDw+WwcXkNOQ1I6Tl+x3ftOrP1+MldOSe3wpd+Q8ueMIrQ9LjUpcFrx7eeuZZzA86+S0ZcSj94ASm1nbVUKR2pbVUeSHF9KUScMtNurYDPoD8vPq/QhesdSDDbUnBPQIXLc2VGTUNAuKyhPzOtrIe9IyyZ6Mjxm9XrbJ2J+FXvraj4nrIyRJx8+vjBzxHVWZa3Arg7gM0dSMuMR8c/1Et92djVgBRHgkO+MqITBiq0I6lYKnFDvulnA9ECljJSiD0ev/w65RoUBIp6+FXtiBkevw27t8F3rg36Bn1y/ASLxec2EU1qeHv84krbS3ES7RUZmRb3RBCu/KKSki6BAC54DC+PH+JSQfDRTS1YNQRljqCg4y/oI0ZCksZScOBVD60q4AxqHrLU1+KMgyWhXr4TmyPwgE7ZHONSujKCHUxKbnfwX0dzZ7Pn25i2VCCZB1giqQBQgYEABkAGj5+6OpmJzqgUGYeI0yA1fYbFlmKHJCbeQihQbClOioeB43VPCDZAQPN39J3rqNchBZaaq39krtwhHj8R3XEi91xNvbbSm8njB4ff2QF+grCB1FqSCYfOUm87L4Gflh4/NXhpNSClWOp/G5Ay4lLiON96su3Gmfsv1b/tZUvBNMmQ76lIHNxjagO4Rb0U+EcLFGVGYdW1GASKgA3fDkkP3nI1Rs1sTet8JjYqqtAFjx8S+LxtKS0uBcdEzEz42+nLs2RPPAriQlwKkGq1NWAVjxVRvWnwpdPj57Gl7AkZpaXZFdGiJmnfOsJSU4Lzd287uI2/8odwropLaUKs6hVlEPRC5jFwgKiSyZYS9wRey69kHjoHK6v82FJ0np8/AsVRDcgoW0rfXECkIyEpRS7cMC2QpmwpXOFId0gvggkF1AhWfD1+QXge/vX0IrrROfCEr8ePVYzVRdT3lBSm9ral2HQMExVBClMwcBx6e/9tKKDGabbDdZ6kYBiXlORBmthSQjoEEz3joquBYJA9oa5DZUuxvANoIa74QBESFD9jC1KCKLibwUx0LIZDQIG37sKWAt0QLfNhK/V5WMqAlMZSEOKqbmCqvuu5YCm63U05fmHZ2Y4KhjcCwqNTDG+hluN3BlACQO4nps6I4se4lOe4aHGpU20/odTqk003zvhhqYrfJCTFcWp7WIqRpKZX9YKlkD2Baxwp4v2MvVptKS7ZxlAvMFeIlIiZMSsQHL61QpzoRrdZZKJPm4Y0jGnxmVAjkV1baOuHx8/P+lJgqVuzLrgaYIvNRKi3lcCzsFS0IyM5Obm51FHxsEH3wlKS6rCtbrf2U0x/Ovr4GZe4xlKJiXCTbzyyOX/Tpg3LiRaVia7EyFJSfQgJgOU8UCVxJ2EpQ7lQ9VLwnOO95xM3bNqUvxlymIk5fgYrRmZnNCdnO1KIfj3ah0sZzSDmpVNJ25/edQj2D5MoQtltNkK/BLUcv3npWNwttDodNlDRvNuhQIQPS8G/DplJ1V3vHupKv43Qr2rnYswkVb0oU5w3aSpA3PWutjmvDkkppcnJGYD/XCOEp/aEthS1PQELiQV8RSIy9Z6IlnopAikwkGqfGvgfqyD+2jAO6fEjKvFelT0hDnfONV5bioDaTp/E9nWX+2BQCRdB8TPUVW19KYjN3wHEbd/xet+Jt1RgysxS2Rm1zaUJjooILeDLD6yv3AHFDyofBqylG/U3kDcLW+r/8YYULK5T8AsSU21tu5yKpUy2VMqx5NrkgQRHnHHVcBsSe4Xi52zsPZCZ1hMzLf4PyEtaEWtlKdUaMy+tMS+qJ60/FpCKB9Eghd07Ez2m11nWe6ABsaZpUa2Zwj8mWwpxKXbiBEs5M3uRWtszLSa+sKwR+Iu19p4Ij7RHVyQcK20+2zygcbZuS23s3nZw08bEjYkcdBdI7wkNUyouNWV5N3MA4RskmVWyqNfb4wfW2QCt8TxQ113cnc8sPn/1UlM2VBYfmXI+v5IT7e5GFAyFV+a4VAACqMcyamszskEC2k6Ie2JBwap394fOexcVhivXlBQQUwtMoV6tQ9LtFqiGodUtNyG0cqiI7GJ1oiPHr4gu8dACZCWtZK0iycrHlgoKerfkXVQoHlqFidaUdIH2vFbuiIxLuFqaXFvLa8y4NpGTIh4/YIoERUWNNEV7yOOeUCwlabW0kwAsLUBltaXE4ydY1OqlOBGk78bjB97p2AHXQ1PNwevXLwtPeeX4fXf+v4KTtp+ouQzZmprc6zVCZ2ApD2/aKxwJpbVnk0sHEhjwlaF7/Jae2VXPzD640S8NVp0S2PhxT6y+1rbrjIidueF06jl+2ly4i05KyM4425xxNZsBXzW07IlphQ2NZWVpSJgFabgKWeVusaXgnqAtVQavQ6/b1TMztrUhrRcqnEBKfVFxrd5p01b0cKKdTsDkQFpafxRQ5509AS0vtjBTNtcbhdxZVw/qENkhyaP4yb7Bixed5Mi+qvnR9G6zwcGbmlAMpaliLHD39fghJRbmT3dOfV1x5UFk8gFT4kRX17x4/OagRhe0k4+02m05TZXwjkPG15bKR2Zu8IZz9Qcri+uampCuPmWOZE9o6OGO2iNh+Q0Q/JojTSB1uyVtaH9oASoM96DEcGUX6MUnLvWRoHkltkOT5rWgUHFPCUTTwUGehCQtE/3dNGTsFd1EQeOeVTvXHAI4RfGLUCcwQDx+k1B4tWf/pHfXqM3d7MISv/D4mTPRcTgjtWsMRrsxxJYiOdH5AARgwP4hFCzZE7JWLwAlUrwneJA94YlLwZbCKojgMUwAxY/dZiFD7+F4WQoc1QeE7LjuhoP8cq77MmnKh6Wo8Z1wd+zY3lffh6iwqIj3semY8dGgN0RGp1RQjzimdF7aUlpV79LjcJ2TpuhO5yOwlLctdf/S+7e+fUlqOkBnl3yd6NgUzn6KYyC5OTnB2C5oA9f4zKioqLwLhf09UTGFDa2yUKEpLhWAJdtYHR9V2NuQ2ch0h/hGW+bn4CL36j0BmZioqPgLPQcK41f09CJm7FUvpfee0DcXE3OgtxXqH7Dot7jDbo+M1uCvbClc98FHuotBMNqQTPQ/Pqlf4sqWCq5DLdTmg/XFGzdu3FDnlLiUpaoXaiGLO4IT66p2d28qZn0HIOVTLzVnI+uljnTX796wERWNTbs3A8GW7AntOEKXrnBkp6j/BFJTUcA0b16Js6Souhq56MgxF1vKAILqkERI3U6/mbYnfV41ctFb0NjIw1Kaxw8FhdW399hWcaIWlG1okNLPoOo2i3qpPZNQfTVUVD0P9R2onfKT44d8NFxjSQkJhhmusxSAADQpZAmsppOlHpZtGHEpchRwJ3RGcUsmOj1+gjMGisWWIpkBVHfBUvftIOecqD9BflpXk8s7H5bCc9vP1ex44C13H7192ztyaE756ZAUGZaS5DDCBr/S1+pdKkVSxJR6ZAn1GnEp7UWTGEK9+sWmn4LIsOgUh+5FC0BCkiSUz4zN6+m5EA9LKiYmr5U55d4sBScGXouJ/1xrT97MqJ7CPBb40uOnkSpZirHfafGtPa15MlF86y2glSyl74QUdyBYpW8Oc8Tk9cQz+GsO9er7arlXHj9ASqyf4OUwgZDxQP750uuGC0vZUnMEUttQIA8XOkoQN+NNiEtpFpCwFCG1GYg5uAHzbJYSeL8s5QZLVdbDZoOmeHAbycwfpLCj9kh9J8SW2r8nbSi0+ubOQx9BtyRUrqNji3nJNnGiK5Z6owiJ5lNvh+5H0SJ87V62VGhQQdqq/UFDQAyssaKVa1CEdQeWYs1vwRsQexcgRBGxlaW0Y0myMpEUPH6yZBtYigzE3mPCRKieMlgKthSzJ+DLA0RoHCFrifdcWNTCUlhfCtNgqN4TeECaGrcthRKNGmRMnKh/HVB5YPv16xqkDBeD5PjR4OrI3XHfuvo+ij3QZ4PTz2+3WXuA3YhbGixFkFgGWcpzYLSEJIuE/LP0r0y2lH59Yn5jC2jnIh6/kKgDKAd0Z/bATIophGbHEkRTT3SsL4UREhPf03+gB3iZtWJFT2E86uB9bCmUIKaVuRtBUDEzW10H+DaTx09YCtCMx+ZcrsxWvBpzoKwH6uEYq3qDN9NLgK5HxZWVxVTofOulkOMHlqrM11zkiZX155gda2YpePxAYk2bgzfV1xEsAE03wOLNUqjOAuY2bejOAc+xLwwwim1bbCn9qJruyVLsJLGqAKGiFqDkNsgFrj/zyh2qQxKqep1DBYhMFcBllz6UBt3Nx+O3ACXw7xbt2TlEnitYw8IrX1tq0u09VSXa5kKhSKLMY2wrd8CWWgviIZ5AP6QpsI+YVJ64lNZ7gmDBH60pisDpZ+mQxBw/vMLXZqzvs3XIKoiQXz9OJ/o/wHOHTKPL23fkkn62n6hXCUne3WaBn/kn3Ceg+HX8CWKXr3fsUB4/Dy5M58R4qHn8tp55mz/8xc1xqoB+Qr1LkYgkMkqM/gxmT+gEYUxqeaB5/GJ6XGX9hQ1laQjOrjiA4g5wkjkupTokxd5COAqx2T+goVFsg+sCaCrWtKK8VPVeKEvrLewts/XGh6zocfainxKzJ/SPqVgqZBoqHg8UNrhchbDH+p09MMqs9VJJ2RwD/EtgLI1Defw2NRXjqi5uqj+4DWkNDNDS42d44DSWqqzPQVoE6kDgWWjaBk85bamfa+qhePzAUii82nRQULKBLAUZP7bUQWfTwd05Oeg80c0SrPOaLaV2CbdQpjjs+NFNYFH8JrXsTFt58ybqm6YWDTWuYTm81/pSrOpFq5adK2+udJak3y5AcwkGnzyKnxaX6lpjW3NzVdqagv3pe1buZBEwWSrCUCHh8Vswab/anPNm0e2iITSrQGQKLPUZ08lX+6lujb1nhyQuM0BE4fIHGhRcAkFJBkvpcSm68OgXFynCx8JS8PgxxY9xqdnr967di6kIQsR9x2tLgXKQFNHRh6BUX1+Hu+MtkpCXLaXqpWBzQaT++rm+PuTXzoeYuZ1LdFxKnPYbrZ8bw+N3YxA+PP33nTvYUnT0UUYEd+1SxR2eHL+AiGhtAykpHjc941LILEJwFj6J2NZGd2/8g4CUuCdMLKXqpVBT2NDa2g/gxYfENtguIPPcGpdC8Lff2R+Fug4UK95a0WPrRXGHyeMXoGWiS8VjTBQIrT9+Wr/tDw+i17rFif6b1PaL+OFATqIM5fE70u0shjGV04QkIRSudxMIphw/rV4qeEMxklx3N+3eEFxcf7CbkSqvHL/gORvhmGg6mOOs3Hi+GOiiz48spV+EkuMH8G6qrKyD47B444aDyLXAPFZbanFChjGOaVafglRRy1DJqptrbhZMOrQGDZAAKXr89O8WrV5qXtceSu1c1XV7T9pKZlGYeqITUvDGpx+CCByHLfO6gCgGcwGpr1mqegEpz+ZayrC5/bJyx18Y2LHHXc0o1fcUeTr6EJZSFz8QAJjIrTxhtaVUrBegUtXwgj9AyuNfA0sFahMAe1ylHj+gtHGXIOpJEU017np3TscJUJUXpBCX0uqltl8+V1NTU4/s2T6kJYktZfTxCyutbdZGbYZhS2kstfrtXc4bJ/UhTj3GpfSzr2dP/OTa4OA7upR43S1VvRXJ3EAtfpprDfeEYqmQWMSloKnNRI1Hb/wBmypBNPeeYELSzLwyOM5nxsA53hsfk2m7NRO9+rxsqRCGemFIxfcCU2ApZAJacvzQEx2UxMjyNFQ7oqKqH2UiPUyutdhSFdnZCfzFT0KF9jnJUlOCu6uKjxzZXQ+qgusPapuwlHeOH188glhS/pEj+d2oBVFc9lUPS2GtXhQpdgN424oTj9TR40cZQEr/OlPFHShUhDMe4a3NSEzaBD8jhGBLaWkFuC7DSi+m6qNZ21NACkhATKo6vYh5e0UtBdVMaPDK8fvmpxGhhVA1Qldd1ShT7IKMnxw/ZkNgokNFb6QfOpT+BusVGeo1dlTiUhCqnpfehc29wc1hYsalTCxV0Zxq7GmpcYEJSwUK+0D5A5yUj47IYqhXbUP6+IHHAhXrMIVCERUhZaCTHj+8jzPgFn+84+24PX4KQjt27EDG7A4tLGV1TyzUe6JD44PYn9bt2E5AYZg8ftGltcbI0DxHHo/f6q2n4B7XBq0ki8dPh9TS1W+3XdtqkoLi9zeG4mf/cnPtWX0bWt4crglhqWmxvWmIJGEAUw0NVPx8balZMShBpHvwwc8BeBC8BaPIylLToDWigB722AogpRGMBeoz21JkKWRPxDakFWJzM2OQA4XN9YDuHrSwFK19O3CFiIL+vS4sFQzWQZ5RHfU0+AvgjlMeP/3rBSwla/WSljbqjnaiRdlSAk49x48zbEzcgGqqDXRRQMbbliKe5L0UlYF/JRNd3ymkpCQZo0LzTwhL4aJmdeF+gAl3cBr48fipwsL9+9+gIJwPIuRR/JTHjxMRVW/AGJv6xn62kxX3hM4zqvcERFCpqFKRsMAo30L3hC4UYI8w76ix++LxW8Y0cx0yxAT/MXn8JMdPFDq8ZDAaoGPO8cPKHVgFUemP1BDFMAukHngX2RNCVAoj+i1WQTTcE2jnwkx0fZik2cfPYJroFP5UJFWkpEgShRwMw+OHxIlTEuwlnjj82FJ89uSutw3fIP63sBQ8fbKJioq4aGPvdFuqtTGt4RaqNWbm9dqcVYUgGi9bCs4JZgIWojEShBqcmWWo6pW0WS10rDoksbiwoYf+vvgDLmdVL6W9PX6gqdYyd8MtEFgMkFnl7OHaBRaW4qdPSO1Edd9Zg1CVLQX/XXF3Jawa5KEDXsQO+vjpkNLrpaCfAUVwCeJPUCGKn4eljqA1pnXQ0eHLUvJmsyCkxONnnDf6elA9mpExUKHvhECKvcsJBuQ9CCjwiLaUceC1tXr110RUbjyQMnL8BGuaBAvnQ8lSETpcFEt5JtAfWeNS4vZCDWpGRrYekpYJJHsC3rxAoIDhXCKFfZqt9VKLJC4l8eBAgk/oh5noVo8fNb9AvJWAkl88GLfiB6SYQKLjxmxLMSHp/+gy8EnoMrhfZ45L4dQkZZytPZvB8nA1TB4/1EqZIQWW+n+M4IKnjx/CVuK8IOg4LMUd+OZHpldzbW3zVZ0GsRnFUtTmxPE2LQb9wNzw+Jkz0RGXeooUNhNIyERKbQj6haHI8AIYi0502Vmpl0Ir5pkXesXPFwJHeyMTkiz1UlpcCtUdmWWS2TeTrkZAkN1mTWmzmNLR3pmRnZ3cdjhJHQyNpTYdRGy2ib2K0C1sG3IkfGwpZqLjWcEIb9TwhHrBUvT4CeR4xwdK3Jel5DV9BiXl6/FDqvNwe2bnm5rRp+ql9AsbGpiCjcpE14GgZU+AcQAR/Go3ftbqJSJFgHcAFOW9syfUyh2eTVLUK3sCB9HuSO3MbEcNsun0M3uCRe8c4qHgDX7AR1ZbCkTGX2KJj0BjUoJosaXYIUmISihKQQtoHad7wowQD7wAKQMXeo6fQImQMt5CJ7qHglHBnNrZXpvaVu7RyvQ+fgog5ltzqNcTlzJL8LGwlPGFCvfUseHhw7XlbbVGggbjUkRGzMwo9Mak7geDivEp6ZCk6+ss7pBqwgsNDSg0nBWyAr7yTESvQqj4KSkVl0KAKT4PcSaaXjHxt+D6sFb1qsgyXPXYHKJYsN+m5WHDUAYtxR24AI5JUVdYrStb+wCKpZi3111ch4SjTQfrUL+E63yzj8dPcKJgouFBsZQ62uLx05/HvQIgb31sKQGeISr4Y++JFE8Ugge17XBCkiPDJbUz2HOyFC99XPwCAe2xd1XvS582kIAlO5QQ4OPNUkRbqACJQOGvsqV0cDJ7gqabbI8vqpnQGt07LhXd3JaclJRQ6yo1XXUqx49IIK0QSqAhetW9PX60kQKpIAYScwIr2lLGdU6PH16C11yIir52zAZCG3dcSicdC1jMLCU5fh4YCabUv9a4VHhE8mAy1L5jxqkxcvy8kSK2lE/arK+UxZbid31S+3A28idqXcd0nDEuBQUMUGLkFoMmDnwKCMda41KIRQnwoiCGLs3ABKHo5fHjE2yyBB4TUKmZPHEp1XsCAMLyIOwTDRWQWwOgGJeyJiShVh5nPqJ5UIOUyp6AEgYYJW5Gdt/GDZLi58NSDEIpoBhY4APGpeRTiy3lrxO0H1uKbySstHveWW0pHNTIWncCFICU9k6NTwEpgkWGBgJBjFdc6iWsxWEohQorgI4pe0J5/ExwAkLlLb62FF4JVRvkjPgNkt4Tn+FJ10dk0nA5vgvsCd5VvcuEVFSqEcAklhVXQdSzJ7R6KVIZsBTIW/zixmJLMS7FF2A/EZFCaiI6Xie6gRUdWnLvw1JmW8rDU2ApnQfwuaMPu6g6pJQP6z4uo/eEL1rIUjosRmEp/ZDiPsFVy0zkAVuy/qRmSxELVPZgMBEouNS9c/wU4IgDvMaVAQAcwA+K38MWlhKYsA9tjACV85ptKdV7Qm0CtxgCTK627a34lXceczhKO99M0o6RsBQNJA7d9cBLnit36N+7er0UnlacQhRwUPHz2FKSnS5QMUv5ZSmR4gQyDW6sthScfsmuq1DCk3De1FFVLMVLXK5toou4IG1YV5QXv6AmRxTwoQ9LEUV4s/Z6KB/42FIyEZ4XzZDSlLLaUtD7KtqH0cbHPjDoVS8lDZwno09SINozL2KPZjDMZKPpGNQsVS81fXIgkDR5OrL36EkH9rxsKSh+QBTS/BbNXrRo+mSIQxG8q7iUB006wNDAOdq4aLV2Lh6FT5ene0KXwn1ks7s0OiAyuxMVzWqYek94gYoJSQblmmwpbzF4/ExbCMf3FCy1lOTBUuNZyUSHBkZ4cF0oDvrkvDokIW1WBpbfpZDgQG4tthTfi/xaTMTlOzgwMYs79M1pCUmxomJiwUVtkPa8bamw7PbM9vbhi3oQRcWleG1T2dOGUAiqevWvFy0TXa5/AwPEApjNzFJwovNZDLOUP1vKW8Y7Ex1EmpA5nJF9LLUtQyvoEZaiV0IhQdQ2PgzCWr069LXsCYUiuQUK+A6f7AlMpObRzC6ixadeSnA5lNYAACAASURBVG2KsOOvjHk+PdHDMlypxwZKM4d1VRpnRWWiwx+RtXbLjEVZa0+fPooHzKbwdJvVsicCt+zdO3v2lrX7Tp9euzcQmPL2+D0CGgOcstYePY2xb+3eKyAsKIvvzZbSvOPbrdkTyEQnjIylcnRMgaUMpsHHc5R31iajTl5vCeTpkOSFFPx7dywVndHZnpxc60rVs7uZkMRus2qQnHCZww7CSjZWj9+LiNly0VG1xg0UNYoQGBZbSoAEpY6IEugBXFaWoi1FogNs8RofcYOc3MfjF5mUMAAnuqVeSlDgRUBgKavHj9EjLyQAhMjxM7HUHB1SSlR7gz9bCi+ZYadYSnfuyVdFWHZqe/ubqWzoJYMspS5r8oZ2nZNA/PSewNOsHgRoeENZH1sq1DSDgAuLsvl4/MBLkIOkJoGH3iwFBaiUAfTUAePrHrur5fjtLb++dsbR3Pqa6y53X5Zobd/VWmMKS0GZ27LP3bc+q8/l7rzuvr6WXoplZlsKih/iUtMXHc11u693Xu90DdaczmK3pfEqfgodOjvhPwGVjy3lUfw0DyHf4cVS6LWRXHv2bHO28YlNHj8vUNHjp3/hjbJkmxm0AXHHsIXaZF2XAjV+jrYUjRm5zOVGLnlAypQ9AY8fnmVOBV/kor38BRatOX54EUoheUq9rtRIE0uJxw/6JaCpqAyljtQ38T5vlkILR1Qhlhp1KAZL4Qq3XOPe9VKqqtcMFXlsZqkveliKBKbPdyeWsmzxvCh+GnrkDvn9CQkJSUbRqbCUUI5c30CKgguucV+WEhvIELHUS+l9/Ig1zoQ7devj8SOC5VUCV7CFIJYPSyHWhyx0T6SPO6+yJ2ZsKXf3Xdl73X1476tHy50XpRWL1ZYKnH7UPbx2y2Fb7tq9aw+7a8hT5uwJFZeaPflojfv00b0Ya093pPVdgeJ3lx4/zT6SnAjcAFLGAVYePwN0qER84IH/Q+zdx6peDy7w+VgzlVBhKHQBAZ64lBek7hCX8pYyh3rV2Q/DQXXoiiWeIkuBpKifISkIl7lGUXSim7InXnxR2VIooKeXAggUDOKNFpbS8CbIk0USCT8mJOm4puLHzZHJgCNwHhCFP0aWvWypuaXDwxfh8r0aabGlND4xIUbl+Glb0GwpwZwHK5C22lKs6tWHZnThLXewpbxoCh6/j1lYisGPw2eb9WazmsePV3+oXOkCBlzxvvVSHpSAqwALDm+WUlDSsETEAKHe2RPKluK78TKICiJBKCK21EvhZCOEcvgsojT62eAlAZaCEz3Lnfv4+qPOvsdnz1iWdd29F+TibUtN77OtXbalpmbvshnLpp92nmbgycuWgsdvEaTEfThj2bItHa61aDk7XkgpllLsRNgIST3gbUsRQsqWUq9r/0Lx46fSR1j22fL28sNXjVCc3nvCGyni8fOpl/KVEo+fPrvcV5S2YxPJ0tdDnsD6UnBmCxSUB4456Pwf/gIzS4ktRdgRDqiKioEUqMgrLkXK4euCFWp0NNFMtpTy+AGNnINCBBbBCie+t8cvYXg4oSIpG9af+gQeliJATDxFltLdE5otZXrVAI61j58JUoIYmfCOLGVMwk0zE938TRhekdrW3nx4eHhAe1ZX/EgZoRoWAAzpkBShnw6pl8KrxADhREGIw+P3iw+9oQlJjh8EZBLeQJyY8mtLcR5iipuk1H5flsrOHE6tfbMzVQ+gYTNgqZdx2WfV5GYt22c7TT/6llzABuyip82qnuiz15+2HZ2xpSz3ChA4/WjVaSDK7PFjHz/4ORbhzTNmIMMPf6C0tVQP79KW0t148+cTNBaW4mI4xBCG0RsdYsJSnuwJfDxcRM2lze2uY8YJGyku5ZPj5xdS1kz06OS2i8kZtW0XjYMqthT5Qq5rXuvwFOASR8TIzFLSx08ufkpAaYM4/5XWmIbHD338aGvRTCLzUD+EtD+PH7U+qn54A0S4Sqm1UB5Ho3SwdDEqEJNtujGtPH761c2LWz0WltIPGVgKi2voQqLSHUFB/XLWS/1RS0tRVb26jNyjxQRERmMpSp2Hx+9/fMwcl4rMcCenxKVko1GeOhICKbm+eYmTf/bPS6++HURbSt9PVS+l0AIsECdM94PUHViKcIEMJpp3WyBlgFOyJwBNmSNUJuLmpLjDzEcBKamdA9HRcE4lG3sBlnr6kcAZM64cth3O2pubu3fLoqzDtg60YpntzVIz1rpz11457T6dtejK2hr30WUoLgRLWXP8Ziw6jYm2bIHHb9GVozXXQWnvyZYCcOa/fuIyauUttpRqOkaWEgOK0Lpv3YkTl3fMt7JUWPPg1ehIe8Jwu27n3tnjJ+4J7btsFFvKkMIDxzAaY6FZoDtDP9bKlhI6YSwJZg10OlzsuNrNLMVMdKADv5q2Jg+4TLaXx49UB6ICQkUzhFEVY83xk/WlADUQHbRIJYWHXpno2NerLkT5w1NU60n8r8WldCQQNgo6YktpF4nu8dOkRGhDZWVlNwp4rR4/4+18EIx8c1RfjcBSnCmxm1LBVPz0w8eDi2g0Gs7ao98c1r6olC0lmAKeQD630/cM7Wkp8opLsdss+UmgQldf19DQnkPpHkgZthTRQu7B8vMtQ0MtXT4spWwpSFEwaEGRbM6bpaQ7JnbU4RWXehlxqelZHe7OjlynOzf3OqwlpB9NRwmiVtXLuBRoa9G+Glduptt2Pfe6232aK7KBpV7hEeAQWwrtkPZ2uK/nXuw73FeeW1PzMkhqvE50z/pSICAgZv5vOy73Xd7uxVI/EsXPYCmIvg6x3+74k2n1YC0uZR9zXMq3NaYvTdGWMn0jMS61EB/fEpcS4waEQ31NueoQcyIyLCz1FAXg8IuB5SOvxgB94BZvWwpq36xZoDnkqKNgFysTYJFs2FKaOYTiDtkcsSSwU7YUbLNZsKWsod6Kw67mgWO1bdJ7kCfNi6UUnggI/9kTBmbyd58rris+Qo+fOhbe2RMI33ZvQw1H/h1ZSqE3sXI3OqQnAlL45uMeqRGR4cpIiYzGV6FmoyrFT8KyvMgBBawoP7SqZR5y/IyzwQ5JyEQHBkQGN0EFN0uGet/9iEXxw/MEpS5TXdKwp3eoGraUV70Ut4MfbjQI3TZ7h3pb9nvbUmCp7OjIlIzBZJO5DluKCeQztrxcXlNWk+Z25dJPRyhA8VOfUjLR+dTe09dratxu1/WLa9GDDPYWWEo/ClD8mD0Bs+zlcki50GLlNNQ+SN2txw8NxUBS981HsyTko5tZCivKa4ofQae5KbYjG/2t7XBPGHuE+EaGqzlpYUrpoE8fPwtWmGkuTnTj7PiNSy1lU3SvHL8ABPsGUhaiN6bhp5e1eoV9sP6uhJQEO7PgYbCw1FOUwarVeGHWrPhbF+KBHeBmJkO98hkkx4+qnrAT0EdGYxTLX44f3kxbDAkbmA4GWuxM37V6ox3N9E0nJ2mHSLEUgGIaDFHR8WD0RCdLaR4/rFeI1Fpkxybmb0jMzz9iZinVx0/XHLFkQWL+xs2bEv2zFDcidBe8IT9xQ/7GI1D8jGOPnQtPSm0729ycOXxVu1IVpMgZQShqB7csqO7qSi8omOfdIUnBQGAViryJ6oKiooIiT6G8zlKi1GEeTtXVVdRVAEhZ66WwGW4Ik3AsmAepgi5A6jOmywve3ezhzNrk2s52Q+1XcSlkooNxZmTtXXv0ZQST+Bh/huKnbCk+tf7K3rUvHz26N+sKrSWgylQvRZaCLQX3xqIte9fuO/qySMEku2tbiuoch4KMJRPdqJeav+MttkynyPa3UE9Pj5/p2w6NtTvbU1NVQ2B1LPysKL/65KWTb6/2V9xhAd7xS5dOIoPWaxXE8Ozy4dTU9uFkw+enZU8w2UGsH5BMyIX+A4UXrGv1oo8fIRJV2HABi25IA+ce8BBgYfb4sSc6uqnT20ArKSSv/8CB1ih6/PRLUEK9nIkmFzeJ21Zs7pa3xy8lu7n5qsORVDFXJzhhKQMFwhvnsfgGEmCZia5vwMiewMXfzQE8MdVio/L4yeFWVb2KeRQ+kbHOUhBCKkK/ClUfP3gjsOSbakq2PD8f7WGUE9103tAdLQPJyMnZeukoIUVAzUtPT789r+jdFrToewOVF15Vvew2Sw7imDQ1/d2i2wtYC/KGd7dZGkaTgvanF7Qcejd9XijLRbw9fmhvEXQ7HZ385lGqIB2bq37Dm6XscRXZ6DrWbMrLxmdFjh+BMHvv4Y7c69ev5+aW77tCpc4rx4/PbDnalzt8HStqdBxmcT08ENa41CPrkY40O2tfOdbc4Di89wrfdnc5fsI+uGG/SyLGwlL6+lLbL3Of+1hTNf/ydfaesLJUkiPhakZyxjEjDGt0mzWDZeupUyffPMnsCf0q8mdLLX27/eQ772y935o9wa5jpdiE3sqHVw9y/KjyTYvRHBSxMbN6Ovt7UXoBxU+7vMLRIQkyMbGFbtcFFBe6evsb0tyFgjJASqS0lTugF4KB8AeXYMiFxob+htYVzxjZE+Lxg8an+TAAQGy4sBGby7Ou1ftw8nBm+XBtEuq6tX3QVkG0UNTmyrrK4g3nub6UdokrWwoO8g2VB5ukLW3TwWJWQ5laY+o5fnwSAzymF3oQUjpW1ModnGgbBvqWge7qduejyZk1LjXXkZx6ttSBQmnDZSEsFQq7Z9XNkoJDN9c0rrkpi/bCuPEoftrKHYSdjJbGofR0oGW/t8dvQdeqPfNC5xWgrhcTtVRzIThCSj8uql4qCAJoxoSGgI2N6PaH8mAvj1/4k9m1qbUDFRWmim5MwewJ2FKL9ubWlJ/uK7P1Hc51l8NnZ86eoC0F3RCuidzDp7Ew2OmOms6jjDiZWUo8fijh3Vtuq+k4fPrw6Yu57pqjeNvdxKXm/wmrcfBv3bq3ZOUOhJ5MrTERl/qRePwu1+SeuIwaeS7acaL+TwCfOSEp+mpqJrzb0WGR4fpZ9Zs9sfT48dXHjwtLGXJ+2rlsPb4V5SBU/Dx6c1JyeWbqsQojHYEnRWcpQAH2DPAQgsV6L+ShSdIKKH66OweZ6CAfLKvrao3tcTc+g8ZihWiTCSSSpZSUlonOYHAMFD5aSVEX4tEkydIhSa0oD5oKQbEVPBkQxyr1ea3xqJfSEYzdyu4863A0D5bqMSnuKm0pE6JAWIl1dd11xRuZPaF/v2gsheV3D9YVo+llcZ308YPqRsVPSdHjN2cOFxzVfniXyNIq3+wJNIM5WIlegLs3LZ+SKB0qVFWvcewT2odTsb5chemsCaSCqofQy3LnmpWNbL8nXSUYl4rgJ+FQttTtQyWrSnpX9ZasWlm1pgTNNJH04MVSU9l0bEHXTXTo21OCrhLsYUtIGTMpj1/XzZ0l6S1rdkJqFUruQ2XtHVMfv7DS4fKz5cMZehsntRfCUlD7tvS598FJt7c899Ws07a+LZrip77PNFtqrbs8a9GWK/tq9mWtvV4DOymQoV7j8pKq3hmz8W64DfFzJesoPPOI9I6fpe5jt0vQjzak6aUFUtqK8vM7al7HIh+vd9Rcnj//hPMtEJqJpcKPIVWothMrapmGyeO3mstKbT0OPAllkaWMD+NjS3ExKjYgW0r3hD5fOJcZSH6zM8N4n7wimejsvkcvXywahtFMQmd0+AsMllJ9/GStXtXAGWv1RjW6L0DRA6SUEqlsqZBYooOWkrjzZtGDSCe6vhMqx48WFjr5wYa61dqaF7UC7r9Z1qreDDdy5eFMMa4bzePHAC0u/fNHjsCbLbno6BmLuJQGlgDNlgouztmNPPUjMKYS8+vQpE8tf62+2clS8JgnVjah+UROkwz0QQLqfFkqeMM2rESwcUMx2mIe2by7CfVZgBSc6PoHwrpgpQsrUIGiP4F7QApNYgvWrCzoKqna2VK9v3qPrExNj58OfUJqHhQ+rC9lW7lqFZpUVKFnC5aEN8WlNFsKLcTmBbGPH+rlW3ZKh6RJ3iw16XaLrSS9ehUaAkJqyFZS7b2iPMzohOiE8kzdm6ztr+T4zVi215W7aMb69YH7bPuWbcl1CU0ZHj/m+C1bNP2wcy2yYAOzXMPrl+1z7kMTGDNLadkTWzoQ1Fo/Yz0Mr8lwqFOpHK97Amoe15e6fkIfr5ORYEtFG8eYTnQkJG0/x1boWPrwHBoqnaj/Byh+/+DJnog+25kQGVerr/yivVmPS60+886pS8ePn9o1vOuUan6JHD/P943GUvBIyM/qkzewsBudGJZ6qYTOsyl2x/CbSlHTtqCz1IHeeC5201jWWdaIZi2kES+PH/kk09WzorWsIX7FiphW9KGAxmixpVbgXf1oJRYFrAFLwlS+60vBHxgTe6E3s6Ewr7+zrKyzN28Fg1MWjx+WE40McLTVLjb0PoOlsJ41CqaKi8XCoeYmHj/9UlUsxSZieq46FszevRmQMtwTAbSloOvl1znZjZbdyyqLVbNNX1sKrTE3YxOJ3U1NxdLtD00t6ETXMRV2ttNhtyOGZpxurV4qFN1mq0O7Vq4EEvazj59ass1QZFnVC4sr/RAobE9BVxFgUIQOFN7ZE2gayz5++4dsLZgnlH384P7zZqlfTpqETpz79T5+aFNW7V0vlTR8+El79Nk2Ty6a2mPpkDTjyvUyRmi3HK7at+xKrhuhXpMttRCQgudOMiYmB64dzN0yY5/zMBrLsie68QUt3WZnLCp3wwU/eRkoLDCr3IZJx502S4cEVu1QHY+IGD5hUfz0nujz+2rUgh1/6qg/0VePxd7uW+fJRJ+Lhdrs9gyb+dvOsKVQ/75rV86uG7veOXkKK2GDp/zZUkv/7tKlS+/wb1fVqUvSd9aSkISF2rC2WHmm4ZqQYyq21DQuGjAz9oAN/czRAKmf7jxvjx+LoLC8DXqFpV0s7DlQZjuA1CKBlMyjbKmQkN4qTAKfBLtXUDEEXZlYSlX1hsy6gGZ/ZWWZrsYD/Sj9ZTsKa44f1z6MRAAlLMDAlMqeCJ6yoRjLduQ4cw42NVXSwqGVZLGl0OtoTnF93YYjR86fX37kCLrNopUsgGeKS9Hjd2RjYnEOOkFvnAM2A5/Bqefr8ZuDdpib+BpWmWqq3AaWstpSdqx9CMXimM0bUpOCDu0Er1S3YCHQSdXSWA99/DzLDKhMdHrQi2D/lBxCA+ahN7jWjQ9LzSsYXHmoQPHcvHelj5+/HD+Q4qH0PWuG0vfPK1qVVgI3hiUuFcG1D+1YYM7k7eN5Y44fbKktp525R5GWZ7u+98ppCfVyrV7tSoHiB0jNWFsziBT0tbm20zPWDrvXLoPD3MvjxyKqte6a02sxFdyH5Tbk+N0VSwFF2/ukiawgSoOUgV6V44eX1tVcVw2UdvTVO51o58d2Lvq3HVZBBCWXOg3vtlyn+oryu26c2XrNOUhP30n3O1T9/GSiL73UZtt5g6OtatcNYTOLLZWdhqg5qrE87X2wDcVS7CqBBZ+wHhQyYfMayy7A/W1hKdhS4snryXTZ0pxVWNO38UAUcCCKn7rqaUuBbXpt/Q1uV0NhfFTMgyA2YhOQ0j+mnuPXazsQfyGzqiF+WsytRncrpKzZExm2sxmlzbZMtEo4hktWhsSloK/V18H22b2tuLsuB8uB4hr39fgFozHfbrAPRiUe6T3RPZnogiDMhRZ/c6BBwo6iL5G2lL6nqkNS8JFidAvcjFePdB/EEqM6pHR3SEBYahuW7TjmzIhOidP7DilbKn1VGa5v+ueKSsrEBGK9lM6mYkv9En5BUE7XnpUrh9B7uZpNX4K8bKmgqV0r09asvJm25tBU9vHjqmz+siegXK4sKSnbuaqk5GbaTTZbsmaiJ7lSkeLBvY3zJPfjuEqOHzKSDrudbrcTUd61ro690Ns8CUkBUPwYhkKiutMGqb4tV8pr9i0CfGBLefWegGv9aLkbPcDQMMx2/fTe9TDKxp/jp1a4ubxD/H3Ak/jITYofVkGU9aWQWdFRQ9cEEHjieg3dE6beE1ihN6GiItlWmlShrVeEj6vn+L09eGnp0q27dtGOOt50SmMpA7S6LbX15I3Bd85s/QnQ9/ZWWYXUbEvZs93NFUmOcmbOaSsN8UpVtpRaX8qG1WnAPGw6ZmEp8fjhqp8VMjO+p7AfA25v/E8Ssnj8UMlx0dYa9YeGNFdnQ+GFvHg2hzaxlFbVC1JE97KY/qpClPTORJsydEgCS73G/ZERPtCOcMLF8nL08zqrfa9q2RObYCVhDZsNuw9uSCxGEz4AwcuWYlUvGvmhR0UTrCV4F+Dxoy/DxFJQ/GCVQZ9DWzJYZ+enyPJSYkvpu6B5/DZuLmb3TApjRQL20bRmokeftaU217Y7y9HJTe9sJZCat79r1aouJiPtP7RmZQsb6/np44dAEmBU3VWycqdzCI+QQO7JnlBVvberD7HX38qVLVi0YM0Q9T6f7Amkzc6Dg3Fn2k4b1h3nyh2gO7DUX+ifJiAiqbMT/eaGubfNegANrwpL0YmOOqi+06f3Lpp95WgW/jVX9QpLARuT9+6DJ+/olvXrJXrl1ROdVb1SIn8FRVeH+07v27cX3AbgLRt/jh8x9FbHide51A10Pvx7n497gq+Ib6Lv9T+h5RjCwdvhcYd7Qv/Wmps6iIto2JaJKynZ6Ayh2VLH266tvn/122zNt/RMGyFFlvKxpbi6wK4bJ7euvlZ/HN4JIu+vvvIr42s3u63zYmq7a5Dt3LJ1fcpgKVth3oVGOvFmxjek9awAv5htKS4sikR1eP2QWhETxWJ41LfDrQBbylrVyz5+M6Na+xvRoNnV+AfkzVo9fioTHavlRN3KdPZiJhhorQ8immXx+C1EJy8Hf3GjN4xSLNXNpmPoT3nOuSl4Q/1uNlYWj5/2MRHq/aj0CkMXv254/GBxUTkEJJg2q4TEPaEcHZiKDg/5xY2vLcW4FKK74hXBI5bmw5ZKMVgq8hgiPYhK4RaQUvMTUkRKelc1M4X2o5kfokSkjZd+YRiHtKUWCEtB5I3qgpKb7BCLJ6xOdLzIJ9HrryA9FOFiYTIfW0rq8rGdQy17Wg5hFSpZAg6k+Bnj5AdUICSFfTzLvb0aYUBNy0QHu+xdW3v68OHT+45mISwFSHl6otM9Ad6aPvsKigvpHz+698p6NiHztaUIRpQgHgaoIEVIoeffOCEFpBBSWA/HfZ3rRgkL0ZYyijvIUupZYOpER00N0YcnwGdQ/LTPFh72m2TpBcrbq3Has5rHb+nqU01Ys435EFtP7mrjKjf3b/UXl1q6dPXxd3bdePtUvcgQUp4+fgEVRrfRjIwE41iruBR6x7rKsG5uf+ysVnTyi1+B2JI5ewJxKWh50PNUYwrgadqFP/S0goQsLAWyabBhrV44BOOfKWzIzATdWbInVB8/NEgqc3HRHHdvYSGalDEX3quqlwEp5KMFoDGytquaLZWfsw1NXJZvymnacL67/hwq3sFSf9Q9fnaBFMAhgxaSNkzFHcrjh1JC+A1lnJeBN/l6/LSZFOyOMGbM3hMmj589Gr170TFEhvb9iEsZtBE6KXQBQrAIwoZOQoM9QMPs8dO6zUqkNxSwQxdN+CbwyMRSevYEJwHs0J5P9QMM8mEpbicIW+EPZoE0prxtZqkALNlhDI/rTFiKCUlX9l23IYibe91l6zwtyeae7AmdpdZ2oLiQMm53B8qlwFtWW+oRzBO4BXWMboSMr3e6aw6jChhF9eOEFPHEv+07Lp/oyLne8VtR7QApQy1DHz+tqlfEXj8Bn3sH8gDxPlMfP3tkRHR09JNhYU9GP/mkfhXpvSeWHr+GxdhIO2fadp0UNzpYyvimNPWeWLoai/XuGgRLyRCPn/6NFD6Xk4dFh0U/qX/xw5ZSHZKmYSGcfqxz0xuFrpUNrTOJHwtLPYVUB/GNx8bD9UCVr7+st6E/ih4/9Z2n+viF9LqxVm9UDHyCsfDMw4Mxy9uWonmFNIzGxgPPNNjctjQkZCBA5ZPjp++2ca/iUrClmuoq65rqK5d3N+V0U8kzs5QWl0JahWkg5jTlvKH4KY/fnOVIgvUMePz8stRydI7xzJRIupJQr/GVpM4V0G88o5qOSe6EHsdFEBcLPjEupUf6lC1F+qn2CKVjvY3Qqd45fvPMEulcZcDXlkKKukWKyy5S8dOVIDacM/bU4/LBsaXHb8aMLadtSMmTysF9HWmnF1EV9LgnxJaavjc37fA+ikD/c+fuDZSmY2ZbSqp66Z5QJYj7UNaIANe4FT/ARCAFtW7+jnW/vV7VwQUOzYqfsBRRp8ttX3eiw+neIR4/naWM60Y+u/6fbkthqbbjb984idDt1re1Pn3m7AndliJ5XXvn7eMnT2medmEpfTL93h7pwSLdE0gNp1s7ZkVeQ2P/H/JibmEpHF71JpZSthQ93dNCbmX2InQ1c2bshcK8VjTKtMSloBjeKoyP7W8o5HI4HDS3vDx+dK9DeezJbOhpLSzs6WFjMrRz8anq1XdYu9dYCsbNNqezHn2Xg4sPdrMty3lASmcpFZdCm+e6c3Xn+ItRdw6yJsUPLAWP35wjlTnOehWVwi2iT4ql9K0qW+r85kptGpmrEo4Kr+wJXd50L7bU/i40MveMPUCLTyY60vEOeUTw6F10Z/bYUsJSyCsfMssMpSN/ybuP31SEwSybQ5KFn6pe0z7qD1X2xLKs3Ot7kbcH5zdiVNfxGJlFnrgUPX6zZ5y2nV40eUbgstnr18MruA9+Qm+Wmgxslg+unbEM80xmCSKc6FjGY3ws5clER9re5RPXc67roV5D8ROWIqIw4MqYDzo7594meUn/YErk1T+j5V7P8QNBnbmxqwlO9ONaM1k/Hj/y0uprWGTg1DsnxTkhtpQpe8IytfYPbClc0ijumDkzqrcM6lh/D5r4ATveHj/61WlL5WVi1ZyGAz1YmINEZI1LUYED2mBIuTP74cHge8SJrn+FS6iXFAgbqgHmFidi0zEIWmwpf7uqZU8EJ26oqzpY2Y2l29s7KQAAIABJREFUReksALcwE13/mtDiUt0Hnc5tB9XA0qKA1BRLhyRqhIjf5mDtDm3IUgS+ttTmypyqHG2igwfrsEUvlvKzpwKpoK6btirkT2hjCGaVn26ztw+tdDo9Ui3z9psgpXWbTS+xVe3U51lZUgTDyTsutYBp7NrmMFvjyj0Ig5Gl9OPuZy+1p9QqiHvbEGxCue7syTMmM9S7DMqgmaVoSyHUu2wZfBKIOC07iqpeUfzMLPXI44EzpH6R7kFErWZLCeIMtnMZfT+03Xnuw9rS8Fio90Rfrhv6HK0kL5Zijh+f5HjrRF9HU27fiXU0usweP7+f2WApgmXrmXeu7cq5gZAvY7jm7AmP4rf0/tXHT147RVS9DV+G1Zbyuwl4/Fi5jhETE3UL5k+aCzFYxHrRUdlS1UveQqZR7KyoCwcaEFXK7P0DLCmfnugoz0XFbx6WS3SlNTYcyENurKleSuX4YSr8zoz63IHeRmyutzCeBSFmj5+/XVUsJVZSPrKMmnbXdW9IXA5FDGAxbCmwFHqiw+UN99y5/Pz8DfjJ38AVsCXUK/NKjh9NrCObtmFpD2TCMmWWE/nEpZBJu6EYy3ZwGvywd/oU8fh5FCo/u6pYal4XVrc51FXQ1cU/ePwsLBUgOX5Bk6oLVu1cRRkRhJQpLqV5/OZxdZuWAghADhm4fj1++7m5m4c4EQeW0p4KW+ozfvbO+hRZCgBY1OE+vXfLFuYRIZWvfAuaisGWUjUGULMk1Puyu3ztFYpsubI2142EJHFPGNNJOxckJKVJQtKWRUhIgnp4d9kTQMp9O3LrNa+D6HcWW8rjnrgP64oiz+9PmreCcSnd82bsmeWBnj1BAsIgXgadp2hU3YGlKIVez5d2OQf1tXpHPPuMS5GloJ6BgdD7FWuyNVb5W1GeYSmtfx86mRf2l1WVYeUOxqWsHj+iExPFxLceyLRVHeB/5riU5PghIQmEtwI0h82VVblbOfkILLVwIU0Q8fjhwgcWsB4H4k1NB8/BliJLIcdP+x7UWArrctQ1dRMqykNBi8soAVEJSZyne3c3aoBV1iz8fj4evzlEcPe2c7KaovQOxPZZ3GGynCwnTP4hpGgUIctvCCttIOkBfzBuyFImWwoeP7oRuKwbglfKsQDgTbXk+AVBAusjrlmVLu4JLlmAZ7xZCo7F/VjyTdscJoPrnutLjY2lUJMxY2+uK7ejvO9iR0cngEDXg4WlmJu+5bS7JhcifZm5aNmCSJV0SDI+kOT4oXlZOVwY5Rf7yjtQgohEirvNRH9gx2XhHRKROCvMTceMeik4MV5ndYc+/tXj8fM6L1raiinHj1iBQfXOrkHEqISl0CFJK0Mz2VKQAp2dPDU4qJIszB4/r21o/2oshYuaBAPzCDyFduVIoyVLhavaCmaiA1BsEQt6ib3Vc6DRhu7o6AEjHr9wHFctE51LtMEtCERhRTZbWSGwouJSi+XYG4ofn8cSpj0HMt1pja2IS43EUs9nPf9CuIpLkUzIMKAPhHqrznGJXYBFT5tVthSRMCW/UpYuFGECz9J7QjokIaNCS5elG53z/uP3jVCvFpfC2xO5PL0MiV5Jt9k7KDL2x17AxwSkABaAKn2opEi534gd3/WlEJSCc66rZChdnO4iZFpfSnn8MNP+eXtKsE4icCMivj3R+fbQSUVDXJNeBoR9e6KbLoC5j2lfhGQpOO8mr8/al3m9DJUbZR2n6acDcVHx45kNUAlJwNTai7mdWM7pemPf2is0pcSWCldxAeT4cSIpQcytQREiizuAxLtauUMQMv+ty5dP8Ac5fpKJPjdg7kJFQQz16iiiY1B+LiMuRZbyzyFzlyzhtWw3sRSo59SuwV2nTqrEWSp+9teeeziCx8mTib70JyffuZGz69Q1uDJIWJZMdNMhDQh4YcljPFw6S+EKj70FRczthtcAPc3xPz1+C59YwmPPZQagrEH3C0HIqaERC8v3t2IND1TtMhP9hVdeWxjA7Am+DyOv8GImglJI4kO7Z3FP2Oc+//zD2J5AiqYTvIdUIF1QIGG8UREcgaVeefbZV59/wcNS57F2FNMicg5yGUTFUnNVtZLm8QNGsEh2PhpK0NiiWqfiUnJO6J5gWGoKV9+tq9y02ShapC21WCgxQMuewPTBGyq7N9PXJ7iT9aU8HlPLMQ2Yu+jVVx4L+7Tq4xcUuv/doQL6+ogGIEPiUgHRakeZif5L4i4ISUtdHillS9mjaYujnQvfiLd3DR1C04lQgaCm+GFH1fWleqKHoh7/EDcnrnhOPJIt9VhWlpwPyUSfHAh4oPvKlqy9e/G7CD4K3eOHMzuXih9cgEDLstkQkZ9lSI2VtXp/HRamziyLO2QVxGUzFslEW7Y8PlsKr8brRNewMv8yl2yrz8nJ6WDAVzx+r2U9Lx+aTnQdUuty3ZDBuI6EJLCUudus6ewszHrk8SULw8221Jldgzcu6f4+bX2pXz/76hMElQdSq68Ntp2ia5Cspmwp07Tmh0u+8+orL+C8aSw1E0t2NKSlKXcB/RXi8Qt/+DvPZmFH4lQJIrS1B29l2souFrZi0XkxwQCplPDHvve9RY/Ffz4P2bIogAqJ7Xelwc0hPj8YYGSp8LlZz/IkaqsgwtcRg4iy5p2ADx2bu7PHz/7Ksw899Oyrl7/0bdXXCG643QebcnYXd2+Wag/m+EU+n/UajjZZSnXGDMZCbAd3F2/akIiEI/7QiR6+BIdV2VIqe6K7DsuTilVGyIgtlfL4K6QavV4KkNp0kCL5m8Vww0RevSc8RzU8Ogv7+UqXQAoX9f49yCQqebcrHd3PwUgqLvXc40vmIt4mmeiKy2BzrRoqKKKfndkTcKKHz/31+scWC0sBRoAdFlK8WdIiExGcVPzCX+OZwY6yuIPvDNqPcpKbQ+8WoU4RbxqRpR77zkNyPvR6KcAAeRPsu9yHCg4BkNhSS5595PHHHmbaLLzhi67wlUUz1l4/uujKjEUqx087s+FkqckQwg+wN3kyMMfBjs/j8/gh+ZXjvh3u+susllr3lih2Aqnnn/1e1mO4aGlLaa0xt3c4fytVVa+vY/4SWMq/BrEw66GHvvf4Y4t1jx/QcdwDFIJFnOi/5pW2JM4MqZNva+UfFBqJpZZ876Fnv/PEwsWaLQUkRBUWXoiaCQuHeRHIdiVLPfwd7MiWxx6WlTsggwIPLH8dK0KAFEwisFT4kmcfevaRP5Cl2AYwJLaw8Bm4DWUiYEyyJ+biEwGdc7EKokCRae89F6K0iciAXiyFWO/ixYvnyiCkHnrot6iXEqKYU5zjPIdLHJYS/1cs9euHHln0WLisLyUdkpCwXrw7B0v2VuaDhSAF9TA64BV+Gmaiq3dCq8vfVNlUn9Mkvjypl3rhkYde5bUqVb2cnm1cWAcCd8hmbo+Z6Lrp5oGTPJq7hTu6RxQ/kkuRJAmtKXm3iBEntsaMwC488vgLEYhLffPTLOoFEgpQ4bRz50qgCtW7YKmX3giY+ypOzsMaS6ECPr2lZI1t55pV73ZV38ZbxJZ6/tlns6hpAFK/JJl5Ngcfxm3YciPYUoAUz8fzc9Eh6WX6vtce3ad+XLbTR48Kgqj4PYYj/8gycU/M3quJHC2vKj+6DznmbI35m8XamV1MlgKXbYEHA78c6JREi+susieIqdedPyI7Sb4f7gEp7Cx2+jv4xmNPdCIPfzu2Xd8BGaBJMGbKRLeeG0IKaPm1499+ItCg8bSV1VIcpCApQQx4gicQ0POwlEmMEWFzjp91CwGAFN6btaSV1zi9BeCNqLwLMm7Fw24SW4qQwo6sf/RFKmcIKIXERqHzhJJC0oPYUuE88A994/PxqqZjFkK82kQXoEJK9oQceByO9YWPRsGpQRKcFRWvSyEBNyYKxR3hLzyGseSxJTKex3jiuSdeeeUVHg2BlCAKtFHcvUHcdAoYYKknI1/hfj7xwkImJBEIGDC3Knejtnc3FusVxe9Ju0hd+QRy/CAjUhvRdKLyYFW9EZd6gd8iYBJCSqmHwRAprtuGmRjg8uT4AfXhkYsjiPqFHA8//ILs6aOEFDtBICmi69CeVXBr32yZFxTKTPTICNmF5x+WPn7AFDjoI9UFLUMr16xZuaoAOGRcCl/9+Dhbuj70yY9Agj9vFHEicNWedDg6JC6lXV+RqgSRM2FzLUOr1jTK5qwshVSCiDDuKHb14YUPv8bzCrQ8/thzXP56RlbHoK2GbZdrqqpqrpdj7WrVEx1fltiRp4Wl9rlt7Mxcc91dhS5JR8lByJ4IX/wqZ/rOK0vQeyIQbZQ6LnaUl6vf8j4ugj3OHD8tLnXfupoTAinghughS4U/z00BVK9B8VNYu297B/VCIIpDEpLs+CpePHex9lFfeOGFx+Sykt186NnWf/srDVJI8buBla25uDWXv6bHL+k1dak99L0rf/t3mqbHLD9I8U9f/jpMNsHve3XWtU08QUjh4unHNQ6wMDMir78MeXk7Xa6yngeFpZ577Xkl9eznkT3BgW4tFxooBTm9qve1JcIinwdLYSbWHsYf6BQRl+uAUvx+8Njz6hw++3lujkHjWdNu9WoTwRuC8kcofnOfWPS4jPWoMF2/DOPXy1555dceSKlO5lgOFPl7MjZJ2iw9fsv4aZ7NeuXvZWFRwgWw2kiqclbt3gyASY4feB1SX/r+FK01Jrx+4jxE1S7gKR4/QgqXyONXPvVZvEuQh5mwsm9dUxVLEIWlopcsAeCfA+afeIWgf+WV9a+sX7/+cXnvECAFJQ4DOURvVIOq0qpWYf3rIHj8nlwMSGEXXn3id8qWosYWOnV/etceBJaG5qGqitkThNRDDz31oU/KNLgJmvqR/emHSnZWrSlC7xZhKUAK49VXPon1pSgB2y30jVCgipurRu8xsFRkypIlzy15Dnv6HPaUYxn3c32WOq8PPZT1+NMvAxvoZO50H9738tF9NbZ9+9ZuQb0TFL8l6sw+9OHvIi41e2+f29lx+ujLYKm+fS+Le/zVD195bIl2Zh95iIrfon0uAk4fkBq34gf8kH+2//bgCSzVi0FksQRxyROiBBBUT2vLXwNql2tOvKXEGJdCqPc5fshXlq3/NT/o+kXr1SWlTg2++T0sdXxXzqlrp65hnNQg9dzjCnjYxL/9Lw1Sqy85d1EGQ0Hqb371mHYg1RawDbWJLH7/YHweLDUT5BMTEtXvLGuQ0XuBnr2ffv5ny64oqe9+/sVpJBdALz7T2Qih3oYGLAaP8eJTz82Q8//057E0NpyC+C20YSJINPRipUO6J+JfeVw7h4QUM5tmhURdNKSYrvHgF556bfFCfKe8IN/4c5E1FREWNhf5U3PnPsG9ePaEbksFJxY31auBSijwz5d+7vi19vXy7AmwlCIzrn+N1eCbtu0Wckn80leXPCFS3/3SPwYLOIPPb4JVVo8QF5a3xptgSz333DLtwJz4ksFSWP8a6RjbUC8CsTm0pVJeeXwZThxO3SuvPPHEE88/QUrFkPk//qHPUBPDZY5mLtDqbu4EuSD2ikz0Ty55Xj9pP/4m15cSqeqiQ0OQWrkKmbNsjZm+5NdyuB790CenwgbDz23kze4puVm25uZQOsADSBnX10NDL2HJNlpPk25Xa5tb1VIdul8g9RqwvkzfUXwDyF4+v+SJR+TkQ/VTLAVH3elcFGMsWiQlvTCIGJd6br06qh9mXGrG+kVry2surt0yGXFeeDBgSqGdS9avF2lnFl/PMJ+WMWZ1OguDfowsloCMV/HTbSnpKtiR29HxWy0h6TntuxXs+t2HVFskZtfWO3Mplcv6KkDqypJX+F33/PP4LsF4DT+PvfbYa0vUcf/eBQ9Lnax6B4W6Mkhcq//m3x9+eL0cl+9lPfe3/6yR2dYbbeZlspmJDkipI6nUqdeWQLHCNuQyBd4PIC5Fqwhg6UxrhW1D8wYNZ5k94TAUBLCUUg9DLtgaAR0OZBwhUPXiUxUPi3ogLMWeYzGxWD+b7gsMlF/FMC61UKlEDz1y4ONw1QNmSMNAdRbMNjG5SIG0pZRDVhxZypultNXnYat95/mfw5ZS+lp3To7UQhUXC0thfannlulX6ie+pCCFQG7dQShrdfD70XIiSz33ipL60veluGPKlM11OU2VxZuYzk4YgqV++MrjGqR+C0jJs1M2F+/etq1pN/prMmTM3hMfi4xeSH0PGkYY9nnxYuqA2Ne5jxP7YKlf3oZ6FgRH3crGNWtWoeElEEWW+uTz+mUBqU8voBA6tfSuXLlmZQmkmK9OSD2xTL76haX4xqD0oZvQDFcNtRQxuZ2QMq6vZ1/UERyEGhFIlQwdQiWxLGf1GXtk3MK5cRGLI7CntE0jwiOwo+HhQsV0oy5WthR9CnsPQ51DWxd2iAVgEJd6bCGOPMbTT3OtXvj8svblXr+4dx8hBY1OEpIefkEd00eyoNbTiz45K7cT0MQcaiwar3uCnIRijh0n+n7b13ei73TfCXr3oPgtnKuI+ZFFS5A9QdMJ6Nt+uY9yGCeY48dQLz4nHfuL8TnVeRGrXE5N1vO/+spPNKwsPVkv7KT9K6FeWLo4gfAremyp1TduMGtCH0v/6p+/FRZmD1scibTJSJx4bAWOc9wuFm36O48/9jmyFAAF90RjWR6aSuAip38CkEJc6mF+mz2ybAkaOItQbMyttIYoIgED1hXdEw8vfg0H/tlvfB7vRk8YFHw0AJt4nX9U8ujxE+vwkS1L6J4AOMFKeY2NALMSg9SIcanvfeeVxxiXUlVOwZWok4JWx0ZhVMwQ6o1W+tRD39ny93ofv/OVyESCww+4gCMdjrovfXXhXFFRwVLI8cNTCDmxnxgHRchSP5wL9wTG97KuwJYSnB3J372N3hBEhCmEhCSVic6jaTVQwyOAx0ceL4Dix4aWt2+3rFxDPx0c26wuBEv9Yq6gDt8Qj/+Yod5QOtHhqBtCpzCuGQ+mocdv8UK5TgEp2lIgqYKba1ahdxkivSQ2QiouQl3uj2yB4kdvPJzoe7A5ThTKrZnqpRTeTfu6GN9wcE3CsxmOBs6wpQApeBZeLe/scLuYhw78MMcvXM7sq9+lLUXUYQ2CfdDpVDYS+lDQlhIdFUYZ3L6s6g2cvX5v31HOSDe7vOeuPH7Imd2+A5EpFHeI2UT3hNhSjzz+2lzJnlBsBrAhFRAlU9tFjJAyfVDPQxx3+jgDTB6/raduvL1VhpaJjnYur0BqCcIoHkgtPbnr0nGPmKW4wzM9H8Hnw51bLJACS6AaqrCsF72RsNRuHr0VusfvO+sfi2CHJMIDXgVkAh7Iw4CYePfo8YN74tUn8mhLsdXYrGmtjQ2tMg9Ke2Nn0ePHA4+4QPTcZ8BSTJOFR+SAtjkUKlJh9PL4mff2sSfo1vbEpbpzEI/ShlL8Iu2wpfA1+dhCJiRpSEALPzWWHwF8JNTLL6HvZH3iixuV4ndkYz7qfuWX2XvKloIiw+8prY8f5t+8acNmbaLlMNHo8btD9sTiZbi2FjPUC98dMIX8oSI0OucgpODxCwtfj+kfWfbaXHj8fgmWYlVvQVG6EmKyEat6lXviO7c+9EmwHVAUlI4iKE2GzGbYUt95/LWFn4HiJ5yIgqkiTYptlLC5z/h3KCMqmUXHGY8xWArXPQADEC3bsrbclrsX2UgsHaTHb8mz8Dw+hriUKHoECBr+1WC9AXkHIUXH0yNbEMBgQhJQBKKCISxgkjkx8zghRZJS/NNx/XpNRwcivRgCKfj0F7220L6Y7VwMRL1OsesdrO3wWlHedA2Fz51MTg4I/5bHljqzy5kjVfC7tOyJ/x0ZgKyChaQ4D6QQl3LugpipUN40r+nh4seyeBzCASlwBXotIy7Va3OWNXJkMnsCK3e8Fv7w448zDiCQYsUhnOiZTltZYyelsPy1FMpjLlzzP/h8PGgJORazYg+kVbkaRaaQjkKB1ONb6JkOF5bCc7NmRTWozXU2ZnJp+hEy0cGy+JRajh/JZcPubZX5m5DCl8+SjClSL/XKQwBUdICql8Kz9I9X1tXt5m+xZnGFBTzx7CPrH3vs+/8ISAlNbTpYXw9Pe319Ezx+KsfvBYTinkd8Wzx+Ak4kv6t56io3Y2Iqfne4VOc+9trCiAiEepEtTj6Z2oV6XBmsb6fHLzxiGZE/N1xKEIkodpkd6hWhXthSkj0BNxou5RfgRP8IJUJv70/fo00EW0pBKuD5Z+VSDv/MS3QwAnnI8+PmOBcz0elEN51x88PwuUuwC3wmUrGUIITKXNbatYuACrANV0EMfyzrlRcitFUQ+TJBtejVo8yv4H/CUo8j1odrFZDiszCxZrA8Hp4KiuP/8Sp+Glbmn0Dy3uuX+7ah5SWeoscv4DGJ6TEupXv80EzJXdP3OjLW608QUmApBGr9jMUvqK8QU/bEGTonTmHAPQFfhOT4IReAipwZUieVGGQ194SlJ7pnU+ELH5MsAcVSootF9Tc0ZMpPwwVJm/34lyMWMxqsQQomELgrj24HEexlVYbEpea+gGs+VliKVlFsoZLAXD0wrkTxW7yQzdgDEAaj4gcEh8Rjc5wHv7f4jKVDEmW9h85SKN1ociKUhIZhOcwxV/VSS155jZ3K9ewJXPqbtqF2Yxt/0XRMbKkw+xJczZGISyGzj1y2ebezbhOa+GGgXlf6+EXErSegtOwJhrjQoiInR+ZpOrcBUB2BpQIk7UpjKfBU0c20nfB8Y5QgnoRrHE70Jcvkaiak0HsCCtvtd1falNCaPWJLvfRG+OInSCKAFBU6KIfpJfpEqwyP32Pr+Z3I/Ke/kIlCmfyubW4IDsYRWMqkCbLbLK59/CjVjkSEAG2gZKKH48yG4wKmLSWoE0FEctnyWWVPRIY/LGeWPdG5Vq82kUwmsBt30zEiA17xdTUdb80HQV12e7In5srViIC+h6W2d7hJY/P/1HGdvSoAKe/rxvK/OXtiNeJSb799BlqdBJwk1KsfGQ9L3Q+l7zjCvRCjD5AJSZYZTf8IGAMEUuzghyJABIqeQQFTXrw0PBdbSpNHqBfuCSTvxSBfPT6vB7HcPJYXMtT7YpxYaIAU6Q7OPPBdPGp6C3tuxaNcMSRGdZuV70SNpdjlmQEuZBQWtn4uKgr/eFf1mnZUe+hhqY1I39NGtyQkMcdPO9rIRE8UBzmyJwAXJpDn56PLs1pRPmAxvpsXK0jNAao2NG3boFtlEJHsCYpwiOInkNqUk1NMSgQp0j9x5+wJtafhYClUW4hxgyaVWmo42Ia2VISWkBShWArkElRd4lS56MhXBwNJvRTiKpgMkFogRBb0btqaFklER465zlLYUdlTLSEJxDhkQy66JKwXIaWdCUlqj3xv1UfE88JS0OqAhECigTSEf8AuzJ4QsXCNpQgQWUueYgIpYSndoGSoF1PIu4lPmQtvGLcTXbHUv77uFLfEA9s7rlOlA0t5qnoJKVIXxo5tgrgHHtCbjt3BltKOARQ/Iy6FiNMphJtuXFM1iHfKRF965hSjUqfYp0JByn8WoX6UFzMhiYof3OixrSxhKss8APrhEu+WVRBjwSR0WqAvOiqmmMCHZyTHT+uUwRw/EhA9Hbd6c1FV1dift4JvguKnK0pISKLHD0yGzfU0NLpZe8XAmFcfP333zPeKpUgbcxCYggm0CX1dmMKHlaP0tFmNpSA0JfFcDmJN+hCW4soduEokE53OhuDEc9u0jFhylmIpfZNK8aPYJvbW1AYmJkvdIXtCvfcvoImBf0KRIWTbg7RwjAUSOQKksHl1OQukgDvUd9zceYj56hhvgJIke0JNJCwFcIZObUkrqZ6KhPbQUCqUypbSd5SQug1vyKR5JWl74JlATrt4MUCKd7Sl9PeKLbVMqEVWfycOhGcCTZnoC8WWAlhEjlihYohbONEt9VKTMQf5TSQ0WgOm7s6W+lONlB4+sCPXw1LabktVr3j85gNxHTsIre19qOqVtFnPZ/PzyMJS1wZRgXjplJZiLiylv8XDUkuP70KO38l3dtWfFDIbNRNdsZTABd0ubZkHDvSiA4U01jPVS5GlAAR6LdgXveHAgQZ3Wg+cDKblr6M+/jkEuAiXWXmNtsZ+duhriJ+JSihASt9TsaUwCUoQZ/WU2TiRy3ZAcjfunOOn3mywFC7q/HNSjnuwm34HJiTpVb3KlhLfw/liNLNMPJJ45MhGkpSnNaawFBuho6yqGC3TVdB4M2SEpfRd1VkKSRi7d8MRz4EWt17dZnVp8z0VP1zhIKBDK0u6qudVz5uH0kLaUp6mY2JLqZDTvD0rh+B6EDEICUup6YSlAKFJQV3IrIAIB2nLXNVLxQ+bA9b2Y3NFxuZkyTbzbvl9rFgKIJjMBL3Js5FDNDkwEAocM9FVvRSbjsHjN33RFlSBTJ8OZMFeAk/hAWwpfVbm+IGl0OQFNYrAHsqq0BWT+Lw7WwqFUDUn1u3Ysa7DLUaSudusQEpjKZhcfRB7q08h8I5ps9p+mlnq7Ry2n1i69dKgnj2hdaWDrAdSq0+1oUMSKqZutOnZEyOzFAvliRaYPPAXoDffzKhnGuEDB29YWIrZE1DzUI9RVtYDXosqdCM+5d0hiQSEsHG/rRexq6hbDbZC8p+VpRQnsXVtGuhw5jS0rb1AlXIcttSG3fVIiEVxR84mcouwlMaDWr0UyaR7Wz16+XEYCUnqWJClpEpqyuZz9U4mMTfloFAeEPOp6hUuQ4N1LD/FwZjxSB4/dd7AUnT4gThQaos1o4ZKhkoOAVS0pQzb2WNLzWtZk7ZKhIYKgEQrpIg6TIRul4g3caIWLuMhHj/9YiZLgcrw1oKVaTfVRO/CG0LFb+STzxkctKW4zsDRrBlb9p7uu3j4aBZKeiUupXV8kkz0GbPXHj66JVAnKFKRdx8/ePzASYteXbv2yqK96DvGrmPksrthKfAOWshe7+jI0chK3BPaRxZIaV6MB3b81g234HV331tigY1mS/0XJidyAAAgAElEQVTK4/E76WRcCpjKubF66R2rerfuUnGppZekSdIIOX7a3glLAVHwD8SjJTMMJvTXcxY+iGisF0uxIywUvwtoaMRgUlSm7cKDQBmc6DIV66UARBRdEZsXVmCiFYXOfoagfFgK7DbrwbwyFZeKQZsysOQIHj+1q4qlGOvd2F1ftxmhpCPoKYvIFPv4GYqfVPXSmEJvCTIZgr0I98Lj52nnQpZarlgqkZ2g1QBLWfr4mWypfFQ7qsHkWk+On3YIfe7AUlL/FDqvBesMqFECM8ncbVaqegEEQA9xKV2qxdITnbYUPX7wHL6LDAwMxo2LNMXP2KyypTAV4lI7dfdEtXRI+owhdKcHCPU+ApUOK3e4105HNlJuR42tgyWItKVUt1mxpeDE66ty96HP32QQEW0qyEi9lDazONFBUldOX693X9yX687ttNUcJZvdHUtRl7vMrujrxDl+R1sKYuiQhEVFlRjcE7qR4f8jm2ypk/V0nqOP36BW1fv/+GWpG5Lbhx4UY67qhRMdGh38A/GZoAsMONPRx09YSqn94vFjO2YQ0MxbrkyJ0MYjMAxoSHGH7DxtKTgK6XhoAEgwYg7Y+gkWX5bCRCFoagsqAysiMAypkeJS6uCILUVIIdRbTE6RPn5oFOvbIYlehTkb4Mv7H+zktymfmYCISxmrICIuBcUPFARPe3FlXTHzkTSWMk6IpvhhO4lwCHYX/w86BslS4kQ3xPycOGVLhYI3ig4dakFrPfbWQ/qEV+8J5PiFEi/7u5TUIUih2MnabZZch4nS8aKaqABxY6+q3pck/wlmGDanSXFzI9VLefYacSmsunsFhfKL9ta49iGNqM9WvoWw8Sh+sKUQDr7oRDVv396sGQAVTCaoh8hEt/REXz95+vSjaLV0GKuP7svaiz5KWLnj7uJSCODSj7f9LTGUdCe6ttv0+DFJCUPEHpivCkBAU6MpfhHfMrIn7j++a9dJ+PHO3Bg8SWTRPaEfF1NV79JLg6g+3Hr8Uv0p+idGZ6lwhnrp04anod+W2ZqXd6ufKUdU/D7/ZQ1SrJdidBZPhsQ32HohdQHd/ujOoxOd+xFOluK74MCI7XE19tzKu1XoKntmBTrFeNaXghP949KAdlrIg1H9NgSE8y5gq3ksIh6TLaWSHtAeUzQwsJXy+CETXTsYemtMYIgp5rsRlCIO8GPuif6PG5HkR1BuRtkGCAgdbIko2lIGVpR7gghGam1x3TkmJIlRpmdP6Iff515jKfJGNVP8VqF+kA4D2lIRmrTYUuQyBISRD4sUP5RMVb+B/6yKn5a9F4ouz1jeo6Sl6A2A0KdDEuNSwCZ6Z8pEyGxClIpOdJ99835CdUiajJU7rszAMvFgnvVZXBQeCpuFpQCNPtvatZkudwdgNxvWEn7gnjBsKVlfCmHeDvfeyYv6qk6vx3KIF7mi/LgbOAtWkI7Evi6vd3Sgj7MWl/Ly+BFR20/0XQb0sCjBCamqohNdvxS8P6r638RSS9/eVb/r1I2cwUv0OyAu5X+t3q2oQUSkt/6GNMe09PHzuwltRXmgBZGi3rS0xswyW2PPCqbhWWwp1ROdmLqQaXOh458t89YKKHVgKVVZrFf10tUQ1e+2NWY22lyFdFdYbCn0ngDwOELyGmxqc0xEZ46fp4Gz311VLMUILWwplARuQriom0jw03sCSJjCcNLu3ejjzJ7mWockAYzm8QOmoDpug3+8u855jjK0pYwTIiwl/vgpCAhv2727qX63YGqkuJTsON0TvMaROLRnTdrKmyvb0qj3SR8/Y3qxpfAkLKX0EtdOSO3cuYe+B69us4wZY7H5QyvTUCICo6uLphUWFrWsLyXeEKiQe8q4uZ070YxdsifG1HvikWWLJmddz81adhRdxZDfl9UJVJjauUihPFojXbTtnXxlbV+Z09aB9sxY3INr9VpZanrglkz33tmLDjv30RkPEEJqvIqfmEQdzo63AJl1COHC8eeHpVAof9+/ImdWFvjYcVmTHz0u5bGlwDjHT75z6p1LZ2BJKZYyzo7JPYFeLm+/c+0am5MReKOzlL6iPFSxmJl5PQi/9h64QO3N0iHpYWGpGOprM2M+h/ZHDf1oayS8Zbal0EKCa/QiqZ0TNfSzG61S/HSMMNSLjCX2pwiJiS/UNkeDaxy21JSNm3bXw0bCAgAkK3ZIstpS1PvOL+9GHf2GDfloLVZMxc9ojcmqXgSjwD7Bm7chawLZgpt3e+ql9F3VWSr4PF5FsiB6XdCZPmL2hLzXzriUOLtDC9asGcLiui0304gWH5YSWwpLQ6WtbMHiunuwHhsS9awsxSRZsBJixiUFRV2HsCYHHA90T3xd30+WIAJS9GKg9ncPN4fFCNDQ5fZYWAo5flhRfgaWgirfu7cDixtC8XOio2WgVwNnhJv66tcGBq7fsnff4dw02+BRIMpiS7GqN3A6J1q7r8aZi35LR2vYEHC87ok/AT/bf1v/W2EdropTTx5icYeZpbRVEOs72IoW79hxwtlHXXDUPn4ellq9FUnoq7G24Sh9/Oi6QK2iAIqQ+sodsif0E0KWoiUDmkJCXkws6gujwFGkIzNLIW0W3gk8i2azK9D+6MIthn5pgwFSSpkRWwooY8j4wRUxqEJEei3Tk1aYbSm1CiLFEAaG1IVbXNkAE3tX9eo76Ln3sNQUVC8hLtXNmBLA4stSpLLE3WqNqSPFrJfysqWwvpTQXdPBzZgjGNaZ8J0PS4nptqkeE2DkH5R6KSh+lhXlPXuoPSJL4Qpn5TqW40CwaT8WfEI6Az1+jODKUIXy4LJQLLTWUv3GG29QmtkTlm6zMs+kBS1paJGEgBMwWiSQ+tqTup0rkCLdBe0vwZJWlGqxoV5qzLYU3BMzZlw5jD4tnVU2LLkBcEmuhK74SfYErCewFBPUkV7LhbLFSrKyFLvNztiLFuXu3NMud26u24302fE70ZEDsUPFbwEROP5qOggpH48fgLS9o+YtyIgYsii0THT9CPu9N+JSS49fegdO8dVv7zol/fnE42ewlGFLrX77HboFt167Ic3+CKl//pboOn6n55NgKSQv4ApHS+UDwBQaVvZfgN0Ui1Cv0ccPttSLVOhCZuUdQI5RTAwWJDgAywmtkCwevwe5hk5sz0WkKs2M6kfuLN6EuU0eP7ZzwVOzQuJlczNvaZsDb43JlmLE6fxm6F9gGGXaADxS1at9TLGlSF1YWVcL9XbXAzdeLIUJIALY5XD1qPMbDmKZG38eP850ZFOOCvUmHkRgGBPdOcdPHWZAiuQCdW0obQ/KLCZNLZBloaSqVzsTypYi7oIQ6i2ghQQkDIHLrCwFDRIMBEiBneC74JJtiqU8ljTSZqdiHoCzJK0lFBNNxdJWkB6TLWUXloINtGXtYbY7R8Owl7MkvGS4J1T2ROD0fR3QB9E7czZaaKJ1JswtM0tp7VxmQDc8jZUK1mIN7I61W+iMH3+91H0I8xJNUs97x+yJB7SKXiWGtXrZfAK2lPFdox1q652eiX7mhpM9mZEa0cZ1ccSW+t8+Hr/VlwYHGeHdeulGvfQcE8XPQJ51av3UaiwV3+tO68fqhfH9jU7UMbEri5WlGNedldfg3Fk4a+bMC4gHw6lAJyDbuchc0iEpJDb2gCsNEd6QKLTxcxWyAMTq8SMpzorhGtoH0L8sD5trREYhxgiZ6GpfNZZa3o3IKxYaKEZbCXEqqPWlNEh54lIbuWzbciwsCrWN+prZ46eKO4ChbtRLYYGPg5If4ceWQvuyKWCnbd2IGW/GaqXEprgnRvqi0m2pSZMO7bzJCG0R6UOxVIR+FtghSXkV5g2lSYS24ObOFppAlj5+Qj9Iv1255hAnGiJYvD1+UPyIqEmTWtBlE6HeolU7hyA1Zo8fUILw7ORFW16F5yFr31osy0E2AkupT8nsCbSV2JIVyMU74GFfu28vBPDjlT2BsNTswPXIRM8CqLL2HUV/CkjdhS21A02biSfyz47rPtkTAQvVyh1YBXGHBrwH5ve5wVij21JaJvrWU/Wqx+z9q9EoSXpewuPnUS1VqHfp24Oo/6AJtRorTF1THr875/ipcwuPH5cRje2xlf2BgddZM+Hxy0Q/MfH4aecfPdGfgibIul+sGgop8FSDk2slhugeP9XHDyZRaxkjuERS/AFbIxJiY80sxVUQ8S641zvZ2gzFVbd6nQ3YA+b4jeyeUHGp4I3FOfVoVYnumJVNToSnhKWQPaFd4youBW6BcoiAcB16RtRjOXj8b7GloPhR5vzG4m05TfhV4PTx+IkQl23Lqaus3F2PBd7wJnGi68jwd6+xFPKIikp2IkJbstJ2s4BgMWVPSDsXSeBDFxassQapNVhaFFTjUfy0lTtAPIhdoZfL0BCiU1wsXkK9+pbZIUlsKZSArFKbw5JtodIh6Y45fvqbtRw/CTPNXts5vJfLimJFeTr0PE501SEJZYezt5S7T8+Ycdp9nR1fAr1Zioofx97ctrUzFl10D69lI7/xshRAsv23OZcFUffdN/9Ezm/Flvqt11q9pLHL9X3M9WPXidfdHZriNzKHaLYUYlECFcLl7UFtfal/0a8iPXti9SlBG4WWbj01OHImun5MlS2lh5J4ka9AWkMPaMrCUlxfSlaUv6Xy+KbNvIDAMMnFi6Ww3ls/cwYByZnT+p0HuAiV2ZYiKQKbWMJKShixgD2XqfdZX0rfPfM9WQqxqIP1cEpwkTWUBtZLfMo3e4Jw4RprB9kXHcuP8l9hKQEe+vgtp+KH2BWyjRByUnWIkPGxpRSmElHWi4l2M0l3LJB6SfP4TQoqQpsWtDMvKaDaxriUiaWQia44aF5BCYVWDnVRS7QqfpAQJ0b6npsU4QLZGqSMmSTUS+8E8paGKITNYZ79Y8vxQ/YEkYAajKwO9z5QzN7Dzr4swMcI9YotRb6BF2OfrTwLhtdRNJKFCOJSvzGMQ2k6BiQiF6nPhvV0Zqu4FNIt7iJ74q3r8Ipvx3jrRM31t4ie+SZIqYQkPImV57EAFcaOy9drCMIHTKsgmq8d43GE5vF728lYlBpbdzHU6y8utfrGLgN4yJ54G/IjZaKrrdCWQvqrrNXLUC75gqsgwt4x21LoNhuChAdXYxTgAjF4FDLTLiDX1suWmhbbi/WlCCjyVI+tlw89tpS2CmII48RMzYXmGBLTr2VPPPVl44P7eyAshXbKzJiA+oWxfFP9Oap0sgqiYin28ZMSRHQyOoIFCfK7kVtLcW+WIqSCN6PeKvh8Yjf6Lcn//lkKE23cnI+AMXJnud0xsRQvfKywsR/dIBDBRWI4BllKB4Jaq5dZsBBCMxdIFRF2ZkhpLIWZkDCLLhaHWLELEev6UnRPTIWnHZAKRYskbo4u9Elcq3d0lmL2BOmHjgV3+SIk583IQvuJQGTw6SylZ6JDalGfG8ocYleolcedOcdP4lKSzj4j6/owcIfFtPuwigd0ynFCSrwN6zpQVYiRW8P4FFgI7glV2cFrg5no0mMMmNLEtEpF0/pS/i6iAH19qTOD11brkDqec6ee6Mjv0z1948qeoL+Ate3Q54ADXOjMnvCNS+GVPNa2wz0IKS5eiAgtE5JUCYDEpeBA72deHwYKgKchIQlNkywsJXGpkB9kutgxhraYZE8QWaMpfqqqF+vDg5lwaSNr4vyGHKyCCP7xWbkDKt2GbmT2oRIeAVrCRcWllE6gEpKmnM+va2KPZ5DdwWIpuffN8cPsifniWdxQiSYWBDJtqdE9fuSM9EMtRVNDQwtK9rAXhIpLGV/qqtssUFDUwkBwdUsJFx8lpCweP8atgqrfbQGB7e8aGuqiJTUp1CfHD6hDhkVLERoyHUI8WDY3Qr2U6WqDeyIQ1z2wtNfd8ThMqslXcmuysMYhShA1K5k5fiQppNJivXgUS02ertpPMNRrmB+ol1o/HdbWdGCyk5CC6oe41N3YUiSl7ev6CKkTmpPc4vHTbSnIcWUpjN9qjdHHYEup7ImtSDNSbvGlyDS6RPrxk4kOW+odHXlndo2xJzpZCkCKKURLCVzkTKK4UOZCil6IxeP3FBU/FMkjaxwizDsqTENiEqBjWV8qJGRFq4vptJwIBcBcodTMUpI9Qf46YMOaoqyaCpmFN8DimjXtp2NhqTnBmvsNHDOFVRfoAGvO8VPdZudMWZ5/TjIisJYNVvCg4udlSwEr+QedB7tBT4mb6nLqxUryZikaXOjG1ATAYbGBnCZWByN9ncUdpovS56FyT9yGIbWyAIuyIdwri4ZKa0z9jWSpeVDpbnPljqKpCyC8E2FcQsrinoC5hV4uWLkDgaYWrIONcl08Q0gZm1W21G2u3FEgaxuk3XyXUTBAanSWUlW9ZKnptJPgntiLyBLUNmaivyDb0FgKJBU4fS0SAJGztPZ6G4K4Fo8fMtFlybZAvPO0DXlLCGC5r2Oi8S4s+g/CUgDVfGp0NKPAUj5xKc8qiCYxSI6a4/crVS+19CQdD6sxjr+jijtUVa9+VLVMdBhQ7xyn1Na3kbZEdFHxUxqRLup9r2dPSJ5RVGxsVN4fGm39CDl521J0WDwItPXnUerWgTJ3D8K1WgkiZ1UeP3IcmqpDJL4HS4YCdbO4ZJu+E3SiY25wXFrvBdlcYaPtwLSZ0AFHc6JrLIW4a/dGUBSoB/4H6YmuWEptQqvq3bDbScsH7fe64aRg9z2xpVTLCLGlkFaL5Fu0XOJU3TnbWHLvx5ZaXlyfQ98Fy+5zmropdMS8sKj38eT/yPGDPodlodbsgaKGdKNVaSuRvee7CiKavqAQ9yZhArK6aVvFHAtvj1/ovD22nbLqdXoBcHcI6/AKpHQVMoC9J+iasK3cwxJGbM52k+AcI0t9GN1mgQ44zvfmOmvKc9GsDwvBi+Kn0maVLUUH32yEr2y23HK0A9vH0JU3S8GzDkTBPVFuc+eW1zivr+XE41X8CCENVoQTBv/ziUuZRDwPx8BSWib6aizRe4NV8ruaTglfWVjKiEsdP4XiQ4wbWH5UzKoxZk+QdS40uMsyMdD5X2ouzB4/WWYAjBQzsycTK0tRKq0RfcXgsaATXS4rbeWOWPjHXS4RKStDiQemtmai0+OH5i3PmDYnIBs1IYm2FBJdN25qakJPZqz1BLAgMxxs5bWiPG2pYiQPITUW0EO1E5zovizFmBR88YAI8VKHxbRVvZQOfmaiY3MbdueAyZQQJt1s7jbrD04CKSYk3S4ARyHFNQir7AJdJdKrEt1mtTdptlTQnrRVRfuhJGLBnC5xogd5FD9lSy2AAx2r5VADfCMd4oQNWMpAlOqJvuAQNocSRZpd6avS0GNzbCylcvyw+HUWKpxQ29HR0Lcvaz2TJwz3hGIp2Fh7F02HexwyF08fXYTWEhaWkrgUEIQEwBlwoB/ugBSd6Ihk3YUt5QGJji9AytAxaUsZK3cI6DTckaV+bZxBv+fnW1/RqnqxshSqdXfduHRGoKL1ntDfY9RLrT5z7QbETumN0cecPQFMxff0YkHqxkw2Rqfr2+rxgxMdfAMpLLILqQYuIiAmE7InjLgUGzijkh7LyTdiogOt9GUoxU//mBpLoYoqHjW9nAhrJcpE08bIUnOObDJqLSpVHqvKRFeb0OJSkg0BkBAL3VWSImGJS8Hjl3iwSbOyIHPH7In8nHOb2e2ZwNss2RNiS+mfRz8DlnsqfkGhLbYSsY2Al0kFO2+izIlr9RqXhdhSQfNKbC1i+NC3sAfv8F0Fceq7O9mqVkYo4MXG6T4JSZPw5iGgDnDDDUK96co9oSPYsn+Wf2BLTaZL4vD0rL61yxZd2bKe/MOyKEv2BJ44fX3v9H2HtyzKQqfzZez1R0hZq3qRkFTecWXL4X2LUIEoK4BgrrtgKTrGBSW8V/DyYSkNSiKBGyV135/GXi8FvziHbitZPH6eHD+UU8lQhhcVv7+5Y+8JdWA1Wwro4Crw6CQWz/Z7+FdW7tAPPrMn6LqA1MwothNjyRT+Q3aEJcePMmgqFhPPrmSYiI4P8yqI6D3xqMpExyoE2BxmYg8yADhm1FCvVi8VfGTjZrQ6xwq6xQIoXO3okPSkFlHQPH7LK+u7gQFCaspylT1htaUIqTounk0JPEYWBe59bang/Kbdm5UQsjZ2s6x+bPVSk+a1pA3tR84rwfARQAqoYI6fHtrXWAq17dDkwGSEg2RPmHL8FEtNLVCQolBQup498TWrLYUefkjUIKDwux/vqA69fRvQ1k/gHe9VVe/kvW732sO2juS1HEdBRwCV1eM3Y32f8zA6yR6lAP6ytLRZY2Z2SILrPde27yjCVpwHA+kT483xUyt3CEgELhqk/Ob4EVZmIbGl9ENs7JnlgSfHT3f46fd0TxhflQZL6a/q92NjKeCHaInB1S2DWIFOZ82eQGW7ZPlpQuLV47u8MtHhXmeDWbasBf4wEXqk+9hS6AeI9AzZFlr/YRJQGVhq5FCv2FKscpLeE1L+LqABpKyrILL7UXFOHVADuDAxSbWOsMSljkCoO4dZGByJotJB3DcuBRht0rB5fhMzAkdPm6UtBeMGSUhdHyFFMSEd+UQwr0xOdK4oT/fEnp0l6cheYqcKqIdEhdU9AQsMSUgF6OMcioluIx0DfsFQuieMK0fFpd5FceJtUhQ2h3QM2HDjyJ5gKMntrnK6a9ra2txtzDxiT3STLQWVbm2n011V5YZETVtT575l6PsHj5/hwqTHb/LsRfvclIIQhnsYywyMu+mYoh/QDn7ms0eSDIsT3bMKohKDL0MTg3vCgiDvf4wcPx0ixj1ZytAhDFvKeFl/MHaWAk2Qdti6mZc4lxA1x6Ukx28WQKVeBQTlFyTkZUvJ2wkmeYBZLB4/LS4F77kiPbU1mFsoAhmLx49lg6QV0cMEMGAQcya6Yqkp8FygpAPewCnLNxTnbANj+Xj8YGVVsrJjUz4r7rdtolfQm6VQ+ou0pt2baIqdT0T6eyXLsxiXGlGhkuyJ/egTVtIF1ATdTm9ZI14FspT+RmGpqUza27mnaN7UoNu3i4YGV3YBQVZILZi0oBoGVEE1J6p+d2UaGwL6qZcKhQHFzS1A1noLcizQIYnuCe8ryuf/cMeHH4EGtx6ZeX3O3NNqHEUm+mzEpUxVvZBZtHff6RpbnyYjyUaAlDGjePwQBl6777StRhPCkjl3Z0shAx1u8fnrUNf7OhPM6Z44ao5LqUx0BHvfWjcfyyWiqnfHv0Ju9By//xKWoi8cGCJchK2YX05YebEUmQTsJS/hVbQ4Eq3ObEvBYw4voD4NKYoUZMnxU3EpkpQ2ETEq7xirLUV44JdD3XmzFKNH5zcdxJJuHLtzDjJAZfX4McdvDsgJxVTsPNGElCWpLvRlKRQp5myTBuyV23LqNnOiseX4Qf1ahTWj9rTs2bOqjK4/ccFZMtE/vQCFgodW7ly1B1JDq8pWItkIHZK84lLQ9uCNL0FN756SNTuxUikgRZaK0C9mYSkslHhz580hSA31osQDGYVMfB9LvdTTKNlgt+Vley/C6TAjEF2O4J6AW0GHlHj8UCgPwll0mokV0wMD0VeWFpeXLbUevkMsuJLVd3oRer5MR/XHssm4Gad7gg6JHSc6arCqNZrN1rhPCKa2m9bqNbIn5l+GWB/Cwug9cW4HgAdIeUCuHyDzvbmqVycedX8HW8oqNBYnumRPgJPIE8AIRyy6tLC3uYel4PF7UQGFEshVgssOPSZQx+GVia4mkFkEUPxfFhbVP5Wq6qXiR74DqgBCeNA56WgliLSlUIxLROmQElwRLOYV5bm+FLznWDRK4IK+6MvxhA9LYSL487orK+sQw11+RIDqy1KYCZ7FbZwJfdGJKNP6UvqH8r4XloIVhfSgNTvTdpatLDlEj13QL5GQ5MVSWKa6oAQ1g2lpWOUQWUvIpfCwlNhSaF22v2jPzTUuzNS4qkUcFQIpY6uEFLCJSDA3l4YFCw4RUbJyhyF0pwdiS9FyAp2gORKAIlhBMgUUv4flXZrHTzC1fpG2uiF9eVKCqE+sxaWAu9nLsJKRNg/dHMvGCSmQzfwTNX0nOurRRhatj1QbWYviJ338gKDLNR0n+urduZd3vHXCLT3KRotLhWtxKQMpqJnSHkPxu6MtxeU9NOTBPaGfRP2zW++1uBT1sxD4FdDySOqXABoLS7EEEaVPyKqFEIAEKQZ8gQprjh8wMgtVijSnYlH6QdiEWFhKS3wXLwa6ZoLsGBRG5/SxxaVoSxEgwk9yA1j59p4A6LhwVDE6TxhePbPH74vCSQQVV34DntQyA35sKUyEgnvOlM9+tIQzQ72GGWs9muo/saXocUCwaQ8YSNYZoL3kY0tRhuusQQhrchB2KHOyhHrxFDwX+7FgG2TglAdWIGRlKYlLAVTzOBE2h/XpIcVM9LH08fvwWlBSIJNgkUIBKAEE+ANXWViKnAS48A5gUv/4VPWiKQUIj951keMtxMfrRAdUdrA5359qUK4BDdBvHz9xos/vQ/4fVhZlVzL0KEPa7J3X6tVOlMeWYvHh/fCkX9JWv/Yfl1q6+idoTIYV5eFrF1CNNcePLIGywvgQ1PVi4VCuJ2DO8UNP9KeY1ofUirwLt6JibxX2H2hlArtAKk72VsWl8EbUJ16ID4nvOXCg8BaACU3Qk+MnHj/1PkhFzcrDRD3xsLhiQri+lL/r03hOxaUkgxwQgNthc6KGLFOHJNpSVPOABG0gNCVkZq3qheKHKTDOM3alYdOPx48QIu54o4nJ+lIjfk8pluJVPemNqW8gUPSGAoKPLUWXAwGDpTYEBHyHrNyhPrSR4weXAxd/QwIFJYgyU/aEZKLLk6Ghk97Aom3wTFCIHr+xZU+wPYvUFgZCSxO4EBrethRe4NAQpUBltqXE4yeAhIJIQf7yPeNnKazTiwzz+Sek6eX2jlyt22y0cS3Iyh2AkTSiff3664AU6qX+hIx0ONFHPDd6jt/9W9+RjgasloMAACAASURBVJdNbCTLIkMVlzLeq3n8WE61650zp3J27RpkeZVyoo/4hYoV5dkhCWtC9WS6ynp7Mt1lqIS6QIXMwlKo6iWkogoZCeaNC5kRwMYsNHA29Z4Ac03jKokNPb2cqLEHmLLm+JGlYLZF/QFLzmNzLm7uFjXOWWOslwqesxlNj45sKK6rq4MmxmveT46fB1QU4K+1Xmq5aioBvChYCur8efzUu4EoDXb4H+6JFJWGYZxi6wNACpoY3Hlw4/Hi1kaQVx8/WQWRYPMMvMfH4yczeUTkkZWloPjRseglM8Z6KWSiAz4ACkDFkg5BAlnKUPzEliKaBCKAiYY7rELvZUshpT1QYUkRFFIHMevdsFRfLghqO/uNbb9cA3jh3mpLqRXlUQOCfrNvQWz+uuso7pBusyNe8BHa+lJb3xm8dq2tvunUmeNv72rT66U8kQmB1FJ0mt31zqn6QXRSOn5tcIz1UioTfdosNKjszXSmlfVfaO1FvdTMWd5VvWAkrF/jbuxttLkbCy/0NKAnrWIpS/ZEyK1GV0ODzebubb3Q70b2HowyD0vpHj90mi3DRGllB7g5AWfsaJBScangOczIa6qE02B3jrNyM7HgJ3uCTwMFUkGowEBIhcnRVivK6xAxYcqHpdRaiTIXb9QYo8cPDCQUpF/oZCSs3BGhoU/3+FmhAFionuhKSrrNUgJzmQZ8fz4sxc0xGd0z2BP9M1as+/lP1pcCjKYH4tonngRUTH5l2qy8wWNLKcAJ6NhrdrY5E13ZUoGEFPHEIg+iFKgab6iXDr7LAAip5z60nuj4Ex952VLi8bvvrY4aYSgwmnvb5fnwuo+ePaFy/M60ndq6+u16adGHrHTSlJ+41OprWAFx6ylZLRGNklS91Fh6T1ChQ/Z5bHxDVS/WeI9qcCEr3Zo9AZZCpAo1GRdQKFVVGLNiBdvwrQDKvDx+KC48gA5JVdLsD48fhNPDHJdSJYhSL5WXWdUPwy0em4OrcGzZE/AWnKuv7N7mrK/csBlpFMxK99PHT7/6dRgQXxZbCh4Lz8BjDXa+Hj9KEXUm+dE9foxLEQi8wvWrHPdkKUOzkLiUJqHLkNl8WIoRKcDRgxU8BEt5tXMJ5ZY8rMiJ4EQfk8fvZZALhoBAcQy4BtDQ3RPK4ydAgpgCFO9kyTZPvRTjUpgESDOEgDvMM26Won/i9ROEFFx/fewiqyBlKH7s4zdfnt1xgq3JwGHSfAyQGrVeSqvqPcPsc6zZxtwJ9JNVkPLp44fijq33ozfZ23gd/fyEzEbtia5lT+AavzAzpqeskE1iUcAUw4QkS+8JkNQsNIiNipnWX9bKlIdM1y10RLJmT+B/Vj/NvFXWiwxA1Ev1M4HCw1IqEz0kJiqTCy5ic/BkoNts64Mwucbi8UOcCNnnG3HTxBKnfPTxw8WO7AndVaNsKR0AVOt0je08ISXfuoqlpFELX0Vq7ebl/M83LiWGm9AdkauhSlhqROWCthQABRyQX4IYpsUVLmv1WlmKF76CQRACSvgP//uzpShGwSDV0sI3x48IFglsBBOFkrNCx5Q9wbgUXN+89IGHQPCKVPTCA24oflomOinKUPkEgJYcP2EpAI0EJ5MIVfG/u2EpgGr7DrIOgrg71tGLbi5BBMh/pOqluFQiXkVnl+3b1ynFb5QcP633xPFdp9AZ6SdnVqOo41KOdJ31w1KAEdLPt55B1tLS46rr7JizJ9AWEwtoxLdewIIaFzJ3trI8wxKXgscPplSDqwe1vT3xaKXUg/7LDEN51Us9yCqRaVGYaGZsXkNa4Qq0ajazlHj8pEokZlp8ax6CvK2kPmBxjHGp7vrKjXM219VtxjWer9dLeRo4G70nlidiid7lmzdxaVHCxeOeUCt34KnETayB6q7bvbuuWwDjt15qyvLE5UfOJ6IGMVGKRFgov3BUW4rX+G10i0Dfy653u9JvEz2s6jWz1Ke5amjQvGq8Oi+94N2iamLKq9ss50E+RPq826EyEZbMhoy/Pn5qc5yoq1o2N9bsibWAFHW+6bgFwRARorL58/gRMYqo6B5kobyRcCAsBXYTGhOigmQgpO6CpQihtzpAVMDK5Y4OgRSXbNMHsyeoHyoaY3sylFddh8ePLDXi153u8QNYtEr5456VOzzZE3qO309utEkpLzhqV4500Bxb9gSYZCZMoEJkxeISP4CVO5jbYGIpevzANrOAI1z+K9h1rNflLoRyaO2JTtaKb3D3Qp1DvizKNmAlwfNuYinpPQF3/YXGMm4O4bB+9Krg5maOxeOHdIYNB7dt2hi8ASSVmF+nCuW9bCmuL3Vkc3cdkgC7d6NUvo65gMFkKbMtNSd4A4K39QcrsaIbugL6rZdiPHh5fuW5ynzU3B/ctrsbaRTa8tf6yfV3T/cEoFD9bsmqPWi9x/r2gnlAAqt6dUipHD/gI72ld9UeVHY0or69CO/yjkvhmXnoITtUgPjVyjU3D2Eia1WvHfrdVDRRQu2hZ3PIgB9HXEqAImCh9UPKAsC8WQrUA6DwltSDOyzM4eXxQ0NNzoJX5ZcqIP6WjS8u9Q+ECrHSkdN3efvrfe7rl/mEOW1WWIpPQmz7CQjsQLvZGkEg4lL6IfZ3aoyq3vtXn3xHZaAf33XtuKTOsoGzAUfd43f8EiEFQ+udG3pxxxhsKXr8ZqG4owdOPfBOfyPXl/KypV58CqFdWE5/aKDdMwsGUGNP1Ap6LLxsqdiQW/2of+L7C8v6WQ1vzZ4AS8FNOG1aa0MPuvyhC8XFRq4vxeWssKL8iEN1SNpY3MRuywgmbWL7VzAQsif+aLCGVi+FnAe2Zd6GFTcO5tR56qVkA6iXAsjQafbcpsr6qoObEjd3Nx1kmQhZykidk26z6Dh2sAmrKe5uOleJtKVubk4Skoxj72eXWS8lpYdr2Py1bBW6sEgBE1nKSIkTW0oyI9as2XkT8dmhlWiUhPdZ15cCyLBYwRo2rd25agj5GIdu8ylvW2rBJCxWsKZsJ1BXgs2t6sJEY4xLca1eIilQfgEGPCBgDCc6u80i1kR8EGuQBnAgBFbz8vitDyTUMAUZTGa5K1tKwILg1IncJjQFVJ2ZLZAKj1YdkkQQNObuuI56emnsMmr2hNFtdulqWdYQmearVd9Ls+Jn5PgtRY2iAhzaohODY2MpcARivFFRF9DkHN2X46Na8+BVN7EUOiTRPcEoMHpnIkLFDpnxiEz59p6ICZkZFYUAF+LAsfGIPQE93h4/bAPRq1huDuiKisLm8NTYeqIj0nukG+1ceP3nY+lcCdl+9FPG+lJajt+RbtTybjpYtQ3KGpayYb2UKH5y/dOWWi7Z5/nBc+qcLNkNrmO3WT/rSwVvPocVECvr4Vs8ktiNrHRseEx9/EIXFKxZeahglRNtL6uR7scOfT4shdQ+9gk7tLIKuUjVql4q1JM9oVZB/GXRTfSQHXLa0JU5fQ/LNsBTXvVSLM+SzVXtbEmvRoUwNje2einaUssIICJGc30rrrGEerfgZQyhH7kjZCy9J2hLkZvoNg8km5GgAgV442MplYkOAkL01lnl7KBaByUPTnSP4me4Jwiq7Zfrq5zXWVCPMZriZ8SlAI6TqqHY1pM37tR7gvy09Zqskrj6+LVdyj0xBpZioTxIZUV8w0U0xQyJbe0t65nlZUu9iG6zkIF+diuzPw8JElE9mY1wT3CZAVMfP7wLYrH9aE324MzYW/2d/YCPuap3MYs7uL1pK/IaemG5zcTSi2WtzHAaG0vh8geYVBcIrIXIlaPYx8/CUhuDz0txBzq/AHwbu50HcUePn9bmGZBCwgRWSUSpRv65TXjtiIKUH5ZCcUeiqv1gvRRrf5V7YkSWouIXhOKO6je61qxEK5dQ1kvtD2K9lKGVsF5qAeql0lreCEXjy/Q30IYP5SC+Hj9V3FHE/pn7pTUmtDyfuFRoKIo7qtEw+ibWIdiPCitUPDLHz9icHzJVTy1Bjh/wEUiFDT/kKKEaT6hXlmxDWbwABLLgKCp/0Pu8q3qR48dXZAZSlah/d1UvBXAgf8/dcbmvRltnwOKeMGWiz1/X5849cYJ6H7E3Vo8fwXJmV9O141sZx2Ws15I9odtSkFp9rQkFvVthS4nxNeZus0g14oryaw7k5cGWygRYrB4/5PhRXQOk0FCi8Q/xF2BL9bL9HhU/OTd6VS/wgu6Yrv5b8YUo/eUyN2ZbiiWI4CYg9kGU5qNlbR5sqQau3DHWPn7IzUPzPRYfHsmvQxtY8A+7zWqXuJ49UVkP8tlQzC4ticVO9lHyrC+lsRS688HHkbh583nEjUXx88dSG7ZBJUTCIO2xfD4evV6KPdHhmmMd4O3qPUNFyDli+1dVLxWhXdu6LYV+tPMmpQ8xz7Uaj1Hm5Emb1at6gZP981qGusBz4CKtqtcTlZS0WelHG5q+Zw82h1ItFBGPrdusqpciswTihtoaiQU/plAvFD+uggjSIZgCST74BzI+cSml90GCryqxcdtSGkvd93oNUvfmb3+9g736xJbyl4l+345cgmn7W305dE+MXtWrd5slWEA8Taeadmmtmf3ZUpBaChbLuQFAaX2ex5jjB1UuBiXuhZm2xkZbZmGUGE5mj58Ud7AmY9o0YC6tsczdgJpdOPy8bSmALGYaKAz19LZOGmUq1Kt/qauqXqQtYdlDYM6W2ZmW2RMv1cBjZCk2i5CeRsBBzm60X2b2xM/t+tex5vHL3waHw5zEjRvPo2UEOlqep9RXNeCJLQX3RJ30aQFf1TnFSpLsCYsthWz1yhxU4y9Hfh+a+eVUsrKeOX66097vl79yT6Dn655qOP32TyrCAgJox+LNUt/89EeCuBABynqrgSg282P/PaviB2c4q0SKJs1DLjua+e0cYrqRD0sFTaV6iM2B7YrY/QVhrDF6/Jg9IWoaUcPcPmIBq0fBPaFCvXpcirzDQJOCE1AzA7aU1eMXSCRxMiqS8B/SmzFuJzr1N4wdlyXkNH/7iRPIjvC2pbS4FNW+ddLzBY6MHWCpcdVLLT1+qqqq6pqWvHfHeqnVJwdRAQZ/O8eYcvzojKBWBw9coa2qCmvwSsWuyZbSek9A8aPqF9/vrKri6m7gGq9MdEzDFKQVWC20qgrdlFYgeSKWabP6pad1m4VfAppm1AFsztUTu4KJTWOs6mUFIiJJxXAZ1B/sVrYUPX46ZlUfPzQb2636mHO5G7244+fK4aviUphmc7cqQURnMuSig+6Yia7vqayCCErcUHdwE9IAQWXwc2zgWr1jsaWYGv7uqptFobi00aJ8zVA641KmhUUVS4GaWlaWpIfeBoXtwfodzJz1ZqmgqV2rVr4bioTZqQUrTcUd+o6qHD8w4c1V2By2i3IpFlWNbeUOvUMSTSBCiTeAAm4M94QWlyJS+BpxwpcBGj8eP4BKXlLIwmzjTkj6B/GOP4B4E2D1+uV16JBJx4N5rV7x+KnS+Pk7oO9tX3f5MsQYoBqzxw/oWH3yxuCNSzfaNP4xuydMit/S49fadl27tksjM7on9O9v/RRY71W3WdHqYi/0ul29vUj1g40DcFhYinEpXPexcKQ3IG2pIQ1KGyueyFLKi6VWQaQ/fBa0OVtDf9lOMBkAZsmeYFyKM6EDIJIBd3JzXNYA/cfGFpdi9BW8AtdDVdXufPFO+GEpxG9hb8FgQrO+7vzNm4WldCe6ikvRwbExsTv/PB5s3JhfCbvKl6VYS5KYv2GjIKl7EybC5unx0xFsPZjaf4qlkIdegG6XoJmiloL0dASU6J4we/yk2+y8rq50dpDd34UFcQR4XpnooXALFqRzIq6FmC5dNn1ZCj76IkjB0TdJNgcuGyNLSe8J8U8EgmKIFPzioZWlACjxORBMICFxZwRaPH7SbRZIIjHJnVAe5McdlwInMczU9zr7Y9bUINEIKLM40Y241Ft912Fr9TXlwuXH6NUYus16VkE8WQ8jCXrdLqwzILaUJ3vCBKmtwNwZ+P1ODUr20phYig2K6M6LakzLbIW7D72LWvG/Vx8/EhRLQC64XA0X0FEMShsy1r16okME7ggsLNpYGB8DewuxLsztYSnJ8WPJcEjsg7cQtmqNoo7YSb/gGLMnmO56fkMdmpR317FVEhCx/KOfsNhS8OApuGCpNroeNsEziGf+3/a+BUqq6ky3mgQdScY43nQfq1pKRZuuZJpCRGmtKipINTRCKkhjqYNLIkYesWwxWKjApVrBgO+JhQTESasj+EjUHqK4pjIxMXbm3jFZo0WiEpLJzLQxo2ZwVkay7loxWffe7/v32edV1VWnHwUk6VPddV7/2fucXfs73///+997e8ZEhwgo6OmnKQQdEvNMVfT40XS7gl2uKL1KRmTyDSkwx849GP7oTIyxt98ce0K/4MwYPyJu3U4MaYm5EDmoJWfucHVBZEAsAjGW7l8K3H3qyeX7pfGKkLLQbHZBxKC125AdyOyVpcyOLFU7Et1IYK5ezTpAjfAKMAO7SQckmTF+ZCmBE/AC7qEn3ctS63lCtD4gCaiUS4YMKeLn5+hZ+D8xrfXPb/n5X2FkZiyAlNWqbLVL3fL229/62813v/2PL6H96h9pcvmN8aMO9+pP4R/H5FEv/0IacclSVqHaY09c9NP3oRnC1/6DX/iO8aPih+4VmL5mGYdgoUnFGD/X2BPi8aNWd8GS76JBilLfvf2DTwJAZR4/+AyXPbUEIvAK3v4UjCkXS0mvXlKXzg5z09/+AJqYazrRzXH8iBdMoYHO61DuGJAkY0+4bSkZ0ei8Tff9CBNuYDYCe+wJRS4yjh/Jjo6Oy3Y8gXSepmO+QrvUyRg2/bgr7r4bQ8dseWKHmn9UIFWNpthfiioYhi26/9C2BROX77yL/gI1Jrq+kLMgYmgKxBmtu/b+eR+uw8Doq1fvfPLJ8d5x/BAsMU4mY1uOHvezMEZZmccP/aUkrOnJnaslu/13YeYOmV9qvs7NqiplG+ZkOA0CFwENvtBma08sKrYUuEfgoviHgAH+XCyF6AlGXyhjC9iEBK0zUNYQnegAhvSXeunLK17C9r+/rd0TlhMd7VISPYGZO146/St/ezPAdDo6etA9MQSP35133vlnF9356vsIN2KDkwyNqYvHbpfCAElnw5Hx/qsvXwR52lLfrjE0purVizp+0qQlGEdsypvL9r556qmc4dA7JjroBn3jMaYRIl0fWLZsCdqvwC1nlHn8Tjh1ypJTLzj1g73L3kTjFSToRNe3yl69VA0/hindppxxAbLDGGcYbwlYvdLHaLPs1Qs97YontoB99u3bsmoVIcVevWbdMdulqB1yfOb71qIv/A4ZSsndLoX+UgxSAlzWbt68Qg1+WYGlJMhvHzvU71i1CfN7iHbox5bChE+glwnwFKyet/PQ3FkYwhnhew7FT9lSkIHU0nlXoYF2FuEHRrLdE2avXoos2Dlr9aGdlNvDlJ0sZfaXYkp7rsWM83BhSHb+WIq2FKKRoOsBAAQSPAu0qxzTDOhIdEEIZGhRNZDGXDF+ATX2BLgLMMI//vBBmsNgKdVf6p5vmf2l3ubMomUjJGGoiXvYUxFde8WPgfml/NhS2uN35/s//OpvXn4fQ17e9+6rjJqtOFfv2X//03ff/cHLv2G3qp8K8Kj4VX9RSa9ekMZJb34XI+9BV1uNfkwY0ZLhDOdeozV/GXSMrbcPHLjr4r1UDVevZtADoo08thQGTn/qLsz69tTq61Z/+WIJ3nOxFCFFy+nNb3LEQPaqWv1NTr2D0WP8jJDETr3nXYGpA6ZxGsTbboW9pFhKP6UZPQG4QNV74r6bb0bIOrfF42cCzxwTnZCCUrdi8+bNq+AcJwzLoycEeGguhumGMAsZShMev9r9pdAcK0rdh7NuPmvFPOloKyMkWapF6JdgKfAPADJhwbb7V9w8d/9y6TzoVvyITCY0cc+8FStunvUhnOPc2/5L1XTBV5V0lAfQ4AiZiOxWrLgWI6dDiraUlZ1+p5Wt22TmDvrngCvgiXghtspYCgcbGhgBCJjgn2hhu5SuIhgaE2OiE5iEJj6QJbaAwGGyFHx+8FCcfovqL4V2KduJLrYUQmr/9bJbwE+cIBtkJTF+fj1+mIvt3Xcv+xrmlH/1p/epNlx2lLeKx1T8EOP3w6++9tWv/uLVH/xwswyP7jd64qRJb9513V2rz1q9+va98KQfwHy6znYp7fGb9J8YzPI6SH1z77LVZy2DK+IMb7vUJ5esmQtH/OrVFy+DHwPTuinFT9+qjOMHTD2A7JgQssN40SQun7MgIsgPoXkYqYXTQl0mc/WCpSyPn26XAhJ+fB56Vl2GoCX6BQkpSMltOCLRp8FzSMUPs/rC3Cprl1KR6DSiMP81Seo8IoyKn132+skca0aiU1tDnN3S/VfNRTARBkFCjSdLWRdS8eNoY1gQDDj3fgycvo1S5TF+gND4J/fsxIDo8Bzugcj4cRX6SzE7KI/3IyHFib7bpW6aLsRDomoQPEDFa8Cm25YCSBSOFKEBdoCXN8aP11EKkGoQXPGiobonxJbaTJc4lnu+9fbdL52ODZd7wuzV++cvvf226txx+s/fvgzqH7sg1ohEN0dIYiT6nT/d/NrLGFTiB+KeqDQm+tm/+doPLnr53Zt/cRFsqaFFon+Ckegf++Cum2+fcgHmFp2L+Www/bWTpRZBFeRsHXs/sfe6m58644IzPlj92BJOd+2xpT65DBMIoOPVXdAi0QkLkeju/lJK8Zt0YO4yoPjm288444IlnMUDxlQtxU+Pib5p84823bcZ1tQGjPz/BMFSHuMHeBx/HtqtNj0hrVeMsQCkrg8rLlPtUiQpNOSuAtFtgUmFIIoKLIWDmI+AkNtw248wVBIT8mVLCUtNxDzwh7ZxOupD2yaq+aWadbvXQtpSpKBGROfdP+8ZDMaC2CQ60c+/8RUTn+iCiPPA0PilVB4RggudboFEontGSBKSmojBzeZtA/iQnclSmrwdgPdsQvHjgOhQ9szAPUKGZOMKSMLMHWQeEaGZBI4C/GhLWSwFjx+mSsQJiFFS/H5IaTgshdYmE1KwqmT2axekzBGSMJ/bS99SLcP3fOuvpPUKY09c7nlA9641v9RmePnQUYrK3J2vmfNL2e4JZUudfdEPOb/UD17jXFSYX0r3l3In6d2z+ktd98EnPrFs7lPowPSJ767Yy0hyu78UItG/hFAl6S+F/k3oMohgP/aXgn7otqUQjIT+Uhc8MPf2SUgJ/aVgbjnapUyP3wmn3oWZdGQeKzSGqfml/LVLYUh0OhtWrbjvCgzEgm1p6nWx1AyOiQ4gTNu0Y9UWcBViLBBThGmk4ESXp1fRE5DAJIgy+9S0abdesYqhtWXtUkzo+ONue3rTFbfu+/GWVU9LcK0fljqzEf4JDIk5C9pc4zqYVPOABDrRQ/oHIEtBOcRn3bWHdnI6HFAMQvMctpSK8WuEzJnPcPwkzDG1E5EUgFi5LYV0Gg/vPwQ6fGXinv33c2Zfn/2lOKM8EEAkiE+BxlQDQIFevVPlZh0eP+p0ohpCnsqfh6WEmpAIzjBsiUniM32Iih994VDn2L5LhY6GFA552qXMpl6I/becR+8qNPR+FAFJPlnqa+j2fvariIg4GzPe/ELZUmWR6Bf95mvofXjn++SyOzHXFJHlZ0Z5ePzYgQktvFOWsXMhWcrbLoWwWTbyXswW3g+WfQBWeXM1Jr2R/lKOGD/IPDX3u3Ae/udecSGe9dQFUCHhntBvS4nxg58DHa/gC1n2JnogLkGimK7e32izGCOW41NO20GUHGfNL/U9K5pB21Jsm4WBNG3DhmnT0NMJjbXsgqhZ6i1MLArvOyZ023LrbWvRDQQArcxSAk50udq3ZcOWaRtu20KnvR9bCj0w0Oq6HMMerVu+fPmCpc/Al+eNRGe7VCN6aixf/uQrkFqw/Jk96yaUj5AEJju8YM+CVyYuQMPVnmfgwiiPniBLjdfZLVjwDPDHjvK+evWCpUgpDYQLwUCSouJWFj1BYiL6KEK+OrHBE4mOMWrJUKA4i6QoNURICZSsLw4nS5A5FT/26pVpBoAh4k1AKMG1UPxqsJTZqxeTShFTGErszl9cJraUuCf0C89sl+LYE68i+g8+v/ff/bJM8ubXlsK0UKtX74UnHWhAixPUPyDBZilGooNu4B2fe9cHsJ+Ahqcwhw3GZmbYrDKUJcYPoXuYJ/QpMBSg+QCap9CXXibD0beqYvxOOOGB69A1mAlhgBhoirCl/LKUBNrt23AbILVh1ea1ZCRHr96AOUISZkhctfY2zBy1Y8ePVsloYRg53c1SamTMHfTm3b35aTZLlbEUnCHsebV21YYNq3Y8vWPtbRxA05ctRSf64T07929bsOfaQ4cO7V/OIZBoS2mW0u1S49ct3b//w3VL50FK5mwri/GD5bQACS1fvh8iHOsP4HHaUuKeAEVNRHbPMLtZ4CqMTuZvtFnM3AGWAgwABoBKGIarsnH8ABV0KFQcpSwl6ItOlqLHD74LJkUtkolxQAvsDhFSJkDIOYIWBZmK7VIkJgtS2BrCjPJ3/sbsgoip2LTHr4ylzr7o/R+qCUgRPPsbCVzyxVJs6p00ae9dUPqwgEDg8aNXwWVLfYmhEpgm/i6aWR/jzKDflUCmSc4RkmhboeMVOsmzx9RTc2+/BI3DZdETdKJPWnbxMsAO03ygxyL79nJMdD/9pRh0twMudCxXPL356Ss4ZhjH8dM0aLIU/A4YzHITujnB7sL8UIqlTCmxpY5DB5CnV23ajHilDYgDZJqVbKnjr9hx32WX7dh039PoqEjgCUudY0W+63eFc636S03cdmg1pmGbt/rQPLQm0ffNgCSXewLtuJjQDR6Fa2ddNW/eVXPZHlwW44d5P5jQoXnoUwXTbClE6PHzjDbLXlWr5yK7+w9dexViAiHlm6Wms/bTpaCgwh5TDfAAWizFsFnKAHX051EQbOXXgAAAIABJREFUqwaodICU1f6qevUqDoNQg6ALosNplwIrCTURLibCPCylB3BWiBIxEfTLUmAnQQiDZ9UGItF/a/06druUntnjZQznR/WwthNd2VKM72MzE8Nnl7yJ2TRQ6d1joi9CNBLCxUUK4Jr0AeawAWzcttQFbIU6Ywqd4limYDg/hAU6R0gyZ+4ghyE7XP8xZIcIJbCdr3H8AKRbp61ai+qPRUwc1nFHjJ/p8TsOfQqfgAv9vie2cNAXqIrinrBtKfgAp2F+qeO2bLoZJ3XnjnJbCgKXrb1t0+YVmzZM24AIWron/LRLASyYt2bntkMrMNvauj3zGG8+/rBjhKQAnegTxp+57apZ27ZddfNV25Yv+HAWhjJHr14rekJFoh/GPPH7MQ3bWdfuWbAHEwiApsptKTgwkB06XmGE9QXoeLXT75joaJcCS5mebyBBNuEtl7En7LDZrdT4xCUxWfAmyHH1l5K5eoE7QhPY4xbxRHAOk6Us3U82PO1SVtisW8q3x0/QwS97QfSEbt7UM8rbJ60tfzF+QAYqPio2h5M9gZPhkDZcLLWIHj/QCwab5Riz6O7EmTkALSp+yoklsyByZHWMWctTCJD4BEaoxfQFDlvKnF9KJSTXM14DubFdyhdLEVTsNAgcbJm278eMvsM4fhZrKJZCf6lVCI3YvIOiT6wQw8vqKG/G+E3bARfHcU88DafhcZhfSnv8NN1J2Cw6dKAP8a2YxR4h7whfunsD6G4fY/wsMSc9mduM8RuP/lKImEDE7J5PPYn+UvMwP4envxSjJw7vx/xS63aehb4fjeN2sr9UWfQE+0stn7DnKvaXegWzeCB6ArbUDR6WOoyZdJAdpluEFPqSiINxCLYUtDqEnwMIJCOoa46mXvaXmkwrStBCvwM/kGWMn81SOsaP1hRSIqCE1IYMKQ9IzF0nS3GuXnPKNq0lmlL0+FX7aQLa42dBxNoYwpjoFX5zxyGwlAQkAQUIN0LV5vjLgAr4yral6PHD5J/ElLnAo84tHHDaUjjGsFkcJ0awPgnjMzv7SymPHymQwEQwBuLWoUbC0X6Cr3YpjAWhFnTWOB61m5YUbKkZrnapT6M5eC2HI9uwiT12960ipFR/KXlwevwIyrXo7YvwWnSHmvbE3dK5sGxMdPQAuRsq4Y9Xoa89JjKVLogn+/H4TRh35ja43RoX7EecOWPR54FcnJHoATrREYxESI1bPg+h45iybS5mXXO0SymP35l7MAHOhHXb5u15ctyZ7NKoWMoadMyMRGePx0aEACLy9vAzqwFRToYz3/FLV95ULAXFD1gSrGDoWSpr0Ot0uxQDktBfCod5CksDd6TrhtOWwmiz6CiPUw0kJ61HQnxYHr8yXHlsKTdLqbFdeE0tSDl69VpgMjfIUlYh2TF+HrHaAUkqEl1wgKGWUbmJCM644WGpL3EAZ3NRsIEYcEUnumqaEJYSlLGPFJqKgSdoeEjIyVIcxw/Btux4hUywMGv8n+RztFlaPLCM8KXW9MjJmOhmYSiWwrgUT2PS6y1bpmGWgLsvk77w7NWrXmAS4wfE7bhPhgE8bt/a1y5btY+Jlo3jdzwmdlu7Bb1JAD60HEuHEYFUtVehjIk+Yc8hzge6AMHo6z6EJoaoVw9L3Yh2KYDt0NKJTy5fADhsu+qqZ8BA3nap8VD8MAmvJLT0m3SPK5bSDVzinhg3DoofJjNAoDrmBp51/7bGwzKcS7XbVCXGsFkggBqaCRghIGxbthRYShQ/RP41gHgIKwgDNGyXsm5DxfgJ5gC+yR+h6w9JDl3xc6NJaAgOcidLWTN30Mv3UTYE68XHzB3mXL0epGCXXRA1pCxbqkyMtpSWqryWGD/UarAT4CTUAkcca7mDpQywlNbmBAFAH3BFkmFTr6RMjx9Qx/5RPAEVEslAoUSajhg/8fgBcApKSMskMrBVrSnb9MwdbFBSH73h8PjRlmIgINwTqr/Ucas23yeREW6P376TTz751g1roe2Bxm5di7GPiFEvSyF64tYrZM42SKG/lJpHG7ZU2LJjK5WqdO5oRMMr+kshMhzan/IXlEdPjAeNXQWQAG6Y1g3dnMaPe9IT44fg26WHZi1tREqH99DPwbgMuCc8LNWIjlfzliNm/cnGbfejVxUuAymeUun2XMcUS4F+uIi2xi+gAV0QzdFmOZyLuCdwhkgiE5HQgEMnS5kxfkAbP4Af6IoBuEOdZsDsL6VB8ucmA7k6ynPsCa3yqQ21Jx6/6q8RHeNXhpWKMX7lUv48fqjfqNInAQ2gFoETGchtS4nHjxAATEhisgGm8dhSoB7SDhKCx4PkMwlzfThZiv2lqGAyAS6KyJC7X1tKBQmRnKjzcSljKU5XjcYoZXHdtpZwwREEJNntUucJgoTvwHYyjQDSq8BSx4Pm0L4FIcToSiSg2FKWh9FVP80dQgoetyeXPsNZpcZhUpxtHFpCZu5QjA5BNvViaLJx6575kB0Px098BnPYUMqGFBU/HBiHGTkYdTseet3OPTwAj98NIYseGOPHFmMzOwRBITvQHRW/6tWL94voCYwrATSBeIgUQQxxYw06JpHoipgEVPiiqQT9j5CydCXt8Wsg3CiCNdKE42+I7gkFJo0YtUaouWMcP5ulcBZ/iqcQ8zfEXr0uwNCWst+UI1D8NEtB54Muxi+BBDY9LAW+IeVwShxFWFD6wGxeliI4mRCJCIAR9DlYyuzVS1NK5QRJysGXUcuJrsZEtxBFLAmijj+Zc/WadceMRAcC9t0KNx+FgCxRFOmekDpv9uqFDKEiaWCDi5eleBiAo6BKkGI+banxwBR8BEACekKZc2l426XGA3iwpyjF+TtEqszjB+JSZ9CWKwkiPqk8egIpTJSEOB+VTJnjLxKd7VJmcxLRJM46qHcAmQUpHYlOkCjYATH8lPWXgh1GIuN3g2iSuARENURIaTBR2+M2oELYOCBl9ZfSVKZghW/26rXeNfJre7+qzYL4W12Nqnr8fIyQZLonyBxU1lC/0QTraZdahIAkGj8YnIyYA2DoyeDa7fGTCUOthDDABIW9LAUM0ZzCH3HH/oikRl+R6BgbU9V+1G1uyD/HntCvYyt6AifVAjRwg9ETViQ6xvFjOiaSNDYrsJT0vJIU2LQlCUmv3uoshf5SxBJgwhVww6WCLfVPPCoL+jsJEgBEL0vhkJoER2+AkbztUv/Ec0pMbWFnPBQ/vyyFED5FKyAqQQ6VP9uWumnxZA53ThkaU+YImHDoOW0pifEDKCEnamEDkUUlcaiQ0jgRAjIZCJDyRKL/v/+mnIIcsWeiyv84fi6K4o6zC2I1W6rWjPLG56CJCUaozAFKVOaAg/JevcAAQIAzQIKYSaQicaLLi8C0pYgTWFBIDP5zMhBEbJbSM3eA7Kg/IhkxyZhyzSnbhKUciDIRA2CUjTYrEAJQFASUoNhSAjwV48f+UiamtFgFW4qQ4od/JqKkXcrWELxvQeyjKqObID5ADAwf9WlEpB6GxgxpeTU0JoFA8Mk3MFjB44djch5nlVxFlmJfEuYFaZXlOJn+Wuc26BosdSH7a9BDRzAJDsQGgnvCFeMHpNB+ghBliDC3LQWPHyeqIhiZEBbFZEMOmyVMzIX0ZLofwFJ25w6JRDflSGYUV4z2e7+jzZYhStwT+s3s6CjvEfRpSyl9D1oaIKN4Bgzk7S9FjJCbABKqfqQfejS8M8rT90DWoaLITTCeg6UY4wcnIKmQTCXpEKYAqb92KcYICRgsQNCWsqYZCCiWEiSInP7yxPhZ80vp8wK/iraUSGjUYYe2lI/+UqjbBBMWbKltQsplS+E0u+NypT/lc/UCIUgBkIEYE8JOeYyf4I0CKiGspFevn/5SauwJmj/Ak8IVmAiLi6XELfHx9ThBOIn0Rwbx+BFQCk2QhP43PJZyAEvw5XRPWDF+wlKKqxQIR+Dx4zh+lmFYDVK1WEq1S7H6w+whq5B7RP9z2VKLvkQdjfoZV5AjrjjfrsuWugCnIaOsJAoBhFjZLBVQHj9ojITTSWegZRgGGTW/M8BStWdBhFmjFD+p4rqeu1nKjEQXdrEAAyRYip9iKfNinQYlK7CUII2nIKf+lC1lvc0qvf5NlrIquIJN42Gnx8/s1UsZIAF/gJZ8OeaXMmdBVOeJJSbUKJG2jrEnpF2KFys8EcECP38zd5ClGOPHD8iKECDFYMsazkXZUjjeQKCAyBqwwtQEgKDX4ydXIw2sRfmTBIcKKS+YFFN5WUoFqiu04RtCQmk1Waqax68sxs/DUNz1w1KkDdIEajnQAHsJvdjRrOvx+HGEJACGwMJaERVZyGNLESOSEAnI9B46WUqFzVLdA9MhK7G2FOX5ZSkLJhoUZR4/ZftQWbNkFaQsj9/n9ymuE5zYQpVYyjxr4ol7aJdq8WFLCRJUVWclBxQ4v5TNUuzVSxmBQKN8CxbOtAKSlMcPlyqGYlr8B/KcTnS2S/0TccaTSlJt+YzxwwDO5CShH+UfJ3YAKw9LUYBqH89Rr4PZ5IqeEI8fsERbS2CJb+qTw7SlVIMTfHjKned2T1ijzSJQlufxJXqfuCeqvu70zB3lYCFLWfp8NVvqv2p0lA/Aq00okV0EKEAJfQouW8qMnqAjAShim5Npb6mhMeVNbdpS9K+Tw5gcIUcMOlhKevUK3eE8DCoQHiUg6tPjZ01MaMOFHj9dxWMyjp8NEnvLPUKSKH6SBL/MjeP2oanX+kE4zcDJRJ4lxsQws6Kv6AldvaWmm2A40xXjx+gJwYd823iw3RMmSzUqpECMgMFHPH4hzY8qekIw6wSUtEvN10KDrsFSV9OWamgAr0BRa+AOMWN37jBZio52EWF7k2yV21JMQXCE5ih8gCkkNUyWIjlp9wPw4mEp1bmDJEXHhPrjzu999pcqhxRtqVGK8ZvN/lIIdiAOGOtASMi2MxId/aXo+AaxqEVEIC+Djqk3rxk9IRwmiIP+J4mVefxE3RMgga3AiXQf1u7coXr12g4/VcFZyyV6woSC9vhZZ7nBRfpLqbeQOfaEQAUnzDVlACmrqqqZO3BQLtcr7MCWqh3jR9agDibE0ihzqJVHomO0WaJAfYk4rigbIQnHdEKgNG6WefzYLsW8cKrRhJ3EP/nrLwUYof5Dj1PBEQAFlUBL8VMjJCkRThiFLZE+scHVX8qM8QM2CSukoX2HQ+3cQZwIShRFkYao1jk8fjJCkhLTHkFIcLP2mOjWzB1eUI1ajF9EefwAIwEUKQi8Qf+DIxLdnF+KKBB/HmmFAAQQoPjZ0ROwpewTJCvs4YjNUtrjp0iOfAhEAXjIHXP11ralYEnZACAGWN3BUtaUbSoSncflzyEstpS8rHW7FK/FYstUGm1WySgxJenL43cmfH1mJSeoWM8bXb16lS0FfECKeBBhKoGOdikV4ydnBFUiStkK7VJyjtdLUrzGX4yfePyAEmX6AC0ElIDKivEzWUpwRtzBT84YW+xT8bP4jx4/Koe4HilwTZbC1/ThtUsJRRFLRIsbUtIupQ4DRUASlT9s4RLYUubL1box90a1dilb8avunrD0Q3fS5p6MkKQ0MQKEXj8qfqjqjJ7QrWacsg04Ip0odQ44IAXhAne7lFhSkhCk4X/AQEvSBVE/ZogxfriMOQjjQe1jsjhQq6lXs1SZN49jTzTrhikXS9loAXLgnliopPTYEyaeKGWixav46QRsEYhS8dPZVSxT9pcCoEBUJBVUb0EX9DX3cC6M8TOhxBWwIHRVxlLqnHCQhl9ZuxQzIkchCebIPEmKflgKIyQRUYBIg4IWwYIdBiSp3x9hs2i4gpBCnBlnAVS52qVoSzEFYo5gkmSwM+QuiAIPfJk4IVa495cOJzpsKbtdivJiUXEDkKr4m+iDoQft0WbdPOViqWq2lI8YvynCNlK3zcAIVHDUejsSnTF+KmxW0AZYySLQcUeiA2dMSNzs0PvAafDG2yyl5uoFEDFoBZIC0yENwBC5YRy/2iwl4/gp4jBBQDg45pdir95Pu/0SpngFW8pCkt4o6y+FSEBeLnnhS9ZiS+lXhP6lXGvx+AlaiCvWb/kfN97ZLoVIdJkkVGFBSzSWz9xhIkqt5BupeT1+CkSNZjKS4YTDfmL8ONqsjDcmDU7KiAIcgBdv9AQhRcgAbsqJDj+Ek6XU/FLKyBJsCk6R1jBZikhSqCJkvHP1wpayaIpQAua4T5bSPOD6Taydf1YzyrvhJHtO90Q1lvIRPUGPHzEgtpSgCS1GhJRjhCQZewLHCANGV5Cu+M1pBpxjT9AdDhHp+gE8SetTmS1FjsLF0C1BVKan4wSf7VLOtl6p5MAP5pcyZ44KmO1SCkYaKQoRdKIrL4bYUtrlR5yIAL5pS1lgEVvKktLAwtqXLcU6bv2hihNajES3PX6cX8oJAQiR0zBXr3uEJHKd4BKAkS0k5WUphhRqVCJXtUmPX3UVhfUMXRA/ciJ9dAALKYZoIG5kFkSbpXiS7EVCg+YHswvbZTF+QCK1Prmc0oToiScOUfETgCjAACX0TAi0HAFJOsZPQKUUP+Ug/OhQRpv1oMrFUtUgVcvjp2L8aM0QL2ySAg7Q0AsecbMU2IdNSASDKH0Ii8UlovjJG4AevwuYCFLBP8XFHw/Hh4OllMePDVpYYGkBUTS4aFDVUvwGj57AaLPa46ci0TVKnIaX2FKCF2VLVQKLl6Uq+EKAPz+9ehG1SkAJS0kNZ0V3tksZahw/YAVnRG1TcAFLWdMMmB4/JsUPlkYFlnJbypSQtEQSuTEgyXo5D7Yh7VKgEmIFUCIa2IcDW5Z7worxU96LBhIR8AXFzslSehZEAR5Yjg1XIjVkxU+zDynKNKS45XBPwJZS/aUcPCYhSVT8Oq2XYsVnrm5LWddWCZv1w1JEBuhHKENFkrPCu6InEOPHY8Je3MACWHDXzVJU4ggYqn7EKEDqmgXR6tUr2VEMQuA9SNZyT4gtBZJy13NUcbDUS036dUxbChKKd2z+wRZtKe3x41y9atFrES33+DlBqclMbKmKP5d5kP2lACYNKsIAO5yW0B2QhFkQcRikg8WkImzbkDLbpRp5HouSk3UZS/F6ZigyEGGOnAXRqiKD3q+wFMPPBVF0foNq5Ntql5K5egUgOINFudDBU952qY+shwBRKV4OYK+BJDVUJ7piKX5zrEut+8GWssZEZ69e09LS+DMvouI36KPyRNVevb+1oieq21LVS1VFT4AlAAHyCtAgHALngs1S0i5F/FBDhPtChSUBLZ75paBBQn8ENgVQTEo0Si9L4UJR/MzgCroO4cYYJkuh0nvGREcXXgsuehOIcc/cYZ7ASrbUl5elXICiJMVoS5ljbA7y4ylbCrWbFVyqOTYwN8eZnkh02lKNBAvBoEUrefwaLbwwNXwIKZ25HhOdifDDP6ba6JulOB0ooABOAVwaCBmuLJaSiUXpnqAM7Sjqdpx0wNUuRZZaz5MNjGdHCkwOKzQPD03x+70HJSaoyliKYvxXNpRC2Om1balqLDVa0RMSNovqL3ocUcMIIToOXLbUIjgSQCnw4QlsqPvRmDqJHj9HuxRxR32PmiQQh03ABZDSJBK6RII1lOMc+h6z4w7cGH6jJ6CxCQBM3GCvwghJ+qQtqTx+Ug9Vu5QLL2qHLGUZt2JL2dfrFNX8UlrR1PXatQakaNywdvNfVXNskqV0QaC/FOfqJZKwWI46UFYZS+G8pAZhgQ2+ylnKzIcr/mE57JOl1PTXwAuJigQkNhD2bJaCxw/7PCEgEYceQFdhHD/RB4kjRVeS2jBZSuBC8lHePCdLOW0pZUSZch/14fEbzD3hjZ74tQyI5DG4GJBUa+aOmBp7gnWbzgThF8ICvgWbpcTjRz2PNhB8eGIKScCFa+yJz6FLyBl0bfALgGOgE/acthRn7iBomQKpzEQUeM9Xr14d4mfXbyDquIfRLmVyseovRSCYYBCsYFvCZlXjeLktJdIQ8rJUmY7JdI/bN9PXlG2AEqs30MIKTjqiLRUywWe2S1GEGOBK+b8dtpTZLoVLebVIymq8axw/M3pCpUEplbHvGeUX3yQOcuCAkDER1YBtC1Jh9OrFCcBEGUcEFgSALI/Hb/JHIKFS4Vn8w/HxF0NzTyy+xbafCBQugq5Hr7YVP9hSMkGbPg0B8++WxZ2u11vZTu47f31RGU7kwJ3f/pXdNrLwd79Wg4x5ZRnjV13xM5bM/pyARTxv5A0FHAAMmph+Zbc+wBgL0eIYqS5ODKp4mDN70ZWmx+/F2f9AzwSxBBypJlyoj0DNJedak+GEPpj9Ofjs6ecg5LCmMIMKT71yUU5nV1YOcuDZGQ/fivFcnH4FQotgcbdLyfwaPOVcyFLWjPKfP0+nYiIPqUDYa0tx9BhnGgqn4vGrfIvqKOKOyD9uKBA57nap7Z9RcCIGCAVK4GMPOkZIQTkUaMrpRi3kGiEJptthrTtSQ2Ra2paySHHQ+919x01bARHoaaQUsw0XWDhx6/M36XaphxZ3aX4S7c+EDdul7OGSp+66dLJwHZiKHnluQ4vE6pHHOwbN3nMitvv5CxVYABGFLdOYuudfd1mdO4zQQ89/RUFN+ftodgmqTv+XxW2eJN27sY2/+6JMauOFCujnv35lOY4Dxq8qt1+dfef/em9jdUjFXpx9Jbzok9i1ECF3qOBQ8DBA5gknLFl0ZU7fTtOUc/8BQ4hJvARQcwZHKMOCAcUuOfcD8+WRWLQII/IBcEyDUe3Yonfwk1MW2TNHMbtJGIvMFJAVVT9MRjp7r+qeo/P0rA0Dmth5QJQGg1XXz3t45rNWcFbTv8942A0DyuHIjx/GLFSSZuyc62duqZAOVLq3vvGOle0733jLssqsvJgWsGm/Ly1xx8Yr2284jFqNyt0ouAIQCIbDh79/o+XVjoXm3/h9gk4BQFAAGXSqWnf+9ntVYqEHt78wUSKb5AxklDwHBDzfsqUC65idSoDnwYrYQW4T5/+PdY67GmRz6tWLu0A6DXQlCPeIQx0I27X4IbMOh3oW3zSZ03nQlIIoF7BPw19sveOOr+vqZQTnXLpLqAuBSjgHXH384x8htrou3VX1l3XdWPfVj34FYRBYXMF7Hz39lsX/Zr8fYm8s/vk9IiRSgBM6JJKn7nn00g5bzJWyudP8z1/89d9j4GbvctFff/G9B22WCjz4nf+qKPbrLwJ4+qErZRAItL557pWnnjoJy6n4yEq+l3xp9t9ZNSd2zZWzLxEpJSTfkD71c4sWaQYKTzn3yimOhHiayU25cvaSVivv1kvO/Ycp5hm1Ym5MaPaL9nAKlrhjw/j6T2Z+2uy0zv6A1jLtrRnPWZCKPTfjLcwzULYALjOeMyPRm579wmdlxDK31PHHPzzz+hartFqun/EwhqgoW8777Mxnq7snrnnhhVMOnzl+wvjGCRMmjJd/fI+fsO6F7ffa7VL3Ai+HJ4yXM1oI14w/ZfsL15iP3XrD9vmHKQGdkCKNZnITb7hxwUKL0pHdZ5CQOgcpbuDzqQUvvGBi01GKZZvGG4vv2DV58uSt+LdXk7fuev6ORMTMo/um03Z1qfP6e+vHJ0/uuum0h6wqEjA6Hr+0a+vkvzAl9Hpr14WXXm49dVn23gNNb9zx6O+/grmv+WcvX/mXRy+0XvCBQKz76sWPlEvd85VLn19vVQVv0mo/tvFX73371xWWb//6QQdWjNA/VxT79hf/eqPNZZWzMK65ZPbs2Yv4x4+9mr0kaV8RuvzKc11nTclzF72oiys09YNzyxOC3Llv7rYSMiLX7JXsVG5mjpLylFarNlviro3gs9/4/MOflsVccXvLw2/N/J5jvqdzvjfjLX1aryH28GdnXm9JvfOTmZ91nJMk8fXZmd94zn7FxZ77xucrSCGhn9jtwa4b1DuhdTe+8P3PlC3zf7n9fPvdYrSef+Mv55cJfWb+C9vXmQxkhO7dvv38cpFTbrjxho0WokILT7nxhQoJnfLCjfPt7PS9la9b/23x4kfvkM+j/H7+DlktXvxG0MwjFrj8ptNwGH9yTm0++ujixVd32+kZwZUX/uWFl156ofmRFb4uvXROiy1Vcyu8/o7nF2M57fnTFp+G9fNqWfx4mzWPENKI7b6aUqctfv40CD2vpR599N+SNWoR/OgP/u47733nd9/h8p58vcfltw8CK/bFsYUP/uo9nH/vvf+Lk/r/vfd+tTHm4LLKjxPJ/R3mCd27DMuV/OJy5bK9l7zournQNUv2ipApo1ZXfpCwf7VQ64uXqIRwuUqE3w+86Hi9BIzQ7r/jSS4qjb2y9Wa0FqICgXP+/Rtf+MJM/s3Et7n1hZkzvveOsyje+R6kbDEIy2fG9e8s1GLGc9fPYAqOBSnOnPG/nzXjK6Skgs/+ZIZkZIpJOjNnzvjJO/aoH5WLdOMp22+ssGw//xr7JwsY15xfWeqUjTpVI7zghQrp3HjjL++NhLQQhh6ZXzmh8zfa2qEtXbbVevnVN/0Nljv4ZX7/zU0PRYO21tC8+yFLRIlR9OqfOX/ZQCDYNueR8qVr5VAQFYgtTHQ9tMu5XM2dng4nogIBo/sNSKk/ERaprrbq+oM8e3PzwoUbF7ZuXLgwLH8LN8qC2uHCikGx8sWKJi0rR8cBI9i6ER/1hzWWjcnWVlf6EA+J1MakSPACbtjDCDPBhZIIrlbpJUWk1fHjS654GsmEK/XHlf37iVClr9g5zz37vf9Ttjx3jqOi4gV2znNlIjjw7DmOwoh1POuVuR4igKYzqcjXy6SYULvNZJXuEj93pPXe5eef/33zT9b4mr/ObdfGNr6Co5aYubH8XnNAbKYdWnjNKToZdZ5XzF/nqspGqPXe+ZKQU/T8Pfdu9JZ85dsNoAJMbZna2sLPVPluxZ5h8SAvM3BqaquSacFpEdc0ptM1gsEWXM8/vWpp8Qpp4UHXRigY0kskFAziLxjSupB9VVMkFA7zb2E4DJndwejzAAATu0lEQVQIpIJBN+5sYdeW/MaxGCHUHGtuxmu0qakJDOX68XGFSOAgPhQFFPHvFXKlbO8YBh4hEArEDGxhHXCVppbDOXyUBFaqyL2SKqEIJGP4B05w/14ZVJUA84txhQVrn0uzKrmmCNdNwaZwEIXhHaeyOYyDON2EdRgLinxhE4LQsVjZxIwIhLyLp7xizSodJCX5IEEkaSdipVZhA5mGIa4Wtcal7mtDzUER0WJqx11arDDWeUkNe957iCEhJWXmxL2FEW0KVbg9zyH1czq+3XiypOVXFzHZso7rDRzVm6OwZmmpzComxrxUdiIU8PFSrpgODkrlcP84StQ6JhL+ETVYRn/4xw0UiSoufld/nlisQnXwHqqZiisPyRTvON4Gvl3nzB2KyF3yXShy5VKUwd3jozbKJXCEEsxD5PgiG85i3mLFOx1Oen8w10jpVb9bVfi1alH1NMbOjpXAWAm4S2CYryp3ImN7YyVw5EpgFBTHWkkMogqM6jPWuodRzaxaYsfMjVS7ybFz9SyB7o5yP8TQ8jNqJBHpcDj+h5a0JR3ebQVyWMecG6ORhzO9YW/jRv6olPhYa0do2IUxqhe2Vq6oI7Dnh3Z7Ed84aVtfvbLWztdYOd1ufq4g3rK+bcS1rHtOR4WU7UPBnpW1vMK2cD23gp2dvou+nvcxamnvnjNkB/Ko5e1KaPeccIVqFGwb+fvalc2gOx1tfn/YUYDU5T1VUdkyp3oQ4KAPYZ8wOtZXhZQR7Om0pY/mFrBd4Yf33JHRMqSGQ8/Vo7kbnFrrbtuGFDYwmvfmSavijRgtc3Z75Oq0G/EPlLYRv4UiNVgKtWzEj9kxp7o+BUgdG36M4PSVtV9mwZUjL5ERF6kk0DG9FriPGZZCla4A/9Y5lfXB0SkeRyq1dDGHKCDl2BvOZqSnuq4zGpDaPac6vxudPcO59dG/pmW6D5YKvtFZoXaM/s3UTDHWNrkGpIyOY4SlQhVZwgiuH7EKVLOURMBYWV0Xc6Qy8iJrAqSq1ZDQKChlbeurs1RgZU+1W3A8b503YTjWziHS2XNscKrRtr61Rrl113iZ1X7a0ZFgla5wq6FRMNR93SB+M7/c0zHHfz+QynlHaug6sZU9tXWhyklbR9vWV79Lo2263we20qzHBnT7qkafyhOq8rEBKRgItViqe2t1/aAepVgxzcsr1qKQH9u1YnpDPBjp8aHRqzQ7/NSBqtkHp9fwhfinzEHzaeup/tPjdVvT0B408dE8AddkhXepN4e26ceGZ9qHNtM6Z/eIX4jexx/O/iDYMVZ2Hpl3ac1abj/U1PV+6oAtX74VrqXrVPTVlKdT7UhnxVeU44qRvxkciQ1/E6ZHdTqVpI8VTg3UhpQBf4uPd8TwS8zvla3TK2rUtXnWbwY15Ibgt566vgbH1MgqEKjVZhTomDxS3QGsW+M28BgSGD+CL76MVXT9CBLpnF5J4/fePAzYY6KeRt6o7lliiazsaWF5ODorSOS9/grrjSpraLmDnmXC+Mgim4NI7h5Em+rY2taNZSo//PKzRAJBP2IumZX+K3GkpxYBeOuDZ9/YXePFHOne6sO+8KTq3q39ijBWbu3p6eSn+p+SKZOSA91Gh6QgMlqwyrrCqZ4uPy+oyDHCqYGWE2u3wnd0rWeZvtFZ/veG69DlnZ3WH6Sxra9pC7W2qW110HEKMih7nJRFX2Be6ZSbM4ixHOyZo5eteqPGGv0Je7pqyJSd7vJtSgUMqGWqq4a7Frv3VI+PinKRmi/m4JyVjuu9m+6MKu/5qIItK1HD8etUXSjCpaLQnPUd6+fgjBKqKGIdlLwqpbPSD0kF8IpgMVR+WLN7jZRTZYkqp9wXiCC/3If1HtTU2lp/qM0sEVV0g31LuVFSf2zB6V0dnXjhyWuLRS8i9mmc0H/2QQrxz1o6B3H5Gq0du9s62tQXN/RHjlp7+qisuzq3qn057ZAxN3d3YMP5h+Q7fP2wUrJG99bOtipLRzAQ6a5yvq2tq9abLrRya9UEkIXR3ba7bfdu+cfKsfB42/TaUVNGxO8ymGTHnJ45U81EBpOpmccglVdXYrU2Ip1zqpaIn5PdRrDDj1w1GTyw+84q7rEw0G8zYjj/ItixP7q8QpFISD64JKROh2ItPevh40ACXESCG+pqWXFXFvMSntILts18Kt4bDiIpiMg3hdXiOqoPqnUkuH5XjwiaV1qnVRp23uZtyO34+mHNW4y0lZGc88DWzkhHdZbsrGkXtNjk7Exab4NTa2RRPRxJl7XhfL9b5eTaMEVdx/ROcE4Xmj6sN7p52PyRrN/KPKwS0pdKZZMdfS/V10b3ev3ww11v7ZraVv138ZNyRZO/+r0Pdhalj/Lnn3cx2nYNYgh5Jeuzb92RuRHpeXylvk3rnDNr+yRO6x2nQPVt1AZ0sh98Wbm1Y/r0wU/jTE0nphFBb/4qS9vW7uk93RgxYCr+7K+pXHAAQwBUDcut9HxmSamVa8eSZhXgYp1FSXeaO5ZQ2UYFgQqHyi7zHqhRIlUKS5/qXt85Z6XeGe46eGT84x0XdlVvA/EWT533V144iq+SSvdqvWrxJva+jI0ADCGwtiVTaaNSou5jla6yj3UzC/U6wEGhGv1y0ELu5Oq013lhLRV29DLWDzbsdeTyrq4OKathJ4ELR++BqqXUfeH6I4PdajfhONe2q+5tbVKy+DLXzoI2ItPnSEgKX+paBHcnm+Yxx80OtqkkB/kOdnYdE1EvKx8ZqWdysMcf6nH+Aq7ithOwfoOOC7eWv/p5ob2YP5JKyj58pLeM7l3Tj3SeVfNrw8vo6C1GZOWuEQfW1rh9A1mU144aF9XhdNuu2v6vOmQ7zCQ7LhxxH4Jh5jzky6Z2HSP9BMw77ziqkIKT/ZF6s7ax+/HaHr0h/45Dv6Cta6RN0kPPc/hXTN21/tiIaqr9CFO3rqwtdOQk0Cx4dH/ojsc7690ZuePxnmOhdvhppTlyP3ytnKbu6qwlcqycb5lzTEHK6OgZpJHryBRYqPsR/+3Gw7ulSMcjx0KRR2p1yhre09XpKmPqsVVPqz1m7eCXaleP/rlIy9H1lnTvqnt979jlJ4xn9IvWk2J3W80WNs8VR3P3GHv1VyuK4O6jygrlt2aUHzqCR4ypNaMjRno3RndXndsJfN7h0S1pnzdpihktk4+NQvNx22ib8SH1pyPSUndIBbq76t5O8Mf3ewVXHqFRF/74iu5oP1H3yAc4qvUI3Vv/YF64tR7lyJ03jlDow5F7oj+ZnIIj7qNYs6im9iB4YmwZK4E/jRIwIt01g/hGWBJHIIsR3uHY5WMl8IdVAhJ784d1y2N3O1YCYyUwVgJjJTBWAmMlMFYCYyUwVgJjJTBWAmMlMFYCYyUwVgJjJTBWAmMlMFYCYyUwVgJjJTBWAmMlMFYCYyUwVgJjJTBWAmMlMFYCYyUwVgJDKwEjUcwW+/0Mxjm0dEci3d4/kBjJ9WPX/vGWQMT/AMN1KgQjmo7H49FIciDnyiE6YA7DGCysyefj7a6Tdd0xcryj/tZwJuqaHL29qG+iPZ7vK41hqq6/wjGZeLg9kUi0Nwdak5gDw14iyaS9E027K7J95khtGfE18XShFG3vjbr6occP5lQPxGQhHTBcp+p9a5k1hXQ8lW3Jx119IKOvZ1TOkWyhuz2frndceK3HNMKJployIz1vhKOZ6FF7UCOSyCSOWu4Vyi6a6u1LpTLN/YVW59lkvmj9Esm+i/Wb1ylyJLeNeCEZ6y6lE71RF/LjKQV2oz1fPJL3g6EQo6VoIJjOAzWu4YIya0xI5Qr9sUB7uwtvo36L7dl0Oh0NhjPuH6j9Z5YKbAykkiO8B6gIWNqNXGaqs/CNaNRUEcLZvlJK6wt1esZIMOMuS+sZIz8r9fUNuH6EUb+HISWYSfXnEum+9myfg5YCgWRvvMn8JYyB69a4n2ZIGYyOMCBlJAtxQKopkU1ngoHmRDqbMACp9iyrUzRVSA+MtO4M6VajqWgglu1L5NPhXDFdBMljlWmKrsm09lMXbE8lwvUe/iswsKYQL/Rlcqmik6EjxV6tcBqJ3tdHqmIEC73xeD7fHj2QcEIqWCipKhOJpvqTxQM6yyGVYm1hY+DiQhrPmOxzPaOhnzHWkc+2Fvvc75TaydZRIpOKxpoTqUy2lIy15HJ877TmkoFcbzocTtJKMHL513uP+g3H84lc5uAAFL9EKV9IFYPRUgGKYDyVKMjNZVb3xVPx1joWlDfpTCqTTOQLuUI8Fy8h72SugFURLDWwph8FF01lC4VMnV+eA6X2WDJeaE8NuAy6Ym/UvN32wpo1pm7sfQDf++F4vDWWSBXxEnFBKm9CKjAQzwVyqX7Dd4pDEhzoaw8lC4X2Pltv4vXFNQn1GgknpgYSqf4hpVlX4Uwq0RwArsBS7YVUqtgSSxRSeRgtafxUfAs1F0uFA+3Osqzr/QySePz13tSaVHviQKZQyIXTB9oLBdThgXhvPBVltY32ZpoyHq1wkKRG6XAUd9QLSsqn+1PR5kxvP1ZN2Xj/mvjBNF5MRvSxVBY356rqo5S1lYxRzCeMULrUniqGkgPpTBgvwGI2QZZq7SdrwMwo9o6QpYxgvBAO5PLpKLgvkUXyASORHcg1gaXa+1FFYq25pkh7rxvV1j2OeGOgLxcIpfPAdBDPGG0JxLoHoKAAUsmf8Rkx+n4smjLV7RHnNvIEYtHeAn75Qi5bai/ko8XeIl4I0XQqeiCe7eV7x0iWsqjBI89pZCnES9FEhrbUQOo/AKCD/alicyDZEr/uuvhCpGyEc814UWbrWoFdTwBtZyCRKMCWisdL4VhLKR3PtwTCrZnHXpM6bERfL8aShTzQVcel2BdtTeTjudRAe6FUSKXD+BELfdFsL/6kkoUi/SNWMcKgwSRIGSyVKBXyKWi3fcgmAV0wnzIpsLmobchRf9qBVCKZKKWh3PLh5BlLfMYDfEwhqkguDbtg1DMeboKZNaW4ghRe8oFwvpA5GDVyA9He3t4sq4NRLLWnU3AJHtUF7gkY3NkStKk1gFT7AeA9Fmhqip/1eopwN4JhI5BMZS2XSv3vNtMXJbYzeZgZ4VhTvlDIN8VCTdHrXr84w58XZh/vuK4/NeyMg6UDvbClBmDVNRUPQtlIJOPpbG/8YFGcYEbgZyNnqcLrfaXevhwgBRUhWSjhNQKdt7+QAgubNlwiVRohGQ72ixkDr6dKB9dEAaliKhHk2yLV3irPmJIaiupQeGzE743Bsh/Gceh8RhNU0WwpjduKZUtZUJIRS65Z8TWqp0aurxAtXJw5gnW14kNQCW0qpqK9AwezqMkHMqms0VTMxnuLa0hNkUw8aaBiVby2Lgdj9PjBwgCk4vnWQLKUTpfC8I0VX8/2kZpwN9FAc1qbG3W5h0Bg4OBAFHfQXkrn4wuNdphv8XAsmcs+dl1Je+f6e0duS5Wi0WKqP3pwoBd1AnxFyyWXy1/3WDqkLIIkqkidHjEwcKA/minJMxaa4fUp4hmNXJLPaDb8hBPp19PHEEvhlw+EUSH60mtgMaVLWSArnABLHcjTE9teSpVef60w0p9lpOVNJ3orVNKD0Xi+O5w+KLYUlC24J0T3AMWG8RI7gmQKIzTWDJDDljoYDZi2VDxf7M0MXJxBRQvH08m6t0tBhQjEkH8qnYpDESayjEBzIPvlr/HHlAWQGmHhBwvx1mZof3iNUbuLHgRT4C0Wzp/1ej4paQfjj0EPr88Soy2FpgD3M0aai6891iseSAYiQLvCa+zYWGIZvGz5W2RLtO7DcFIBY4lSsTcNxxXuMZjMJeO99bWyfRRFvBfeYjT1HohChYfHL0zHX74dTvRoL9U9eN0KpWzYrEY+EhyxSLQX/NSXzRXgx4EZE0/CcCqUMvCT5PJS06AllfLUSuu4wD2BOg7ayObjwUB7H1hqoZHJZi+G6hdS+QJSTgf7MG6G7olYJJ3PpIpUt8FRBzNGuNifT6WVARUqPlZoqVvRw+Mnz8j3RRMN5jxYKppNr8EzEseJeC4Cw6BlGE9Wn0tQQO0JvGyzfTD+EnBP5GB4pvuiven2kqkeG3BP1K3AfD5VIp2OZxPhZCYXQbtUFMYLfE/tgUQm3JSRFkdxeB3Ju8wV42n42CLRRBPy7k/GYsliNhrO9ecCCezhudrhHYM7qp4LnOiBpmwK3rB0KdHc3xuF9w988h/Y0E1TI2epMFgqkISK0BtFbU7G+2BLtbSXsvl8oo8vj+bEmnoZUii7GJ8xnE1F+4owouDMlGcsxNPmM0YSa4pGopStb0EP5UeMpg6k+kr9Tf2FjdChUtmkcqIn89kmITA+VLFQ55etjxuOxQLNMSyBWKy5GS8nbuLLx5X1EuGN4HZ4M4a6kRjWcl8Bua8YTtd5GehFVFSpmOvrb88X4qk0W8rgHIUTPZHCu5y5Z3q7R6iTheFmQy7RaCqR6YsXUv1NmVQcDUWFfLK/N9McMNKv5dNoeK/T0w70xpH7AL2aCOPEY/EZ+/QzBgIt6VK6cCTDO2v9ps259vb2XLg5zNcsNlBPsWqOTQ0HmpJh9WOEk0fbO1HrKf5EzxsJVO1Cfzg8kDDa4wW8D2NYZcDguaZMEQSCJWGuh19EBtoC8/FoLFfMGdFCHK1fYawSTRlknIXjqvlneSjjBWkfHH4ug12JZ0Ti/WE0tCFiplBspaoXzyzEMzZnuBdIZgvpXJ3wPNhdVT2OiarxOlVvV/OtLyvcY0xec1hXTWDs5JErgf8P/YtYD3j+cy4AAAAASUVORK5CYII=;clipPath=inset(18.93% 16.67% 17.96% 0%);" vertex="1" parent="1">
          <mxGeometry x="291.54" y="289.5" width="378.46" height="98.4" as="geometry" />
        </mxCell>
        <mxCell id="XOkUOKhJ9j0XacPf6OrE-82" value="" style="shape=curlyBracket;whiteSpace=wrap;html=1;rounded=1;flipH=1;labelPosition=right;verticalLabelPosition=middle;align=left;verticalAlign=middle;strokeWidth=2;rotation=90;" vertex="1" parent="1">
          <mxGeometry x="872.85" y="447.46" width="45" height="85.39" as="geometry" />
        </mxCell>
        <mxCell id="XOkUOKhJ9j0XacPf6OrE-83" value="&lt;b&gt;&lt;font style=&quot;font-size: 20px;&quot;&gt;Temporal dependency&lt;/font&gt;&lt;/b&gt;" style="text;html=1;align=center;verticalAlign=middle;resizable=0;points=[];autosize=1;strokeColor=none;fillColor=none;" vertex="1" parent="1">
          <mxGeometry x="780.35" y="510" width="230" height="40" as="geometry" />
        </mxCell>
        <mxCell id="XOkUOKhJ9j0XacPf6OrE-93" style="edgeStyle=orthogonalEdgeStyle;rounded=0;orthogonalLoop=1;jettySize=auto;html=1;entryX=0.5;entryY=0;entryDx=0;entryDy=0;" edge="1" parent="1" source="XOkUOKhJ9j0XacPf6OrE-84" target="XOkUOKhJ9j0XacPf6OrE-85">
          <mxGeometry relative="1" as="geometry" />
        </mxCell>
        <mxCell id="XOkUOKhJ9j0XacPf6OrE-84" value="&lt;span style=&quot;font-size: 21px;&quot;&gt;&lt;b&gt;AFR&lt;/b&gt;&lt;/span&gt;" style="rounded=1;whiteSpace=wrap;html=1;rotation=-90;strokeWidth=2;" vertex="1" parent="1">
          <mxGeometry x="680" y="310" width="200" height="60" as="geometry" />
        </mxCell>
        <mxCell id="XOkUOKhJ9j0XacPf6OrE-95" style="edgeStyle=orthogonalEdgeStyle;rounded=0;orthogonalLoop=1;jettySize=auto;html=1;entryX=0.5;entryY=0;entryDx=0;entryDy=0;" edge="1" parent="1" source="XOkUOKhJ9j0XacPf6OrE-85" target="XOkUOKhJ9j0XacPf6OrE-31">
          <mxGeometry relative="1" as="geometry" />
        </mxCell>
        <mxCell id="XOkUOKhJ9j0XacPf6OrE-85" value="&lt;span style=&quot;font-size: 21px;&quot;&gt;&lt;b&gt;MHA&lt;/b&gt;&lt;/span&gt;" style="rounded=1;whiteSpace=wrap;html=1;rotation=-90;strokeWidth=2;" vertex="1" parent="1">
          <mxGeometry x="795.35" y="310" width="200" height="60" as="geometry" />
        </mxCell>
      </root>
    </mxGraphModel>
  </diagram>
</mxfile>
